G04 #@! TF.FileFunction,Copper,L2,Bot,Signal*
%FSLAX46Y46*%
G04 Gerber Fmt 4.6, Leading zero omitted, Abs format (unit mm)*
G04 Created by KiCad (PCBNEW (2015-11-11 BZR 6310, Git 8f79b4f)-product) date 2015-11-18 1:22:02 PM*
%MOMM*%
G01*
G04 APERTURE LIST*
%ADD10C,0.150000*%
%ADD11R,1.350000X3.500000*%
%ADD12R,0.797560X0.398780*%
%ADD13R,1.143000X1.397000*%
%ADD14R,1.300480X0.299720*%
%ADD15R,0.812800X1.143000*%
%ADD16C,0.889000*%
%ADD17C,0.304800*%
%ADD18C,0.254000*%
G04 APERTURE END LIST*
D10*
D11*
X106570000Y-99000000D03*
X109110000Y-99000000D03*
X111650000Y-99000000D03*
X114190000Y-99000000D03*
X116730000Y-99000000D03*
X119270000Y-99000000D03*
X121810000Y-99000000D03*
X124350000Y-99000000D03*
X126890000Y-99000000D03*
X129430000Y-99000000D03*
D12*
X132202440Y-88147700D03*
X132202440Y-87500000D03*
X132202440Y-86852300D03*
X133797560Y-86852300D03*
X133797560Y-87500000D03*
X133797560Y-88147700D03*
D13*
X134079500Y-85500000D03*
X131920500Y-85500000D03*
D14*
X99806000Y-93955400D03*
X99806000Y-93320400D03*
X99806000Y-92660000D03*
X99806000Y-92025000D03*
X105394000Y-92025000D03*
X105394000Y-92672700D03*
X105394000Y-93320400D03*
X105394000Y-93968100D03*
X115306000Y-93955400D03*
X115306000Y-93320400D03*
X115306000Y-92660000D03*
X115306000Y-92025000D03*
X120894000Y-92025000D03*
X120894000Y-92672700D03*
X120894000Y-93320400D03*
X120894000Y-93968100D03*
X130806000Y-91955400D03*
X130806000Y-91320400D03*
X130806000Y-90660000D03*
X130806000Y-90025000D03*
X136394000Y-90025000D03*
X136394000Y-90672700D03*
X136394000Y-91320400D03*
X136394000Y-91968100D03*
D15*
X127149100Y-90000000D03*
X128850900Y-90000000D03*
X120149100Y-85500000D03*
X121850900Y-85500000D03*
X115850900Y-85500000D03*
X114149100Y-85500000D03*
X105149100Y-85500000D03*
X106850900Y-85500000D03*
X100850900Y-85500000D03*
X99149100Y-85500000D03*
X128850900Y-88000000D03*
X127149100Y-88000000D03*
X128850900Y-93000000D03*
X127149100Y-93000000D03*
D16*
X119500000Y-93900000D03*
X134858233Y-92443895D03*
X103900000Y-92000000D03*
X117000000Y-91900000D03*
X132781200Y-90359875D03*
X126300000Y-92979998D03*
X101999992Y-92000000D03*
X103250000Y-95250000D03*
X110500000Y-85500000D03*
X135250000Y-95500000D03*
X132782024Y-91525280D03*
X125500000Y-91500000D03*
X102200000Y-88100000D03*
X104250920Y-88100000D03*
X118100000Y-96600000D03*
X107200000Y-95200000D03*
X115400000Y-96600000D03*
X125500000Y-85500000D03*
X118000000Y-87900000D03*
X131900000Y-84200000D03*
X109400000Y-92800000D03*
X133600000Y-94900000D03*
X134900000Y-93800002D03*
X138600000Y-95500000D03*
X122600000Y-92900000D03*
X98900000Y-90700000D03*
X104250920Y-90600000D03*
X113400000Y-92500000D03*
X119000000Y-90750000D03*
X137800000Y-90719202D03*
X132200000Y-88994802D03*
X97800000Y-84500000D03*
X110300000Y-87400000D03*
X96199996Y-84500000D03*
X101900000Y-85600000D03*
X110633723Y-90707870D03*
X104250920Y-85600000D03*
X110750000Y-92750000D03*
X123703212Y-89671179D03*
X117000008Y-85500000D03*
X119000000Y-85500000D03*
D17*
X134068717Y-93233411D02*
X134413734Y-92888394D01*
X133265674Y-93233411D02*
X134068717Y-93233411D01*
X132076325Y-94422760D02*
X133265674Y-93233411D01*
X121394380Y-93968100D02*
X121849040Y-94422760D01*
X120894000Y-93968100D02*
X121394380Y-93968100D01*
X121849040Y-94422760D02*
X132076325Y-94422760D01*
X134413734Y-92888394D02*
X134858233Y-92443895D01*
X118888339Y-94511661D02*
X119055501Y-94344499D01*
X114211661Y-94511661D02*
X118888339Y-94511661D01*
X113668100Y-93968100D02*
X114211661Y-94511661D01*
X119055501Y-94344499D02*
X119500000Y-93900000D01*
X105394000Y-93968100D02*
X113668100Y-93968100D01*
X119568100Y-93968100D02*
X119500000Y-93900000D01*
X120894000Y-93968100D02*
X119568100Y-93968100D01*
X135302732Y-91999396D02*
X134858233Y-92443895D01*
X135334028Y-91968100D02*
X135302732Y-91999396D01*
X136394000Y-91968100D02*
X135334028Y-91968100D01*
X103900000Y-92628617D02*
X103900000Y-93358022D01*
X103900000Y-92628617D02*
X103900000Y-92000000D01*
X103900000Y-93429140D02*
X103900000Y-92628617D01*
X104438960Y-93968100D02*
X103900000Y-93429140D01*
X105394000Y-93968100D02*
X104438960Y-93968100D01*
X127149100Y-92123700D02*
X127149100Y-93000000D01*
X127149100Y-91857733D02*
X127149100Y-92123700D01*
X123049099Y-88950901D02*
X123179722Y-88820278D01*
X117300000Y-88950901D02*
X123049099Y-88950901D01*
X123179722Y-88820278D02*
X124111645Y-88820278D01*
X124111645Y-88820278D02*
X127149100Y-91857733D01*
X116875000Y-92025000D02*
X117000000Y-91900000D01*
X115306000Y-92025000D02*
X116875000Y-92025000D01*
X117000000Y-91900000D02*
X117000000Y-89750000D01*
X117000000Y-89750000D02*
X117000000Y-89300000D01*
X117000000Y-88950901D02*
X117300000Y-88950901D01*
X117000000Y-89300000D02*
X117000000Y-89250901D01*
X117000000Y-89250901D02*
X117300000Y-88950901D01*
X117000000Y-89300000D02*
X117000000Y-88950901D01*
X104300000Y-88950901D02*
X116700000Y-88950901D01*
X116700000Y-88950901D02*
X117000000Y-88950901D01*
X117000000Y-89250901D02*
X116700000Y-88950901D01*
X101999992Y-92000000D02*
X102628609Y-92000000D01*
X102628609Y-92000000D02*
X103100000Y-91528609D01*
X103100000Y-91528609D02*
X103100000Y-90150901D01*
X103100000Y-90150901D02*
X104300000Y-88950901D01*
X130806000Y-90025000D02*
X131775014Y-90025000D01*
X131876603Y-90126589D02*
X132547914Y-90126589D01*
X132547914Y-90126589D02*
X132781200Y-90359875D01*
X131775014Y-90025000D02*
X131876603Y-90126589D01*
X127149100Y-93000000D02*
X126320002Y-93000000D01*
X126320002Y-93000000D02*
X126300000Y-92979998D01*
X101974992Y-92025000D02*
X101999992Y-92000000D01*
X99806000Y-92025000D02*
X101974992Y-92025000D01*
D18*
X124350000Y-99000000D02*
X124350000Y-96950000D01*
X124350000Y-96950000D02*
X124000000Y-96600000D01*
X124000000Y-96600000D02*
X118100000Y-96600000D01*
X107200000Y-95200000D02*
X103300000Y-95200000D01*
X103300000Y-95200000D02*
X103250000Y-95250000D01*
X132337525Y-91080781D02*
X132782024Y-91525280D01*
X131907944Y-90660000D02*
X132328725Y-91080781D01*
X130806000Y-90660000D02*
X131907944Y-90660000D01*
X132328725Y-91080781D02*
X132337525Y-91080781D01*
X115400000Y-96600000D02*
X118100000Y-96600000D01*
X131920500Y-85500000D02*
X131920500Y-84220500D01*
X131920500Y-84220500D02*
X131900000Y-84200000D01*
D17*
X99149100Y-84450900D02*
X99149100Y-85500000D01*
X106900000Y-84400000D02*
X99200000Y-84400000D01*
X99200000Y-84400000D02*
X99149100Y-84450900D01*
X132202440Y-86852300D02*
X131352300Y-86852300D01*
X131352300Y-86852300D02*
X128900000Y-84400000D01*
X128900000Y-84400000D02*
X121900000Y-84400000D01*
X121900000Y-84400000D02*
X114100000Y-84400000D01*
X121900000Y-84400000D02*
X121850900Y-84449100D01*
X121850900Y-84449100D02*
X121850900Y-85500000D01*
X114100000Y-84400000D02*
X106900000Y-84400000D01*
X114100000Y-84400000D02*
X114149100Y-84449100D01*
X114149100Y-84449100D02*
X114149100Y-85500000D01*
X106900000Y-84400000D02*
X106850900Y-84449100D01*
X106850900Y-84449100D02*
X106850900Y-85500000D01*
X99149100Y-85665100D02*
X99149100Y-85500000D01*
D18*
X111650000Y-99000000D02*
X111650000Y-96750000D01*
X111650000Y-96750000D02*
X112717288Y-95682712D01*
X112717288Y-95682712D02*
X132817288Y-95682712D01*
X132817288Y-95682712D02*
X133155501Y-95344499D01*
X133155501Y-95344499D02*
X133600000Y-94900000D01*
X109110000Y-99000000D02*
X109110000Y-96790000D01*
X109110000Y-96790000D02*
X110674499Y-95225501D01*
X110674499Y-95225501D02*
X132027941Y-95225501D01*
X132027941Y-95225501D02*
X133453440Y-93800002D01*
X133453440Y-93800002D02*
X134271383Y-93800002D01*
X134271383Y-93800002D02*
X134900000Y-93800002D01*
D17*
X136394000Y-91320400D02*
X137141862Y-91320400D01*
X137141862Y-91320400D02*
X137450641Y-91629179D01*
X137450641Y-91629179D02*
X137450641Y-95549359D01*
X137450641Y-95549359D02*
X135200000Y-97800000D01*
X135200000Y-97800000D02*
X129800000Y-97800000D01*
X129800000Y-97800000D02*
X129430000Y-98170000D01*
X129430000Y-98170000D02*
X129430000Y-99000000D01*
X136394000Y-91320400D02*
X136394000Y-90672700D01*
D18*
X136900000Y-87500000D02*
X135400000Y-87500000D01*
X135400000Y-87500000D02*
X134450340Y-87500000D01*
X134079500Y-85500000D02*
X134905000Y-85500000D01*
X134905000Y-85500000D02*
X135400000Y-85995000D01*
X135400000Y-85995000D02*
X135400000Y-87500000D01*
X138600000Y-95500000D02*
X138600000Y-89200000D01*
X138600000Y-89200000D02*
X136900000Y-87500000D01*
X134450340Y-87500000D02*
X133797560Y-87500000D01*
D17*
X122179600Y-93320400D02*
X122600000Y-92900000D01*
X120894000Y-93320400D02*
X122179600Y-93320400D01*
X120894000Y-93320400D02*
X120894000Y-92672700D01*
D18*
X127149100Y-88000000D02*
X127149100Y-90000000D01*
X127149100Y-90825500D02*
X128279000Y-91955400D01*
X128279000Y-91955400D02*
X129901760Y-91955400D01*
X127149100Y-90000000D02*
X127149100Y-90825500D01*
X129901760Y-91955400D02*
X130806000Y-91955400D01*
X127149100Y-90000000D02*
X127149100Y-90165100D01*
X133200000Y-92700000D02*
X131900000Y-92700000D01*
X131900000Y-92700000D02*
X129100000Y-92700000D01*
X130806000Y-91320400D02*
X131710240Y-91320400D01*
X131710240Y-91320400D02*
X131900000Y-91510160D01*
X131900000Y-91510160D02*
X131900000Y-92700000D01*
X133797560Y-88147700D02*
X133797560Y-88601090D01*
X133797560Y-88601090D02*
X134300000Y-89103530D01*
X134300000Y-89103530D02*
X134300000Y-91600000D01*
X134300000Y-91600000D02*
X133200000Y-92700000D01*
X129100000Y-92700000D02*
X128850900Y-92949100D01*
X128850900Y-92949100D02*
X128850900Y-93000000D01*
X133797560Y-88147700D02*
X133598170Y-88147700D01*
X129000000Y-90000000D02*
X128850900Y-90000000D01*
X128850900Y-90000000D02*
X128850900Y-89834900D01*
X128850900Y-90000000D02*
X128850900Y-90825500D01*
X129345800Y-91320400D02*
X129901760Y-91320400D01*
X128850900Y-90825500D02*
X129345800Y-91320400D01*
X129901760Y-91320400D02*
X130806000Y-91320400D01*
D17*
X128875900Y-90025000D02*
X128850900Y-90000000D01*
D18*
X128850900Y-90165100D02*
X128850900Y-90000000D01*
X128899100Y-89951800D02*
X128850900Y-90000000D01*
X130306000Y-91320400D02*
X131210240Y-91320400D01*
X98900000Y-90700000D02*
X98455501Y-91144499D01*
X98455501Y-91144499D02*
X98455501Y-92213741D01*
X98455501Y-92213741D02*
X98901760Y-92660000D01*
X98901760Y-92660000D02*
X99806000Y-92660000D01*
X105394000Y-92025000D02*
X105394000Y-91621140D01*
X104372860Y-90600000D02*
X104250920Y-90600000D01*
X105394000Y-91621140D02*
X104372860Y-90600000D01*
X113400000Y-92500000D02*
X113560000Y-92660000D01*
X113560000Y-92660000D02*
X115306000Y-92660000D01*
X119000000Y-91300000D02*
X119000000Y-90750000D01*
X119725000Y-92025000D02*
X119000000Y-91300000D01*
X120894000Y-92025000D02*
X119725000Y-92025000D01*
X136394000Y-90025000D02*
X137105798Y-90025000D01*
X137105798Y-90025000D02*
X137800000Y-90719202D01*
X128850900Y-88000000D02*
X129511300Y-88000000D01*
X129511300Y-88000000D02*
X129659000Y-88147700D01*
X129659000Y-88147700D02*
X131549660Y-88147700D01*
X131549660Y-88147700D02*
X132202440Y-88147700D01*
X132202440Y-88147700D02*
X132855220Y-88147700D01*
X132855220Y-88147700D02*
X133068579Y-87934341D01*
X133144780Y-86852300D02*
X133797560Y-86852300D01*
X133068579Y-87934341D02*
X133068579Y-86928501D01*
X133068579Y-86928501D02*
X133144780Y-86852300D01*
X97800000Y-84500000D02*
X97800000Y-85814602D01*
X97800000Y-85814602D02*
X98585398Y-86600000D01*
X98585398Y-86600000D02*
X127321362Y-86600000D01*
X127321362Y-86600000D02*
X128000000Y-87278638D01*
X128000000Y-87278638D02*
X128000000Y-88721362D01*
X128000000Y-88721362D02*
X128273440Y-88994802D01*
X128273440Y-88994802D02*
X131571383Y-88994802D01*
X131571383Y-88994802D02*
X132200000Y-88994802D01*
X109671383Y-87400000D02*
X110300000Y-87400000D01*
X97200000Y-87300000D02*
X109571383Y-87300000D01*
X97100000Y-87400000D02*
X97200000Y-87300000D01*
X109571383Y-87300000D02*
X109671383Y-87400000D01*
X96199996Y-85128617D02*
X96199996Y-84500000D01*
X96199996Y-86499996D02*
X96199996Y-85128617D01*
X97100000Y-87400000D02*
X96199996Y-86499996D01*
X99806000Y-93320400D02*
X98720400Y-93320400D01*
X98720400Y-93320400D02*
X97100000Y-91700000D01*
X97100000Y-91700000D02*
X97100000Y-87400000D01*
X99806000Y-93955400D02*
X99806000Y-93320400D01*
X101800000Y-85500000D02*
X101900000Y-85600000D01*
X100850900Y-85500000D02*
X101800000Y-85500000D01*
X110005106Y-90707870D02*
X110633723Y-90707870D01*
X107808519Y-92672700D02*
X109773349Y-90707870D01*
X105394000Y-92672700D02*
X107808519Y-92672700D01*
X109773349Y-90707870D02*
X110005106Y-90707870D01*
X105394000Y-93320400D02*
X105394000Y-92672700D01*
X105149100Y-85500000D02*
X104350920Y-85500000D01*
X104350920Y-85500000D02*
X104250920Y-85600000D01*
X118932263Y-89671179D02*
X123074595Y-89671179D01*
X118100000Y-90503442D02*
X118932263Y-89671179D01*
X123074595Y-89671179D02*
X123703212Y-89671179D01*
X118100000Y-92500000D02*
X118100000Y-90503442D01*
X117279600Y-93320400D02*
X118100000Y-92500000D01*
X115306000Y-93320400D02*
X117279600Y-93320400D01*
X111194499Y-93194499D02*
X110750000Y-92750000D01*
X111320400Y-93320400D02*
X111194499Y-93194499D01*
X115306000Y-93320400D02*
X111320400Y-93320400D01*
X115306000Y-93320400D02*
X115306000Y-93955400D01*
X117000000Y-85500000D02*
X117000008Y-85500000D01*
X115850900Y-85500000D02*
X117000000Y-85500000D01*
X119300000Y-85500000D02*
X119000000Y-85500000D01*
X120149100Y-85500000D02*
X119300000Y-85500000D01*
G36*
X135743760Y-92506424D02*
X136917241Y-92506424D01*
X136917241Y-95328417D01*
X134979058Y-97266600D01*
X130493464Y-97266600D01*
X130493464Y-97250000D01*
X130466897Y-97108810D01*
X130383454Y-96979135D01*
X130256134Y-96892141D01*
X130105000Y-96861536D01*
X128755000Y-96861536D01*
X128613810Y-96888103D01*
X128484135Y-96971546D01*
X128397141Y-97098866D01*
X128366536Y-97250000D01*
X128366536Y-100569000D01*
X127946000Y-100569000D01*
X127946000Y-99222250D01*
X127850750Y-99127000D01*
X127017000Y-99127000D01*
X127017000Y-99147000D01*
X126763000Y-99147000D01*
X126763000Y-99127000D01*
X125929250Y-99127000D01*
X125834000Y-99222250D01*
X125834000Y-100569000D01*
X125406000Y-100569000D01*
X125406000Y-99222250D01*
X125310750Y-99127000D01*
X124477000Y-99127000D01*
X124477000Y-99147000D01*
X124223000Y-99147000D01*
X124223000Y-99127000D01*
X123389250Y-99127000D01*
X123294000Y-99222250D01*
X123294000Y-100569000D01*
X122873464Y-100569000D01*
X122873464Y-97250000D01*
X122859204Y-97174215D01*
X123294000Y-97174215D01*
X123294000Y-98777750D01*
X123389250Y-98873000D01*
X124223000Y-98873000D01*
X124223000Y-96964250D01*
X124477000Y-96964250D01*
X124477000Y-98873000D01*
X125310750Y-98873000D01*
X125406000Y-98777750D01*
X125406000Y-97174215D01*
X125834000Y-97174215D01*
X125834000Y-98777750D01*
X125929250Y-98873000D01*
X126763000Y-98873000D01*
X126763000Y-96964250D01*
X127017000Y-96964250D01*
X127017000Y-98873000D01*
X127850750Y-98873000D01*
X127946000Y-98777750D01*
X127946000Y-97174215D01*
X127887996Y-97034181D01*
X127780820Y-96927004D01*
X127640786Y-96869000D01*
X127112250Y-96869000D01*
X127017000Y-96964250D01*
X126763000Y-96964250D01*
X126667750Y-96869000D01*
X126139214Y-96869000D01*
X125999180Y-96927004D01*
X125892004Y-97034181D01*
X125834000Y-97174215D01*
X125406000Y-97174215D01*
X125347996Y-97034181D01*
X125240820Y-96927004D01*
X125100786Y-96869000D01*
X124572250Y-96869000D01*
X124477000Y-96964250D01*
X124223000Y-96964250D01*
X124127750Y-96869000D01*
X123599214Y-96869000D01*
X123459180Y-96927004D01*
X123352004Y-97034181D01*
X123294000Y-97174215D01*
X122859204Y-97174215D01*
X122846897Y-97108810D01*
X122763454Y-96979135D01*
X122636134Y-96892141D01*
X122485000Y-96861536D01*
X121135000Y-96861536D01*
X120993810Y-96888103D01*
X120864135Y-96971546D01*
X120777141Y-97098866D01*
X120746536Y-97250000D01*
X120746536Y-100569000D01*
X120333464Y-100569000D01*
X120333464Y-97250000D01*
X120306897Y-97108810D01*
X120223454Y-96979135D01*
X120096134Y-96892141D01*
X119945000Y-96861536D01*
X118595000Y-96861536D01*
X118453810Y-96888103D01*
X118324135Y-96971546D01*
X118237141Y-97098866D01*
X118206536Y-97250000D01*
X118206536Y-100569000D01*
X117793464Y-100569000D01*
X117793464Y-97250000D01*
X117766897Y-97108810D01*
X117683454Y-96979135D01*
X117556134Y-96892141D01*
X117405000Y-96861536D01*
X116055000Y-96861536D01*
X115913810Y-96888103D01*
X115784135Y-96971546D01*
X115697141Y-97098866D01*
X115666536Y-97250000D01*
X115666536Y-100569000D01*
X115253464Y-100569000D01*
X115253464Y-97250000D01*
X115226897Y-97108810D01*
X115143454Y-96979135D01*
X115016134Y-96892141D01*
X114865000Y-96861536D01*
X113515000Y-96861536D01*
X113373810Y-96888103D01*
X113244135Y-96971546D01*
X113157141Y-97098866D01*
X113126536Y-97250000D01*
X113126536Y-100569000D01*
X112713464Y-100569000D01*
X112713464Y-97250000D01*
X112686897Y-97108810D01*
X112603454Y-96979135D01*
X112476134Y-96892141D01*
X112325000Y-96861536D01*
X112256884Y-96861536D01*
X112927708Y-96190712D01*
X132817288Y-96190712D01*
X133011691Y-96152043D01*
X133176498Y-96041922D01*
X133493013Y-95725407D01*
X133763482Y-95725643D01*
X134066998Y-95600233D01*
X134299417Y-95368219D01*
X134425357Y-95064923D01*
X134425643Y-94736518D01*
X134300233Y-94433002D01*
X134175451Y-94308002D01*
X134240698Y-94308002D01*
X134431781Y-94499419D01*
X134735077Y-94625359D01*
X135063482Y-94625645D01*
X135366998Y-94500235D01*
X135599417Y-94268221D01*
X135725357Y-93964925D01*
X135725643Y-93636520D01*
X135600233Y-93333004D01*
X135368534Y-93100901D01*
X135557650Y-92912114D01*
X135683590Y-92608818D01*
X135683683Y-92501500D01*
X135719444Y-92501500D01*
X135743760Y-92506424D01*
X135743760Y-92506424D01*
G37*
X135743760Y-92506424D02*
X136917241Y-92506424D01*
X136917241Y-95328417D01*
X134979058Y-97266600D01*
X130493464Y-97266600D01*
X130493464Y-97250000D01*
X130466897Y-97108810D01*
X130383454Y-96979135D01*
X130256134Y-96892141D01*
X130105000Y-96861536D01*
X128755000Y-96861536D01*
X128613810Y-96888103D01*
X128484135Y-96971546D01*
X128397141Y-97098866D01*
X128366536Y-97250000D01*
X128366536Y-100569000D01*
X127946000Y-100569000D01*
X127946000Y-99222250D01*
X127850750Y-99127000D01*
X127017000Y-99127000D01*
X127017000Y-99147000D01*
X126763000Y-99147000D01*
X126763000Y-99127000D01*
X125929250Y-99127000D01*
X125834000Y-99222250D01*
X125834000Y-100569000D01*
X125406000Y-100569000D01*
X125406000Y-99222250D01*
X125310750Y-99127000D01*
X124477000Y-99127000D01*
X124477000Y-99147000D01*
X124223000Y-99147000D01*
X124223000Y-99127000D01*
X123389250Y-99127000D01*
X123294000Y-99222250D01*
X123294000Y-100569000D01*
X122873464Y-100569000D01*
X122873464Y-97250000D01*
X122859204Y-97174215D01*
X123294000Y-97174215D01*
X123294000Y-98777750D01*
X123389250Y-98873000D01*
X124223000Y-98873000D01*
X124223000Y-96964250D01*
X124477000Y-96964250D01*
X124477000Y-98873000D01*
X125310750Y-98873000D01*
X125406000Y-98777750D01*
X125406000Y-97174215D01*
X125834000Y-97174215D01*
X125834000Y-98777750D01*
X125929250Y-98873000D01*
X126763000Y-98873000D01*
X126763000Y-96964250D01*
X127017000Y-96964250D01*
X127017000Y-98873000D01*
X127850750Y-98873000D01*
X127946000Y-98777750D01*
X127946000Y-97174215D01*
X127887996Y-97034181D01*
X127780820Y-96927004D01*
X127640786Y-96869000D01*
X127112250Y-96869000D01*
X127017000Y-96964250D01*
X126763000Y-96964250D01*
X126667750Y-96869000D01*
X126139214Y-96869000D01*
X125999180Y-96927004D01*
X125892004Y-97034181D01*
X125834000Y-97174215D01*
X125406000Y-97174215D01*
X125347996Y-97034181D01*
X125240820Y-96927004D01*
X125100786Y-96869000D01*
X124572250Y-96869000D01*
X124477000Y-96964250D01*
X124223000Y-96964250D01*
X124127750Y-96869000D01*
X123599214Y-96869000D01*
X123459180Y-96927004D01*
X123352004Y-97034181D01*
X123294000Y-97174215D01*
X122859204Y-97174215D01*
X122846897Y-97108810D01*
X122763454Y-96979135D01*
X122636134Y-96892141D01*
X122485000Y-96861536D01*
X121135000Y-96861536D01*
X120993810Y-96888103D01*
X120864135Y-96971546D01*
X120777141Y-97098866D01*
X120746536Y-97250000D01*
X120746536Y-100569000D01*
X120333464Y-100569000D01*
X120333464Y-97250000D01*
X120306897Y-97108810D01*
X120223454Y-96979135D01*
X120096134Y-96892141D01*
X119945000Y-96861536D01*
X118595000Y-96861536D01*
X118453810Y-96888103D01*
X118324135Y-96971546D01*
X118237141Y-97098866D01*
X118206536Y-97250000D01*
X118206536Y-100569000D01*
X117793464Y-100569000D01*
X117793464Y-97250000D01*
X117766897Y-97108810D01*
X117683454Y-96979135D01*
X117556134Y-96892141D01*
X117405000Y-96861536D01*
X116055000Y-96861536D01*
X115913810Y-96888103D01*
X115784135Y-96971546D01*
X115697141Y-97098866D01*
X115666536Y-97250000D01*
X115666536Y-100569000D01*
X115253464Y-100569000D01*
X115253464Y-97250000D01*
X115226897Y-97108810D01*
X115143454Y-96979135D01*
X115016134Y-96892141D01*
X114865000Y-96861536D01*
X113515000Y-96861536D01*
X113373810Y-96888103D01*
X113244135Y-96971546D01*
X113157141Y-97098866D01*
X113126536Y-97250000D01*
X113126536Y-100569000D01*
X112713464Y-100569000D01*
X112713464Y-97250000D01*
X112686897Y-97108810D01*
X112603454Y-96979135D01*
X112476134Y-96892141D01*
X112325000Y-96861536D01*
X112256884Y-96861536D01*
X112927708Y-96190712D01*
X132817288Y-96190712D01*
X133011691Y-96152043D01*
X133176498Y-96041922D01*
X133493013Y-95725407D01*
X133763482Y-95725643D01*
X134066998Y-95600233D01*
X134299417Y-95368219D01*
X134425357Y-95064923D01*
X134425643Y-94736518D01*
X134300233Y-94433002D01*
X134175451Y-94308002D01*
X134240698Y-94308002D01*
X134431781Y-94499419D01*
X134735077Y-94625359D01*
X135063482Y-94625645D01*
X135366998Y-94500235D01*
X135599417Y-94268221D01*
X135725357Y-93964925D01*
X135725643Y-93636520D01*
X135600233Y-93333004D01*
X135368534Y-93100901D01*
X135557650Y-92912114D01*
X135683590Y-92608818D01*
X135683683Y-92501500D01*
X135719444Y-92501500D01*
X135743760Y-92506424D01*
G36*
X140319000Y-98069000D02*
X135685342Y-98069000D01*
X137827812Y-95926530D01*
X137861941Y-95875452D01*
X137899767Y-95966998D01*
X138131781Y-96199417D01*
X138435077Y-96325357D01*
X138763482Y-96325643D01*
X139066998Y-96200233D01*
X139299417Y-95968219D01*
X139425357Y-95664923D01*
X139425643Y-95336518D01*
X139300233Y-95033002D01*
X139108000Y-94840433D01*
X139108000Y-89200000D01*
X139069331Y-89005597D01*
X138959210Y-88840790D01*
X137259210Y-87140790D01*
X137094403Y-87030669D01*
X136900000Y-86992000D01*
X135908000Y-86992000D01*
X135908000Y-85995000D01*
X135869331Y-85800597D01*
X135759210Y-85635790D01*
X135264210Y-85140790D01*
X135099403Y-85030669D01*
X135039464Y-85018746D01*
X135039464Y-84801500D01*
X135012897Y-84660310D01*
X134929454Y-84530635D01*
X134802134Y-84443641D01*
X134651000Y-84413036D01*
X133508000Y-84413036D01*
X133366810Y-84439603D01*
X133237135Y-84523046D01*
X133150141Y-84650366D01*
X133119536Y-84801500D01*
X133119536Y-86198500D01*
X133146103Y-86339690D01*
X133149069Y-86344300D01*
X133144780Y-86344300D01*
X132950377Y-86382969D01*
X132950375Y-86382970D01*
X132950376Y-86382970D01*
X132901349Y-86415729D01*
X132879674Y-86382045D01*
X132839683Y-86354720D01*
X132873000Y-86274285D01*
X132873000Y-85722250D01*
X132777750Y-85627000D01*
X132047500Y-85627000D01*
X132047500Y-85647000D01*
X131793500Y-85647000D01*
X131793500Y-85627000D01*
X131063250Y-85627000D01*
X130972296Y-85717954D01*
X129980057Y-84725715D01*
X130968000Y-84725715D01*
X130968000Y-85277750D01*
X131063250Y-85373000D01*
X131793500Y-85373000D01*
X131793500Y-84515750D01*
X132047500Y-84515750D01*
X132047500Y-85373000D01*
X132777750Y-85373000D01*
X132873000Y-85277750D01*
X132873000Y-84725715D01*
X132814996Y-84585681D01*
X132707820Y-84478504D01*
X132567786Y-84420500D01*
X132142750Y-84420500D01*
X132047500Y-84515750D01*
X131793500Y-84515750D01*
X131698250Y-84420500D01*
X131273214Y-84420500D01*
X131133180Y-84478504D01*
X131026004Y-84585681D01*
X130968000Y-84725715D01*
X129980057Y-84725715D01*
X129277171Y-84022829D01*
X129104123Y-83907203D01*
X128900000Y-83866600D01*
X99200000Y-83866600D01*
X98995876Y-83907203D01*
X98926563Y-83953516D01*
X98822829Y-84022829D01*
X98822827Y-84022832D01*
X98771929Y-84073729D01*
X98656303Y-84246777D01*
X98625587Y-84401197D01*
X98625643Y-84336518D01*
X98500233Y-84033002D01*
X98268219Y-83800583D01*
X97964923Y-83674643D01*
X97636518Y-83674357D01*
X97333002Y-83799767D01*
X97100583Y-84031781D01*
X96999906Y-84274238D01*
X96900229Y-84033002D01*
X96668215Y-83800583D01*
X96364919Y-83674643D01*
X96036514Y-83674357D01*
X95732998Y-83799767D01*
X95500579Y-84031781D01*
X95374639Y-84335077D01*
X95374353Y-84663482D01*
X95499763Y-84966998D01*
X95691996Y-85159567D01*
X95691996Y-86499996D01*
X95730665Y-86694399D01*
X95840786Y-86859206D01*
X96592000Y-87610420D01*
X96592000Y-91700000D01*
X96630669Y-91894403D01*
X96740790Y-92059210D01*
X98361190Y-93679610D01*
X98525997Y-93789731D01*
X98720400Y-93828400D01*
X98767296Y-93828400D01*
X98767296Y-94105260D01*
X98793863Y-94246450D01*
X98877306Y-94376125D01*
X99004626Y-94463119D01*
X99155760Y-94493724D01*
X100456240Y-94493724D01*
X100597430Y-94467157D01*
X100727105Y-94383714D01*
X100814099Y-94256394D01*
X100844704Y-94105260D01*
X100844704Y-93805540D01*
X100818137Y-93664350D01*
X100801943Y-93639184D01*
X100814099Y-93621394D01*
X100844704Y-93470260D01*
X100844704Y-93170540D01*
X100818137Y-93029350D01*
X100793526Y-92991103D01*
X100814099Y-92960994D01*
X100844704Y-92809860D01*
X100844704Y-92558400D01*
X101391002Y-92558400D01*
X101531773Y-92699417D01*
X101835069Y-92825357D01*
X102163474Y-92825643D01*
X102466990Y-92700233D01*
X102635484Y-92532032D01*
X102832732Y-92492797D01*
X103005780Y-92377171D01*
X103116785Y-92266166D01*
X103199767Y-92466998D01*
X103366600Y-92634122D01*
X103366600Y-93429140D01*
X103407203Y-93633263D01*
X103522829Y-93806311D01*
X104061787Y-94345268D01*
X104061789Y-94345271D01*
X104193089Y-94433002D01*
X104234837Y-94460897D01*
X104438960Y-94501501D01*
X104438965Y-94501500D01*
X104719444Y-94501500D01*
X104743760Y-94506424D01*
X106044240Y-94506424D01*
X106070409Y-94501500D01*
X113447158Y-94501500D01*
X113663159Y-94717501D01*
X110674499Y-94717501D01*
X110480096Y-94756170D01*
X110315289Y-94866291D01*
X108750790Y-96430790D01*
X108640669Y-96595597D01*
X108602000Y-96790000D01*
X108602000Y-96861536D01*
X108435000Y-96861536D01*
X108293810Y-96888103D01*
X108164135Y-96971546D01*
X108077141Y-97098866D01*
X108046536Y-97250000D01*
X108046536Y-100569000D01*
X107633464Y-100569000D01*
X107633464Y-97250000D01*
X107606897Y-97108810D01*
X107523454Y-96979135D01*
X107396134Y-96892141D01*
X107245000Y-96861536D01*
X105895000Y-96861536D01*
X105753810Y-96888103D01*
X105624135Y-96971546D01*
X105537141Y-97098866D01*
X105506536Y-97250000D01*
X105506536Y-98070300D01*
X105500000Y-98069000D01*
X95181000Y-98069000D01*
X95181000Y-83431000D01*
X140319000Y-83431000D01*
X140319000Y-98069000D01*
X140319000Y-98069000D01*
G37*
X140319000Y-98069000D02*
X135685342Y-98069000D01*
X137827812Y-95926530D01*
X137861941Y-95875452D01*
X137899767Y-95966998D01*
X138131781Y-96199417D01*
X138435077Y-96325357D01*
X138763482Y-96325643D01*
X139066998Y-96200233D01*
X139299417Y-95968219D01*
X139425357Y-95664923D01*
X139425643Y-95336518D01*
X139300233Y-95033002D01*
X139108000Y-94840433D01*
X139108000Y-89200000D01*
X139069331Y-89005597D01*
X138959210Y-88840790D01*
X137259210Y-87140790D01*
X137094403Y-87030669D01*
X136900000Y-86992000D01*
X135908000Y-86992000D01*
X135908000Y-85995000D01*
X135869331Y-85800597D01*
X135759210Y-85635790D01*
X135264210Y-85140790D01*
X135099403Y-85030669D01*
X135039464Y-85018746D01*
X135039464Y-84801500D01*
X135012897Y-84660310D01*
X134929454Y-84530635D01*
X134802134Y-84443641D01*
X134651000Y-84413036D01*
X133508000Y-84413036D01*
X133366810Y-84439603D01*
X133237135Y-84523046D01*
X133150141Y-84650366D01*
X133119536Y-84801500D01*
X133119536Y-86198500D01*
X133146103Y-86339690D01*
X133149069Y-86344300D01*
X133144780Y-86344300D01*
X132950377Y-86382969D01*
X132950375Y-86382970D01*
X132950376Y-86382970D01*
X132901349Y-86415729D01*
X132879674Y-86382045D01*
X132839683Y-86354720D01*
X132873000Y-86274285D01*
X132873000Y-85722250D01*
X132777750Y-85627000D01*
X132047500Y-85627000D01*
X132047500Y-85647000D01*
X131793500Y-85647000D01*
X131793500Y-85627000D01*
X131063250Y-85627000D01*
X130972296Y-85717954D01*
X129980057Y-84725715D01*
X130968000Y-84725715D01*
X130968000Y-85277750D01*
X131063250Y-85373000D01*
X131793500Y-85373000D01*
X131793500Y-84515750D01*
X132047500Y-84515750D01*
X132047500Y-85373000D01*
X132777750Y-85373000D01*
X132873000Y-85277750D01*
X132873000Y-84725715D01*
X132814996Y-84585681D01*
X132707820Y-84478504D01*
X132567786Y-84420500D01*
X132142750Y-84420500D01*
X132047500Y-84515750D01*
X131793500Y-84515750D01*
X131698250Y-84420500D01*
X131273214Y-84420500D01*
X131133180Y-84478504D01*
X131026004Y-84585681D01*
X130968000Y-84725715D01*
X129980057Y-84725715D01*
X129277171Y-84022829D01*
X129104123Y-83907203D01*
X128900000Y-83866600D01*
X99200000Y-83866600D01*
X98995876Y-83907203D01*
X98926563Y-83953516D01*
X98822829Y-84022829D01*
X98822827Y-84022832D01*
X98771929Y-84073729D01*
X98656303Y-84246777D01*
X98625587Y-84401197D01*
X98625643Y-84336518D01*
X98500233Y-84033002D01*
X98268219Y-83800583D01*
X97964923Y-83674643D01*
X97636518Y-83674357D01*
X97333002Y-83799767D01*
X97100583Y-84031781D01*
X96999906Y-84274238D01*
X96900229Y-84033002D01*
X96668215Y-83800583D01*
X96364919Y-83674643D01*
X96036514Y-83674357D01*
X95732998Y-83799767D01*
X95500579Y-84031781D01*
X95374639Y-84335077D01*
X95374353Y-84663482D01*
X95499763Y-84966998D01*
X95691996Y-85159567D01*
X95691996Y-86499996D01*
X95730665Y-86694399D01*
X95840786Y-86859206D01*
X96592000Y-87610420D01*
X96592000Y-91700000D01*
X96630669Y-91894403D01*
X96740790Y-92059210D01*
X98361190Y-93679610D01*
X98525997Y-93789731D01*
X98720400Y-93828400D01*
X98767296Y-93828400D01*
X98767296Y-94105260D01*
X98793863Y-94246450D01*
X98877306Y-94376125D01*
X99004626Y-94463119D01*
X99155760Y-94493724D01*
X100456240Y-94493724D01*
X100597430Y-94467157D01*
X100727105Y-94383714D01*
X100814099Y-94256394D01*
X100844704Y-94105260D01*
X100844704Y-93805540D01*
X100818137Y-93664350D01*
X100801943Y-93639184D01*
X100814099Y-93621394D01*
X100844704Y-93470260D01*
X100844704Y-93170540D01*
X100818137Y-93029350D01*
X100793526Y-92991103D01*
X100814099Y-92960994D01*
X100844704Y-92809860D01*
X100844704Y-92558400D01*
X101391002Y-92558400D01*
X101531773Y-92699417D01*
X101835069Y-92825357D01*
X102163474Y-92825643D01*
X102466990Y-92700233D01*
X102635484Y-92532032D01*
X102832732Y-92492797D01*
X103005780Y-92377171D01*
X103116785Y-92266166D01*
X103199767Y-92466998D01*
X103366600Y-92634122D01*
X103366600Y-93429140D01*
X103407203Y-93633263D01*
X103522829Y-93806311D01*
X104061787Y-94345268D01*
X104061789Y-94345271D01*
X104193089Y-94433002D01*
X104234837Y-94460897D01*
X104438960Y-94501501D01*
X104438965Y-94501500D01*
X104719444Y-94501500D01*
X104743760Y-94506424D01*
X106044240Y-94506424D01*
X106070409Y-94501500D01*
X113447158Y-94501500D01*
X113663159Y-94717501D01*
X110674499Y-94717501D01*
X110480096Y-94756170D01*
X110315289Y-94866291D01*
X108750790Y-96430790D01*
X108640669Y-96595597D01*
X108602000Y-96790000D01*
X108602000Y-96861536D01*
X108435000Y-96861536D01*
X108293810Y-96888103D01*
X108164135Y-96971546D01*
X108077141Y-97098866D01*
X108046536Y-97250000D01*
X108046536Y-100569000D01*
X107633464Y-100569000D01*
X107633464Y-97250000D01*
X107606897Y-97108810D01*
X107523454Y-96979135D01*
X107396134Y-96892141D01*
X107245000Y-96861536D01*
X105895000Y-96861536D01*
X105753810Y-96888103D01*
X105624135Y-96971546D01*
X105537141Y-97098866D01*
X105506536Y-97250000D01*
X105506536Y-98070300D01*
X105500000Y-98069000D01*
X95181000Y-98069000D01*
X95181000Y-83431000D01*
X140319000Y-83431000D01*
X140319000Y-98069000D01*
G36*
X126603293Y-92066268D02*
X126601510Y-92066603D01*
X126471835Y-92150046D01*
X126467862Y-92155861D01*
X126464923Y-92154641D01*
X126136518Y-92154355D01*
X125833002Y-92279765D01*
X125600583Y-92511779D01*
X125474643Y-92815075D01*
X125474357Y-93143480D01*
X125599767Y-93446996D01*
X125831781Y-93679415D01*
X126135077Y-93805355D01*
X126440602Y-93805621D01*
X126464246Y-93842365D01*
X126533025Y-93889360D01*
X122069982Y-93889360D01*
X122034422Y-93853800D01*
X122179600Y-93853800D01*
X122383723Y-93813197D01*
X122515082Y-93725427D01*
X122763482Y-93725643D01*
X123066998Y-93600233D01*
X123299417Y-93368219D01*
X123425357Y-93064923D01*
X123425643Y-92736518D01*
X123300233Y-92433002D01*
X123068219Y-92200583D01*
X122764923Y-92074643D01*
X122436518Y-92074357D01*
X122133002Y-92199767D01*
X121913200Y-92419186D01*
X121906137Y-92381650D01*
X121885735Y-92349944D01*
X121902099Y-92325994D01*
X121932704Y-92174860D01*
X121932704Y-91875140D01*
X121906137Y-91733950D01*
X121822694Y-91604275D01*
X121695374Y-91517281D01*
X121544240Y-91486676D01*
X120243760Y-91486676D01*
X120102570Y-91513243D01*
X120096731Y-91517000D01*
X119935420Y-91517000D01*
X119668001Y-91249581D01*
X119699417Y-91218219D01*
X119825357Y-90914923D01*
X119825643Y-90586518D01*
X119700233Y-90283002D01*
X119596591Y-90179179D01*
X123043910Y-90179179D01*
X123234993Y-90370596D01*
X123538289Y-90496536D01*
X123866694Y-90496822D01*
X124170210Y-90371412D01*
X124402629Y-90139398D01*
X124482962Y-89945937D01*
X126603293Y-92066268D01*
X126603293Y-92066268D01*
G37*
X126603293Y-92066268D02*
X126601510Y-92066603D01*
X126471835Y-92150046D01*
X126467862Y-92155861D01*
X126464923Y-92154641D01*
X126136518Y-92154355D01*
X125833002Y-92279765D01*
X125600583Y-92511779D01*
X125474643Y-92815075D01*
X125474357Y-93143480D01*
X125599767Y-93446996D01*
X125831781Y-93679415D01*
X126135077Y-93805355D01*
X126440602Y-93805621D01*
X126464246Y-93842365D01*
X126533025Y-93889360D01*
X122069982Y-93889360D01*
X122034422Y-93853800D01*
X122179600Y-93853800D01*
X122383723Y-93813197D01*
X122515082Y-93725427D01*
X122763482Y-93725643D01*
X123066998Y-93600233D01*
X123299417Y-93368219D01*
X123425357Y-93064923D01*
X123425643Y-92736518D01*
X123300233Y-92433002D01*
X123068219Y-92200583D01*
X122764923Y-92074643D01*
X122436518Y-92074357D01*
X122133002Y-92199767D01*
X121913200Y-92419186D01*
X121906137Y-92381650D01*
X121885735Y-92349944D01*
X121902099Y-92325994D01*
X121932704Y-92174860D01*
X121932704Y-91875140D01*
X121906137Y-91733950D01*
X121822694Y-91604275D01*
X121695374Y-91517281D01*
X121544240Y-91486676D01*
X120243760Y-91486676D01*
X120102570Y-91513243D01*
X120096731Y-91517000D01*
X119935420Y-91517000D01*
X119668001Y-91249581D01*
X119699417Y-91218219D01*
X119825357Y-90914923D01*
X119825643Y-90586518D01*
X119700233Y-90283002D01*
X119596591Y-90179179D01*
X123043910Y-90179179D01*
X123234993Y-90370596D01*
X123538289Y-90496536D01*
X123866694Y-90496822D01*
X124170210Y-90371412D01*
X124402629Y-90139398D01*
X124482962Y-89945937D01*
X126603293Y-92066268D01*
G36*
X116466600Y-91266053D02*
X116300583Y-91431781D01*
X116275744Y-91491600D01*
X115980556Y-91491600D01*
X115956240Y-91486676D01*
X114655760Y-91486676D01*
X114514570Y-91513243D01*
X114384895Y-91596686D01*
X114297901Y-91724006D01*
X114267296Y-91875140D01*
X114267296Y-92152000D01*
X114149402Y-92152000D01*
X114100233Y-92033002D01*
X113868219Y-91800583D01*
X113564923Y-91674643D01*
X113236518Y-91674357D01*
X112933002Y-91799767D01*
X112700583Y-92031781D01*
X112574643Y-92335077D01*
X112574357Y-92663482D01*
X112635889Y-92812400D01*
X111575446Y-92812400D01*
X111575643Y-92586518D01*
X111450233Y-92283002D01*
X111218219Y-92050583D01*
X110914923Y-91924643D01*
X110586518Y-91924357D01*
X110283002Y-92049767D01*
X110050583Y-92281781D01*
X109924643Y-92585077D01*
X109924357Y-92913482D01*
X110049767Y-93216998D01*
X110267090Y-93434700D01*
X106432704Y-93434700D01*
X106432704Y-93180700D01*
X107808519Y-93180700D01*
X108002922Y-93142031D01*
X108167729Y-93031910D01*
X109979091Y-91220548D01*
X110165504Y-91407287D01*
X110468800Y-91533227D01*
X110797205Y-91533513D01*
X111100721Y-91408103D01*
X111333140Y-91176089D01*
X111459080Y-90872793D01*
X111459366Y-90544388D01*
X111333956Y-90240872D01*
X111101942Y-90008453D01*
X110798646Y-89882513D01*
X110470241Y-89882227D01*
X110166725Y-90007637D01*
X109974156Y-90199870D01*
X109773349Y-90199870D01*
X109612921Y-90231781D01*
X109578945Y-90238539D01*
X109414139Y-90348660D01*
X107598099Y-92164700D01*
X106432704Y-92164700D01*
X106432704Y-91875140D01*
X106406137Y-91733950D01*
X106322694Y-91604275D01*
X106195374Y-91517281D01*
X106044240Y-91486676D01*
X105875254Y-91486676D01*
X105863331Y-91426737D01*
X105753210Y-91261930D01*
X105076434Y-90585154D01*
X105076563Y-90436518D01*
X104951153Y-90133002D01*
X104719139Y-89900583D01*
X104415843Y-89774643D01*
X104230761Y-89774482D01*
X104520942Y-89484301D01*
X116466600Y-89484301D01*
X116466600Y-91266053D01*
X116466600Y-91266053D01*
G37*
X116466600Y-91266053D02*
X116300583Y-91431781D01*
X116275744Y-91491600D01*
X115980556Y-91491600D01*
X115956240Y-91486676D01*
X114655760Y-91486676D01*
X114514570Y-91513243D01*
X114384895Y-91596686D01*
X114297901Y-91724006D01*
X114267296Y-91875140D01*
X114267296Y-92152000D01*
X114149402Y-92152000D01*
X114100233Y-92033002D01*
X113868219Y-91800583D01*
X113564923Y-91674643D01*
X113236518Y-91674357D01*
X112933002Y-91799767D01*
X112700583Y-92031781D01*
X112574643Y-92335077D01*
X112574357Y-92663482D01*
X112635889Y-92812400D01*
X111575446Y-92812400D01*
X111575643Y-92586518D01*
X111450233Y-92283002D01*
X111218219Y-92050583D01*
X110914923Y-91924643D01*
X110586518Y-91924357D01*
X110283002Y-92049767D01*
X110050583Y-92281781D01*
X109924643Y-92585077D01*
X109924357Y-92913482D01*
X110049767Y-93216998D01*
X110267090Y-93434700D01*
X106432704Y-93434700D01*
X106432704Y-93180700D01*
X107808519Y-93180700D01*
X108002922Y-93142031D01*
X108167729Y-93031910D01*
X109979091Y-91220548D01*
X110165504Y-91407287D01*
X110468800Y-91533227D01*
X110797205Y-91533513D01*
X111100721Y-91408103D01*
X111333140Y-91176089D01*
X111459080Y-90872793D01*
X111459366Y-90544388D01*
X111333956Y-90240872D01*
X111101942Y-90008453D01*
X110798646Y-89882513D01*
X110470241Y-89882227D01*
X110166725Y-90007637D01*
X109974156Y-90199870D01*
X109773349Y-90199870D01*
X109612921Y-90231781D01*
X109578945Y-90238539D01*
X109414139Y-90348660D01*
X107598099Y-92164700D01*
X106432704Y-92164700D01*
X106432704Y-91875140D01*
X106406137Y-91733950D01*
X106322694Y-91604275D01*
X106195374Y-91517281D01*
X106044240Y-91486676D01*
X105875254Y-91486676D01*
X105863331Y-91426737D01*
X105753210Y-91261930D01*
X105076434Y-90585154D01*
X105076563Y-90436518D01*
X104951153Y-90133002D01*
X104719139Y-89900583D01*
X104415843Y-89774643D01*
X104230761Y-89774482D01*
X104520942Y-89484301D01*
X116466600Y-89484301D01*
X116466600Y-91266053D01*
G36*
X133120326Y-88617955D02*
X133247646Y-88704949D01*
X133312845Y-88718152D01*
X133328229Y-88795493D01*
X133438350Y-88960300D01*
X133792000Y-89313951D01*
X133792000Y-91389580D01*
X132989580Y-92192000D01*
X132408000Y-92192000D01*
X132408000Y-91510160D01*
X132389954Y-91419435D01*
X132369331Y-91315756D01*
X132259210Y-91150950D01*
X132069450Y-90961190D01*
X131904643Y-90851069D01*
X131837240Y-90837662D01*
X131837240Y-90830180D01*
X131741990Y-90734930D01*
X130933000Y-90734930D01*
X130933000Y-90782076D01*
X130679000Y-90782076D01*
X130679000Y-90734930D01*
X129870010Y-90734930D01*
X129792540Y-90812400D01*
X129556220Y-90812400D01*
X129554797Y-90810977D01*
X129615159Y-90722634D01*
X129645764Y-90571500D01*
X129645764Y-89502802D01*
X130070059Y-89502802D01*
X130014570Y-89513243D01*
X129884895Y-89596686D01*
X129797901Y-89724006D01*
X129767296Y-89875140D01*
X129767296Y-90174860D01*
X129793863Y-90316050D01*
X129812054Y-90344319D01*
X129774760Y-90434354D01*
X129774760Y-90489820D01*
X129870010Y-90585070D01*
X130679000Y-90585070D01*
X130679000Y-90563324D01*
X130933000Y-90563324D01*
X130933000Y-90585070D01*
X131621122Y-90585070D01*
X131672480Y-90619386D01*
X131876603Y-90659990D01*
X131876608Y-90659989D01*
X132012012Y-90659989D01*
X132080967Y-90826873D01*
X132312981Y-91059292D01*
X132616277Y-91185232D01*
X132944682Y-91185518D01*
X133248198Y-91060108D01*
X133480617Y-90828094D01*
X133606557Y-90524798D01*
X133606843Y-90196393D01*
X133481433Y-89892877D01*
X133249419Y-89660458D01*
X132946123Y-89534518D01*
X132827898Y-89534415D01*
X132899417Y-89463021D01*
X133025357Y-89159725D01*
X133025643Y-88831320D01*
X132945646Y-88637713D01*
X133049623Y-88617031D01*
X133098651Y-88584271D01*
X133120326Y-88617955D01*
X133120326Y-88617955D01*
G37*
X133120326Y-88617955D02*
X133247646Y-88704949D01*
X133312845Y-88718152D01*
X133328229Y-88795493D01*
X133438350Y-88960300D01*
X133792000Y-89313951D01*
X133792000Y-91389580D01*
X132989580Y-92192000D01*
X132408000Y-92192000D01*
X132408000Y-91510160D01*
X132389954Y-91419435D01*
X132369331Y-91315756D01*
X132259210Y-91150950D01*
X132069450Y-90961190D01*
X131904643Y-90851069D01*
X131837240Y-90837662D01*
X131837240Y-90830180D01*
X131741990Y-90734930D01*
X130933000Y-90734930D01*
X130933000Y-90782076D01*
X130679000Y-90782076D01*
X130679000Y-90734930D01*
X129870010Y-90734930D01*
X129792540Y-90812400D01*
X129556220Y-90812400D01*
X129554797Y-90810977D01*
X129615159Y-90722634D01*
X129645764Y-90571500D01*
X129645764Y-89502802D01*
X130070059Y-89502802D01*
X130014570Y-89513243D01*
X129884895Y-89596686D01*
X129797901Y-89724006D01*
X129767296Y-89875140D01*
X129767296Y-90174860D01*
X129793863Y-90316050D01*
X129812054Y-90344319D01*
X129774760Y-90434354D01*
X129774760Y-90489820D01*
X129870010Y-90585070D01*
X130679000Y-90585070D01*
X130679000Y-90563324D01*
X130933000Y-90563324D01*
X130933000Y-90585070D01*
X131621122Y-90585070D01*
X131672480Y-90619386D01*
X131876603Y-90659990D01*
X131876608Y-90659989D01*
X132012012Y-90659989D01*
X132080967Y-90826873D01*
X132312981Y-91059292D01*
X132616277Y-91185232D01*
X132944682Y-91185518D01*
X133248198Y-91060108D01*
X133480617Y-90828094D01*
X133606557Y-90524798D01*
X133606843Y-90196393D01*
X133481433Y-89892877D01*
X133249419Y-89660458D01*
X132946123Y-89534518D01*
X132827898Y-89534415D01*
X132899417Y-89463021D01*
X133025357Y-89159725D01*
X133025643Y-88831320D01*
X132945646Y-88637713D01*
X133049623Y-88617031D01*
X133098651Y-88584271D01*
X133120326Y-88617955D01*
G36*
X126471835Y-87150046D02*
X126384841Y-87277366D01*
X126354236Y-87428500D01*
X126354236Y-88571500D01*
X126380803Y-88712690D01*
X126464246Y-88842365D01*
X126591566Y-88929359D01*
X126641100Y-88939390D01*
X126641100Y-89059154D01*
X126601510Y-89066603D01*
X126471835Y-89150046D01*
X126384841Y-89277366D01*
X126354236Y-89428500D01*
X126354236Y-90308527D01*
X124488816Y-88443107D01*
X124315768Y-88327481D01*
X124111645Y-88286878D01*
X123179722Y-88286878D01*
X122975599Y-88327481D01*
X122840873Y-88417501D01*
X104300000Y-88417501D01*
X104095876Y-88458104D01*
X103922829Y-88573730D01*
X102722829Y-89773730D01*
X102607203Y-89946778D01*
X102566600Y-90150901D01*
X102566600Y-91307668D01*
X102520902Y-91353366D01*
X102468211Y-91300583D01*
X102164915Y-91174643D01*
X101836510Y-91174357D01*
X101532994Y-91299767D01*
X101340826Y-91491600D01*
X100480556Y-91491600D01*
X100456240Y-91486676D01*
X99157790Y-91486676D01*
X99366998Y-91400233D01*
X99599417Y-91168219D01*
X99725357Y-90864923D01*
X99725643Y-90536518D01*
X99600233Y-90233002D01*
X99368219Y-90000583D01*
X99064923Y-89874643D01*
X98736518Y-89874357D01*
X98433002Y-89999767D01*
X98200583Y-90231781D01*
X98074643Y-90535077D01*
X98074397Y-90818056D01*
X97986170Y-90950096D01*
X97947501Y-91144499D01*
X97947501Y-91829081D01*
X97608000Y-91489580D01*
X97608000Y-87808000D01*
X109385192Y-87808000D01*
X109476979Y-87869331D01*
X109509233Y-87875746D01*
X109633095Y-87900384D01*
X109831781Y-88099417D01*
X110135077Y-88225357D01*
X110463482Y-88225643D01*
X110766998Y-88100233D01*
X110999417Y-87868219D01*
X111125357Y-87564923D01*
X111125643Y-87236518D01*
X111072541Y-87108000D01*
X126537177Y-87108000D01*
X126471835Y-87150046D01*
X126471835Y-87150046D01*
G37*
X126471835Y-87150046D02*
X126384841Y-87277366D01*
X126354236Y-87428500D01*
X126354236Y-88571500D01*
X126380803Y-88712690D01*
X126464246Y-88842365D01*
X126591566Y-88929359D01*
X126641100Y-88939390D01*
X126641100Y-89059154D01*
X126601510Y-89066603D01*
X126471835Y-89150046D01*
X126384841Y-89277366D01*
X126354236Y-89428500D01*
X126354236Y-90308527D01*
X124488816Y-88443107D01*
X124315768Y-88327481D01*
X124111645Y-88286878D01*
X123179722Y-88286878D01*
X122975599Y-88327481D01*
X122840873Y-88417501D01*
X104300000Y-88417501D01*
X104095876Y-88458104D01*
X103922829Y-88573730D01*
X102722829Y-89773730D01*
X102607203Y-89946778D01*
X102566600Y-90150901D01*
X102566600Y-91307668D01*
X102520902Y-91353366D01*
X102468211Y-91300583D01*
X102164915Y-91174643D01*
X101836510Y-91174357D01*
X101532994Y-91299767D01*
X101340826Y-91491600D01*
X100480556Y-91491600D01*
X100456240Y-91486676D01*
X99157790Y-91486676D01*
X99366998Y-91400233D01*
X99599417Y-91168219D01*
X99725357Y-90864923D01*
X99725643Y-90536518D01*
X99600233Y-90233002D01*
X99368219Y-90000583D01*
X99064923Y-89874643D01*
X98736518Y-89874357D01*
X98433002Y-89999767D01*
X98200583Y-90231781D01*
X98074643Y-90535077D01*
X98074397Y-90818056D01*
X97986170Y-90950096D01*
X97947501Y-91144499D01*
X97947501Y-91829081D01*
X97608000Y-91489580D01*
X97608000Y-87808000D01*
X109385192Y-87808000D01*
X109476979Y-87869331D01*
X109509233Y-87875746D01*
X109633095Y-87900384D01*
X109831781Y-88099417D01*
X110135077Y-88225357D01*
X110463482Y-88225643D01*
X110766998Y-88100233D01*
X110999417Y-87868219D01*
X111125357Y-87564923D01*
X111125643Y-87236518D01*
X111072541Y-87108000D01*
X126537177Y-87108000D01*
X126471835Y-87150046D01*
G36*
X130975129Y-87229471D02*
X131148177Y-87345097D01*
X131352300Y-87385700D01*
X131503305Y-87385700D01*
X131517910Y-87400305D01*
X131638997Y-87400305D01*
X131652526Y-87409549D01*
X131803660Y-87440154D01*
X132349440Y-87440154D01*
X132349440Y-87559846D01*
X131803660Y-87559846D01*
X131662470Y-87586413D01*
X131641829Y-87599695D01*
X131517910Y-87599695D01*
X131477905Y-87639700D01*
X129868879Y-87639700D01*
X129705703Y-87530669D01*
X129645764Y-87518746D01*
X129645764Y-87428500D01*
X129619197Y-87287310D01*
X129535754Y-87157635D01*
X129408434Y-87070641D01*
X129257300Y-87040036D01*
X128444500Y-87040036D01*
X128440323Y-87040822D01*
X128359210Y-86919428D01*
X127680572Y-86240790D01*
X127515765Y-86130669D01*
X127321362Y-86092000D01*
X122641613Y-86092000D01*
X122645764Y-86071500D01*
X122645764Y-84933400D01*
X128679058Y-84933400D01*
X130975129Y-87229471D01*
X130975129Y-87229471D01*
G37*
X130975129Y-87229471D02*
X131148177Y-87345097D01*
X131352300Y-87385700D01*
X131503305Y-87385700D01*
X131517910Y-87400305D01*
X131638997Y-87400305D01*
X131652526Y-87409549D01*
X131803660Y-87440154D01*
X132349440Y-87440154D01*
X132349440Y-87559846D01*
X131803660Y-87559846D01*
X131662470Y-87586413D01*
X131641829Y-87599695D01*
X131517910Y-87599695D01*
X131477905Y-87639700D01*
X129868879Y-87639700D01*
X129705703Y-87530669D01*
X129645764Y-87518746D01*
X129645764Y-87428500D01*
X129619197Y-87287310D01*
X129535754Y-87157635D01*
X129408434Y-87070641D01*
X129257300Y-87040036D01*
X128444500Y-87040036D01*
X128440323Y-87040822D01*
X128359210Y-86919428D01*
X127680572Y-86240790D01*
X127515765Y-86130669D01*
X127321362Y-86092000D01*
X122641613Y-86092000D01*
X122645764Y-86071500D01*
X122645764Y-84933400D01*
X128679058Y-84933400D01*
X130975129Y-87229471D01*
G36*
X113354236Y-86071500D02*
X113358093Y-86092000D01*
X107641613Y-86092000D01*
X107645764Y-86071500D01*
X107645764Y-84933400D01*
X113354236Y-84933400D01*
X113354236Y-86071500D01*
X113354236Y-86071500D01*
G37*
X113354236Y-86071500D02*
X113358093Y-86092000D01*
X107641613Y-86092000D01*
X107645764Y-86071500D01*
X107645764Y-84933400D01*
X113354236Y-84933400D01*
X113354236Y-86071500D01*
M02*
