G04 #@! TF.FileFunction,Soldermask,Top*
%FSLAX46Y46*%
G04 Gerber Fmt 4.6, Leading zero omitted, Abs format (unit mm)*
G04 Created by KiCad (PCBNEW (2015-11-11 BZR 6310, Git 8f79b4f)-product) date 2015-11-18 1:22:02 PM*
%MOMM*%
G01*
G04 APERTURE LIST*
%ADD10C,0.150000*%
%ADD11R,1.350000X3.500000*%
%ADD12R,2.199640X0.599440*%
%ADD13R,0.812800X1.143000*%
G04 APERTURE END LIST*
D10*
D11*
X106570000Y-99000000D03*
X109110000Y-99000000D03*
X111650000Y-99000000D03*
X114190000Y-99000000D03*
X116730000Y-99000000D03*
X119270000Y-99000000D03*
X121810000Y-99000000D03*
X124350000Y-99000000D03*
X126890000Y-99000000D03*
X129430000Y-99000000D03*
D12*
X130401580Y-85555000D03*
X130401580Y-86825000D03*
X130401580Y-88095000D03*
X130401580Y-89365000D03*
X130401580Y-90635000D03*
X130401580Y-91905000D03*
X135598420Y-91905000D03*
X135598420Y-90635000D03*
X135598420Y-89365000D03*
X135598420Y-88095000D03*
X135598420Y-86825000D03*
X135598420Y-85555000D03*
X115401580Y-85555000D03*
X115401580Y-86825000D03*
X115401580Y-88095000D03*
X115401580Y-89365000D03*
X115401580Y-90635000D03*
X115401580Y-91905000D03*
X120598420Y-91905000D03*
X120598420Y-90635000D03*
X120598420Y-89365000D03*
X120598420Y-88095000D03*
X120598420Y-86825000D03*
X120598420Y-85555000D03*
X100401580Y-85555000D03*
X100401580Y-86825000D03*
X100401580Y-88095000D03*
X100401580Y-89365000D03*
X100401580Y-90635000D03*
X100401580Y-91905000D03*
X105598420Y-91905000D03*
X105598420Y-90635000D03*
X105598420Y-89365000D03*
X105598420Y-88095000D03*
X105598420Y-86825000D03*
X105598420Y-85555000D03*
D13*
X122649100Y-94250000D03*
X124350900Y-94250000D03*
X137649100Y-93500000D03*
X139350900Y-93500000D03*
X122649100Y-91500000D03*
X124350900Y-91500000D03*
X113350900Y-91500000D03*
X111649100Y-91500000D03*
X107649100Y-91500000D03*
X109350900Y-91500000D03*
X97850900Y-91500000D03*
X96149100Y-91500000D03*
X128350900Y-94250000D03*
X126649100Y-94250000D03*
X96149100Y-95500000D03*
X97850900Y-95500000D03*
X126649100Y-85500000D03*
X128350900Y-85500000D03*
X137649100Y-91500000D03*
X139350900Y-91500000D03*
X137649100Y-85500000D03*
X139350900Y-85500000D03*
X137649100Y-87500000D03*
X139350900Y-87500000D03*
X137649100Y-89500000D03*
X139350900Y-89500000D03*
X126649100Y-91500000D03*
X128350900Y-91500000D03*
X128350900Y-87500000D03*
X126649100Y-87500000D03*
X128350900Y-89500000D03*
X126649100Y-89500000D03*
X96149100Y-93500000D03*
X97850900Y-93500000D03*
X124350900Y-87500000D03*
X122649100Y-87500000D03*
X124350900Y-85500000D03*
X122649100Y-85500000D03*
X122649100Y-89500000D03*
X124350900Y-89500000D03*
X111649100Y-89500000D03*
X113350900Y-89500000D03*
X111649100Y-85500000D03*
X113350900Y-85500000D03*
X113350900Y-87500000D03*
X111649100Y-87500000D03*
X109350900Y-89500000D03*
X107649100Y-89500000D03*
X109350900Y-85500000D03*
X107649100Y-85500000D03*
X107649100Y-87500000D03*
X109350900Y-87500000D03*
X96149100Y-85500000D03*
X97850900Y-85500000D03*
X96149100Y-87500000D03*
X97850900Y-87500000D03*
X96149100Y-89500000D03*
X97850900Y-89500000D03*
M02*
