G04 #@! TF.FileFunction,Soldermask,Bot*
%FSLAX46Y46*%
G04 Gerber Fmt 4.6, Leading zero omitted, Abs format (unit mm)*
G04 Created by KiCad (PCBNEW (2015-11-11 BZR 6310, Git 8f79b4f)-product) date 2015-11-18 1:22:02 PM*
%MOMM*%
G01*
G04 APERTURE LIST*
%ADD10C,0.150000*%
%ADD11R,1.350000X3.500000*%
%ADD12R,0.797560X0.398780*%
%ADD13R,1.143000X1.397000*%
%ADD14R,1.300480X0.299720*%
%ADD15R,0.812800X1.143000*%
G04 APERTURE END LIST*
D10*
D11*
X106570000Y-99000000D03*
X109110000Y-99000000D03*
X111650000Y-99000000D03*
X114190000Y-99000000D03*
X116730000Y-99000000D03*
X119270000Y-99000000D03*
X121810000Y-99000000D03*
X124350000Y-99000000D03*
X126890000Y-99000000D03*
X129430000Y-99000000D03*
D12*
X132202440Y-88147700D03*
X132202440Y-87500000D03*
X132202440Y-86852300D03*
X133797560Y-86852300D03*
X133797560Y-87500000D03*
X133797560Y-88147700D03*
D13*
X134079500Y-85500000D03*
X131920500Y-85500000D03*
D14*
X99806000Y-93955400D03*
X99806000Y-93320400D03*
X99806000Y-92660000D03*
X99806000Y-92025000D03*
X105394000Y-92025000D03*
X105394000Y-92672700D03*
X105394000Y-93320400D03*
X105394000Y-93968100D03*
X115306000Y-93955400D03*
X115306000Y-93320400D03*
X115306000Y-92660000D03*
X115306000Y-92025000D03*
X120894000Y-92025000D03*
X120894000Y-92672700D03*
X120894000Y-93320400D03*
X120894000Y-93968100D03*
X130806000Y-91955400D03*
X130806000Y-91320400D03*
X130806000Y-90660000D03*
X130806000Y-90025000D03*
X136394000Y-90025000D03*
X136394000Y-90672700D03*
X136394000Y-91320400D03*
X136394000Y-91968100D03*
D15*
X127149100Y-90000000D03*
X128850900Y-90000000D03*
X120149100Y-85500000D03*
X121850900Y-85500000D03*
X115850900Y-85500000D03*
X114149100Y-85500000D03*
X105149100Y-85500000D03*
X106850900Y-85500000D03*
X100850900Y-85500000D03*
X99149100Y-85500000D03*
X128850900Y-88000000D03*
X127149100Y-88000000D03*
X128850900Y-93000000D03*
X127149100Y-93000000D03*
M02*
