M48
INCH,TZ
T1C0.015
T2C0.020
%
G90
G05
T1
X37874Y-33268
X38504Y-33268
X38937Y-35709
X40118Y-33701
X40157Y-36220
X40236Y-34685
X40650Y-37500
X40906Y-36220
X41044Y-33701
X41044Y-34685
X41044Y-35669
X42205Y-37480
X43071Y-36535
X43425Y-34409
X43504Y-33661
X43557Y-35712
X43602Y-36516
X44646Y-36417
X45433Y-38031
X46063Y-36181
X46063Y-33661
X46457Y-34606
X46496Y-38031
X46850Y-33661
X46850Y-35728
X47047Y-36969
X48268Y-36575
X48702Y-35304
X49409Y-33661
X49409Y-36024
X49724Y-36606
X51929Y-33150
X52047Y-35037
X52276Y-35575
X52276Y-36034
X52598Y-37362
X53094Y-36395
X53110Y-36929
X53248Y-37598
X54252Y-35716
X54567Y-37598
T2
X41957Y-38976
X42957Y-38976
X43957Y-38976
X44957Y-38976
X45957Y-38976
X46957Y-38976
X47957Y-38976
X48957Y-38976
X49957Y-38976
X50957Y-38976
T0
M30
