G04 #@! TF.FileFunction,Legend,Bot*
%FSLAX46Y46*%
G04 Gerber Fmt 4.6, Leading zero omitted, Abs format (unit mm)*
G04 Created by KiCad (PCBNEW (2015-11-11 BZR 6310, Git 8f79b4f)-product) date 2015-11-18 1:22:02 PM*
%MOMM*%
G01*
G04 APERTURE LIST*
%ADD10C,0.150000*%
%ADD11C,0.152400*%
%ADD12C,0.200000*%
%ADD13C,0.300000*%
%ADD14C,0.254000*%
%ADD15C,0.066040*%
%ADD16C,0.203200*%
%ADD17C,0.127000*%
%ADD18R,1.350000X3.500000*%
%ADD19R,0.797560X0.398780*%
%ADD20R,1.143000X1.397000*%
%ADD21R,1.300480X0.299720*%
%ADD22R,0.812800X1.143000*%
G04 APERTURE END LIST*
D10*
D11*
X103602704Y-97075829D02*
X103409180Y-97617695D01*
X103215656Y-97075829D01*
X102480266Y-97617695D02*
X102944723Y-97617695D01*
X102712494Y-97617695D02*
X102712494Y-96804895D01*
X102789904Y-96921010D01*
X102867313Y-96998419D01*
X102944723Y-97037124D01*
X102131923Y-97540286D02*
X102093218Y-97578990D01*
X102131923Y-97617695D01*
X102170628Y-97578990D01*
X102131923Y-97540286D01*
X102131923Y-97617695D01*
X101319123Y-97617695D02*
X101783580Y-97617695D01*
X101551351Y-97617695D02*
X101551351Y-96804895D01*
X101628761Y-96921010D01*
X101706170Y-96998419D01*
X101783580Y-97037124D01*
X99925752Y-97617695D02*
X100390209Y-97617695D01*
X100157980Y-97617695D02*
X100157980Y-96804895D01*
X100235390Y-96921010D01*
X100312799Y-96998419D01*
X100390209Y-97037124D01*
X99151657Y-97617695D02*
X99616114Y-97617695D01*
X99383885Y-97617695D02*
X99383885Y-96804895D01*
X99461295Y-96921010D01*
X99538704Y-96998419D01*
X99616114Y-97037124D01*
X98222743Y-96882305D02*
X98184038Y-96843600D01*
X98106629Y-96804895D01*
X97913105Y-96804895D01*
X97835695Y-96843600D01*
X97796991Y-96882305D01*
X97758286Y-96959714D01*
X97758286Y-97037124D01*
X97796991Y-97153238D01*
X98261448Y-97617695D01*
X97758286Y-97617695D01*
X97255124Y-96804895D02*
X97177715Y-96804895D01*
X97100305Y-96843600D01*
X97061600Y-96882305D01*
X97022896Y-96959714D01*
X96984191Y-97114533D01*
X96984191Y-97308057D01*
X97022896Y-97462876D01*
X97061600Y-97540286D01*
X97100305Y-97578990D01*
X97177715Y-97617695D01*
X97255124Y-97617695D01*
X97332534Y-97578990D01*
X97371238Y-97540286D01*
X97409943Y-97462876D01*
X97448648Y-97308057D01*
X97448648Y-97114533D01*
X97409943Y-96959714D01*
X97371238Y-96882305D01*
X97332534Y-96843600D01*
X97255124Y-96804895D01*
X96210096Y-97617695D02*
X96674553Y-97617695D01*
X96442324Y-97617695D02*
X96442324Y-96804895D01*
X96519734Y-96921010D01*
X96597143Y-96998419D01*
X96674553Y-97037124D01*
X95474706Y-96804895D02*
X95861753Y-96804895D01*
X95900458Y-97191943D01*
X95861753Y-97153238D01*
X95784344Y-97114533D01*
X95590820Y-97114533D01*
X95513410Y-97153238D01*
X95474706Y-97191943D01*
X95436001Y-97269352D01*
X95436001Y-97462876D01*
X95474706Y-97540286D01*
X95513410Y-97578990D01*
X95590820Y-97617695D01*
X95784344Y-97617695D01*
X95861753Y-97578990D01*
X95900458Y-97540286D01*
D12*
X100871320Y-89000000D02*
G75*
G03X100871320Y-89000000I-2121320J0D01*
G01*
D13*
X99983715Y-87998143D02*
X98967715Y-87998143D01*
X99620858Y-90284143D01*
X98314571Y-90284143D02*
X98024286Y-90284143D01*
X97879143Y-90175286D01*
X97806571Y-90066429D01*
X97661429Y-89739857D01*
X97588857Y-89304429D01*
X97588857Y-88433571D01*
X97661429Y-88215857D01*
X97734000Y-88107000D01*
X97879143Y-87998143D01*
X98169429Y-87998143D01*
X98314571Y-88107000D01*
X98387143Y-88215857D01*
X98459714Y-88433571D01*
X98459714Y-88977857D01*
X98387143Y-89195571D01*
X98314571Y-89304429D01*
X98169429Y-89413286D01*
X97879143Y-89413286D01*
X97734000Y-89304429D01*
X97661429Y-89195571D01*
X97588857Y-88977857D01*
D14*
X117376457Y-89603200D02*
X116795886Y-89603200D01*
X117492572Y-89951543D02*
X117086172Y-88732343D01*
X116679772Y-89951543D01*
X116273371Y-89951543D02*
X116273371Y-88732343D01*
X115808914Y-88732343D01*
X115692800Y-88790400D01*
X115634743Y-88848457D01*
X115576686Y-88964571D01*
X115576686Y-89138743D01*
X115634743Y-89254857D01*
X115692800Y-89312914D01*
X115808914Y-89370971D01*
X116273371Y-89370971D01*
X114821943Y-88732343D02*
X114589714Y-88732343D01*
X114473600Y-88790400D01*
X114357486Y-88906514D01*
X114299428Y-89138743D01*
X114299428Y-89545143D01*
X114357486Y-89777371D01*
X114473600Y-89893486D01*
X114589714Y-89951543D01*
X114821943Y-89951543D01*
X114938057Y-89893486D01*
X115054171Y-89777371D01*
X115112228Y-89545143D01*
X115112228Y-89138743D01*
X115054171Y-88906514D01*
X114938057Y-88790400D01*
X114821943Y-88732343D01*
X113196343Y-89951543D02*
X113776914Y-89951543D01*
X113776914Y-88732343D01*
X112209372Y-89951543D02*
X112789943Y-89951543D01*
X112789943Y-88732343D01*
X111570744Y-88732343D02*
X111338515Y-88732343D01*
X111222401Y-88790400D01*
X111106287Y-88906514D01*
X111048229Y-89138743D01*
X111048229Y-89545143D01*
X111106287Y-89777371D01*
X111222401Y-89893486D01*
X111338515Y-89951543D01*
X111570744Y-89951543D01*
X111686858Y-89893486D01*
X111802972Y-89777371D01*
X111861029Y-89545143D01*
X111861029Y-89138743D01*
X111802972Y-88906514D01*
X111686858Y-88790400D01*
X111570744Y-88732343D01*
X109770973Y-88732343D02*
X109364573Y-89951543D01*
X108958173Y-88732343D01*
X107855087Y-89835429D02*
X107913144Y-89893486D01*
X108087315Y-89951543D01*
X108203429Y-89951543D01*
X108377601Y-89893486D01*
X108493715Y-89777371D01*
X108551772Y-89661257D01*
X108609829Y-89429029D01*
X108609829Y-89254857D01*
X108551772Y-89022629D01*
X108493715Y-88906514D01*
X108377601Y-88790400D01*
X108203429Y-88732343D01*
X108087315Y-88732343D01*
X107913144Y-88790400D01*
X107855087Y-88848457D01*
X106926172Y-89312914D02*
X107332572Y-89312914D01*
X107332572Y-89951543D02*
X107332572Y-88732343D01*
X106752001Y-88732343D01*
X105416686Y-88674286D02*
X106461715Y-90241829D01*
X105184458Y-88732343D02*
X104778058Y-89951543D01*
X104371658Y-88732343D01*
X103268572Y-89835429D02*
X103326629Y-89893486D01*
X103500800Y-89951543D01*
X103616914Y-89951543D01*
X103791086Y-89893486D01*
X103907200Y-89777371D01*
X103965257Y-89661257D01*
X104023314Y-89429029D01*
X104023314Y-89254857D01*
X103965257Y-89022629D01*
X103907200Y-88906514D01*
X103791086Y-88790400D01*
X103616914Y-88732343D01*
X103500800Y-88732343D01*
X103326629Y-88790400D01*
X103268572Y-88848457D01*
X102804114Y-89603200D02*
X102223543Y-89603200D01*
X102920229Y-89951543D02*
X102513829Y-88732343D01*
X102107429Y-89951543D01*
D11*
X104517771Y-97617695D02*
X104982228Y-97617695D01*
X104749999Y-97617695D02*
X104749999Y-96804895D01*
X104827409Y-96921010D01*
X104904818Y-96998419D01*
X104982228Y-97037124D01*
X131654819Y-97617695D02*
X132119276Y-97617695D01*
X131887047Y-97617695D02*
X131887047Y-96804895D01*
X131964457Y-96921010D01*
X132041866Y-96998419D01*
X132119276Y-97037124D01*
X131151657Y-96804895D02*
X131074248Y-96804895D01*
X130996838Y-96843600D01*
X130958133Y-96882305D01*
X130919429Y-96959714D01*
X130880724Y-97114533D01*
X130880724Y-97308057D01*
X130919429Y-97462876D01*
X130958133Y-97540286D01*
X130996838Y-97578990D01*
X131074248Y-97617695D01*
X131151657Y-97617695D01*
X131229067Y-97578990D01*
X131267771Y-97540286D01*
X131306476Y-97462876D01*
X131345181Y-97308057D01*
X131345181Y-97114533D01*
X131306476Y-96959714D01*
X131267771Y-96882305D01*
X131229067Y-96843600D01*
X131151657Y-96804895D01*
X106132305Y-96675752D02*
X106945105Y-96675752D01*
X106132305Y-96288704D02*
X106945105Y-96288704D01*
X106132305Y-95824247D01*
X106945105Y-95824247D01*
X129945105Y-96562800D02*
X129945105Y-96407981D01*
X129906400Y-96330572D01*
X129828990Y-96253162D01*
X129674171Y-96214457D01*
X129403238Y-96214457D01*
X129248419Y-96253162D01*
X129171010Y-96330572D01*
X129132305Y-96407981D01*
X129132305Y-96562800D01*
X129171010Y-96640210D01*
X129248419Y-96717619D01*
X129403238Y-96756324D01*
X129674171Y-96756324D01*
X129828990Y-96717619D01*
X129906400Y-96640210D01*
X129945105Y-96562800D01*
X129945105Y-95866114D02*
X129287124Y-95866114D01*
X129209714Y-95827409D01*
X129171010Y-95788705D01*
X129132305Y-95711295D01*
X129132305Y-95556476D01*
X129171010Y-95479067D01*
X129209714Y-95440362D01*
X129287124Y-95401657D01*
X129945105Y-95401657D01*
X129945105Y-95130723D02*
X129945105Y-94666266D01*
X129132305Y-94898495D02*
X129945105Y-94898495D01*
X121808057Y-96383886D02*
X121808057Y-96654819D01*
X121382305Y-96654819D02*
X122195105Y-96654819D01*
X122195105Y-96267772D01*
X119695105Y-96714457D02*
X119695105Y-96559638D01*
X119656400Y-96482229D01*
X119578990Y-96404819D01*
X119424171Y-96366114D01*
X119153238Y-96366114D01*
X118998419Y-96404819D01*
X118921010Y-96482229D01*
X118882305Y-96559638D01*
X118882305Y-96714457D01*
X118921010Y-96791867D01*
X118998419Y-96869276D01*
X119153238Y-96907981D01*
X119424171Y-96907981D01*
X119578990Y-96869276D01*
X119656400Y-96791867D01*
X119695105Y-96714457D01*
X118921010Y-96056476D02*
X118882305Y-95940362D01*
X118882305Y-95746838D01*
X118921010Y-95669428D01*
X118959714Y-95630724D01*
X119037124Y-95592019D01*
X119114533Y-95592019D01*
X119191943Y-95630724D01*
X119230648Y-95669428D01*
X119269352Y-95746838D01*
X119308057Y-95901657D01*
X119346762Y-95979066D01*
X119385467Y-96017771D01*
X119462876Y-96056476D01*
X119540286Y-96056476D01*
X119617695Y-96017771D01*
X119656400Y-95979066D01*
X119695105Y-95901657D01*
X119695105Y-95708133D01*
X119656400Y-95592019D01*
X109114533Y-96693524D02*
X109114533Y-96306476D01*
X108882305Y-96770933D02*
X109695105Y-96500000D01*
X108882305Y-96229067D01*
X111382305Y-96248419D02*
X111769352Y-96519352D01*
X111382305Y-96712876D02*
X112195105Y-96712876D01*
X112195105Y-96403238D01*
X112156400Y-96325829D01*
X112117695Y-96287124D01*
X112040286Y-96248419D01*
X111924171Y-96248419D01*
X111846762Y-96287124D01*
X111808057Y-96325829D01*
X111769352Y-96403238D01*
X111769352Y-96712876D01*
X116691943Y-96907981D02*
X116691943Y-96288705D01*
X117195105Y-96017771D02*
X116382305Y-95746838D01*
X117195105Y-95475905D01*
X114191943Y-96907981D02*
X114191943Y-96288705D01*
X113882305Y-96598343D02*
X114501581Y-96598343D01*
X114695105Y-96017771D02*
X113882305Y-95746838D01*
X114695105Y-95475905D01*
D15*
X131900180Y-88297560D02*
X131900180Y-87997840D01*
X131900180Y-87997840D02*
X132400560Y-87997840D01*
X132400560Y-88297560D02*
X132400560Y-87997840D01*
X131900180Y-88297560D02*
X132400560Y-88297560D01*
X131900180Y-87649860D02*
X131900180Y-87350140D01*
X131900180Y-87350140D02*
X132400560Y-87350140D01*
X132400560Y-87649860D02*
X132400560Y-87350140D01*
X131900180Y-87649860D02*
X132400560Y-87649860D01*
X131900180Y-87002160D02*
X131900180Y-86702440D01*
X131900180Y-86702440D02*
X132400560Y-86702440D01*
X132400560Y-87002160D02*
X132400560Y-86702440D01*
X131900180Y-87002160D02*
X132400560Y-87002160D01*
X133599440Y-87002160D02*
X133599440Y-86702440D01*
X133599440Y-86702440D02*
X134099820Y-86702440D01*
X134099820Y-87002160D02*
X134099820Y-86702440D01*
X133599440Y-87002160D02*
X134099820Y-87002160D01*
X133599440Y-87649860D02*
X133599440Y-87350140D01*
X133599440Y-87350140D02*
X134099820Y-87350140D01*
X134099820Y-87649860D02*
X134099820Y-87350140D01*
X133599440Y-87649860D02*
X134099820Y-87649860D01*
X133599440Y-88297560D02*
X133599440Y-87997840D01*
X133599440Y-87997840D02*
X134099820Y-87997840D01*
X134099820Y-88297560D02*
X134099820Y-87997840D01*
X133599440Y-88297560D02*
X134099820Y-88297560D01*
D16*
X133548640Y-88498220D02*
X133548640Y-86501780D01*
X133548640Y-86501780D02*
X132451360Y-86501780D01*
X132451360Y-86501780D02*
X132451360Y-88498220D01*
X132451360Y-88498220D02*
X133548640Y-88498220D01*
D11*
X132855251Y-88198500D02*
G75*
G03X132855251Y-88198500I-104171J0D01*
G01*
D17*
X133711200Y-86262000D02*
X134727200Y-86262000D01*
X134727200Y-86262000D02*
X134727200Y-84738000D01*
X134727200Y-84738000D02*
X133711200Y-84738000D01*
X132288800Y-84738000D02*
X131272800Y-84738000D01*
X131272800Y-84738000D02*
X131272800Y-86262000D01*
X131272800Y-86262000D02*
X132288800Y-86262000D01*
D12*
X104400000Y-94430000D02*
X104400000Y-91570000D01*
X104400000Y-91570000D02*
X100800000Y-91570000D01*
X100800000Y-91570000D02*
X100800000Y-94430000D01*
X100822000Y-94438000D02*
X104378000Y-94438000D01*
X101838000Y-93803000D02*
G75*
G03X101838000Y-93803000I-381000J0D01*
G01*
X119900000Y-94430000D02*
X119900000Y-91570000D01*
X119900000Y-91570000D02*
X116300000Y-91570000D01*
X116300000Y-91570000D02*
X116300000Y-94430000D01*
X116322000Y-94438000D02*
X119878000Y-94438000D01*
X117338000Y-93803000D02*
G75*
G03X117338000Y-93803000I-381000J0D01*
G01*
X135400000Y-92430000D02*
X135400000Y-89570000D01*
X135400000Y-89570000D02*
X131800000Y-89570000D01*
X131800000Y-89570000D02*
X131800000Y-92430000D01*
X131822000Y-92438000D02*
X135378000Y-92438000D01*
X132838000Y-91803000D02*
G75*
G03X132838000Y-91803000I-381000J0D01*
G01*
D14*
X126600000Y-89100000D02*
X129400000Y-89100000D01*
X129400000Y-89100000D02*
X129400000Y-90900000D01*
X129400000Y-90900000D02*
X126600000Y-90900000D01*
X126600000Y-90900000D02*
X126600000Y-89100000D01*
X119600000Y-84600000D02*
X122400000Y-84600000D01*
X122400000Y-84600000D02*
X122400000Y-86400000D01*
X122400000Y-86400000D02*
X119600000Y-86400000D01*
X119600000Y-86400000D02*
X119600000Y-84600000D01*
X116400000Y-86400000D02*
X113600000Y-86400000D01*
X113600000Y-86400000D02*
X113600000Y-84600000D01*
X113600000Y-84600000D02*
X116400000Y-84600000D01*
X116400000Y-84600000D02*
X116400000Y-86400000D01*
X104600000Y-84600000D02*
X107400000Y-84600000D01*
X107400000Y-84600000D02*
X107400000Y-86400000D01*
X107400000Y-86400000D02*
X104600000Y-86400000D01*
X104600000Y-86400000D02*
X104600000Y-84600000D01*
X101400000Y-86400000D02*
X98600000Y-86400000D01*
X98600000Y-86400000D02*
X98600000Y-84600000D01*
X98600000Y-84600000D02*
X101400000Y-84600000D01*
X101400000Y-84600000D02*
X101400000Y-86400000D01*
X129400000Y-88900000D02*
X126600000Y-88900000D01*
X126600000Y-88900000D02*
X126600000Y-87100000D01*
X126600000Y-87100000D02*
X129400000Y-87100000D01*
X129400000Y-87100000D02*
X129400000Y-88900000D01*
X129400000Y-93900000D02*
X126600000Y-93900000D01*
X126600000Y-93900000D02*
X126600000Y-92100000D01*
X126600000Y-92100000D02*
X129400000Y-92100000D01*
X129400000Y-92100000D02*
X129400000Y-93900000D01*
D11*
X135058057Y-88333829D02*
X135116114Y-88304800D01*
X135174171Y-88246743D01*
X135261257Y-88159657D01*
X135319314Y-88130629D01*
X135377371Y-88130629D01*
X135348343Y-88275771D02*
X135406400Y-88246743D01*
X135464457Y-88188686D01*
X135493486Y-88072571D01*
X135493486Y-87869371D01*
X135464457Y-87753257D01*
X135406400Y-87695200D01*
X135348343Y-87666171D01*
X135232229Y-87666171D01*
X135174171Y-87695200D01*
X135116114Y-87753257D01*
X135087086Y-87869371D01*
X135087086Y-88072571D01*
X135116114Y-88188686D01*
X135174171Y-88246743D01*
X135232229Y-88275771D01*
X135348343Y-88275771D01*
X134506514Y-88275771D02*
X134854857Y-88275771D01*
X134680685Y-88275771D02*
X134680685Y-87666171D01*
X134738742Y-87753257D01*
X134796800Y-87811314D01*
X134854857Y-87840343D01*
X134141885Y-84525771D02*
X134345085Y-84235486D01*
X134490228Y-84525771D02*
X134490228Y-83916171D01*
X134258000Y-83916171D01*
X134199942Y-83945200D01*
X134170914Y-83974229D01*
X134141885Y-84032286D01*
X134141885Y-84119371D01*
X134170914Y-84177429D01*
X134199942Y-84206457D01*
X134258000Y-84235486D01*
X134490228Y-84235486D01*
X133909657Y-83974229D02*
X133880628Y-83945200D01*
X133822571Y-83916171D01*
X133677428Y-83916171D01*
X133619371Y-83945200D01*
X133590342Y-83974229D01*
X133561314Y-84032286D01*
X133561314Y-84090343D01*
X133590342Y-84177429D01*
X133938685Y-84525771D01*
X133561314Y-84525771D01*
X133271029Y-84525771D02*
X133154914Y-84525771D01*
X133096857Y-84496743D01*
X133067829Y-84467714D01*
X133009771Y-84380629D01*
X132980743Y-84264514D01*
X132980743Y-84032286D01*
X133009771Y-83974229D01*
X133038800Y-83945200D01*
X133096857Y-83916171D01*
X133212971Y-83916171D01*
X133271029Y-83945200D01*
X133300057Y-83974229D01*
X133329086Y-84032286D01*
X133329086Y-84177429D01*
X133300057Y-84235486D01*
X133271029Y-84264514D01*
X133212971Y-84293543D01*
X133096857Y-84293543D01*
X133038800Y-84264514D01*
X133009771Y-84235486D01*
X132980743Y-84177429D01*
X100419276Y-94454895D02*
X100419276Y-95112876D01*
X100380571Y-95190286D01*
X100341867Y-95228990D01*
X100264457Y-95267695D01*
X100109638Y-95267695D01*
X100032229Y-95228990D01*
X99993524Y-95190286D01*
X99954819Y-95112876D01*
X99954819Y-94454895D01*
X99606476Y-94532305D02*
X99567771Y-94493600D01*
X99490362Y-94454895D01*
X99296838Y-94454895D01*
X99219428Y-94493600D01*
X99180724Y-94532305D01*
X99142019Y-94609714D01*
X99142019Y-94687124D01*
X99180724Y-94803238D01*
X99645181Y-95267695D01*
X99142019Y-95267695D01*
X121619276Y-94454895D02*
X121619276Y-95112876D01*
X121580571Y-95190286D01*
X121541867Y-95228990D01*
X121464457Y-95267695D01*
X121309638Y-95267695D01*
X121232229Y-95228990D01*
X121193524Y-95190286D01*
X121154819Y-95112876D01*
X121154819Y-94454895D01*
X120419428Y-94725829D02*
X120419428Y-95267695D01*
X120612952Y-94416190D02*
X120806476Y-94996762D01*
X120303314Y-94996762D01*
X134119276Y-92804895D02*
X134119276Y-93462876D01*
X134080571Y-93540286D01*
X134041867Y-93578990D01*
X133964457Y-93617695D01*
X133809638Y-93617695D01*
X133732229Y-93578990D01*
X133693524Y-93540286D01*
X133654819Y-93462876D01*
X133654819Y-92804895D01*
X132919428Y-92804895D02*
X133074247Y-92804895D01*
X133151657Y-92843600D01*
X133190362Y-92882305D01*
X133267771Y-92998419D01*
X133306476Y-93153238D01*
X133306476Y-93462876D01*
X133267771Y-93540286D01*
X133229066Y-93578990D01*
X133151657Y-93617695D01*
X132996838Y-93617695D01*
X132919428Y-93578990D01*
X132880724Y-93540286D01*
X132842019Y-93462876D01*
X132842019Y-93269352D01*
X132880724Y-93191943D01*
X132919428Y-93153238D01*
X132996838Y-93114533D01*
X133151657Y-93114533D01*
X133229066Y-93153238D01*
X133267771Y-93191943D01*
X133306476Y-93269352D01*
X125851599Y-90217714D02*
X125880628Y-90246743D01*
X125967714Y-90275771D01*
X126025771Y-90275771D01*
X126112856Y-90246743D01*
X126170914Y-90188686D01*
X126199942Y-90130629D01*
X126228971Y-90014514D01*
X126228971Y-89927429D01*
X126199942Y-89811314D01*
X126170914Y-89753257D01*
X126112856Y-89695200D01*
X126025771Y-89666171D01*
X125967714Y-89666171D01*
X125880628Y-89695200D01*
X125851599Y-89724229D01*
X125271028Y-90275771D02*
X125619371Y-90275771D01*
X125445199Y-90275771D02*
X125445199Y-89666171D01*
X125503256Y-89753257D01*
X125561314Y-89811314D01*
X125619371Y-89840343D01*
X121391885Y-84275771D02*
X121595085Y-83985486D01*
X121740228Y-84275771D02*
X121740228Y-83666171D01*
X121508000Y-83666171D01*
X121449942Y-83695200D01*
X121420914Y-83724229D01*
X121391885Y-83782286D01*
X121391885Y-83869371D01*
X121420914Y-83927429D01*
X121449942Y-83956457D01*
X121508000Y-83985486D01*
X121740228Y-83985486D01*
X120811314Y-84275771D02*
X121159657Y-84275771D01*
X120985485Y-84275771D02*
X120985485Y-83666171D01*
X121043542Y-83753257D01*
X121101600Y-83811314D01*
X121159657Y-83840343D01*
X120462971Y-83927429D02*
X120521029Y-83898400D01*
X120550057Y-83869371D01*
X120579086Y-83811314D01*
X120579086Y-83782286D01*
X120550057Y-83724229D01*
X120521029Y-83695200D01*
X120462971Y-83666171D01*
X120346857Y-83666171D01*
X120288800Y-83695200D01*
X120259771Y-83724229D01*
X120230743Y-83782286D01*
X120230743Y-83811314D01*
X120259771Y-83869371D01*
X120288800Y-83898400D01*
X120346857Y-83927429D01*
X120462971Y-83927429D01*
X120521029Y-83956457D01*
X120550057Y-83985486D01*
X120579086Y-84043543D01*
X120579086Y-84159657D01*
X120550057Y-84217714D01*
X120521029Y-84246743D01*
X120462971Y-84275771D01*
X120346857Y-84275771D01*
X120288800Y-84246743D01*
X120259771Y-84217714D01*
X120230743Y-84159657D01*
X120230743Y-84043543D01*
X120259771Y-83985486D01*
X120288800Y-83956457D01*
X120346857Y-83927429D01*
X115391885Y-84275771D02*
X115595085Y-83985486D01*
X115740228Y-84275771D02*
X115740228Y-83666171D01*
X115508000Y-83666171D01*
X115449942Y-83695200D01*
X115420914Y-83724229D01*
X115391885Y-83782286D01*
X115391885Y-83869371D01*
X115420914Y-83927429D01*
X115449942Y-83956457D01*
X115508000Y-83985486D01*
X115740228Y-83985486D01*
X114811314Y-84275771D02*
X115159657Y-84275771D01*
X114985485Y-84275771D02*
X114985485Y-83666171D01*
X115043542Y-83753257D01*
X115101600Y-83811314D01*
X115159657Y-83840343D01*
X114288800Y-83869371D02*
X114288800Y-84275771D01*
X114433943Y-83637143D02*
X114579086Y-84072571D01*
X114201714Y-84072571D01*
X106391885Y-84275771D02*
X106595085Y-83985486D01*
X106740228Y-84275771D02*
X106740228Y-83666171D01*
X106508000Y-83666171D01*
X106449942Y-83695200D01*
X106420914Y-83724229D01*
X106391885Y-83782286D01*
X106391885Y-83869371D01*
X106420914Y-83927429D01*
X106449942Y-83956457D01*
X106508000Y-83985486D01*
X106740228Y-83985486D01*
X105811314Y-84275771D02*
X106159657Y-84275771D01*
X105985485Y-84275771D02*
X105985485Y-83666171D01*
X106043542Y-83753257D01*
X106101600Y-83811314D01*
X106159657Y-83840343D01*
X105433943Y-83666171D02*
X105375886Y-83666171D01*
X105317829Y-83695200D01*
X105288800Y-83724229D01*
X105259771Y-83782286D01*
X105230743Y-83898400D01*
X105230743Y-84043543D01*
X105259771Y-84159657D01*
X105288800Y-84217714D01*
X105317829Y-84246743D01*
X105375886Y-84275771D01*
X105433943Y-84275771D01*
X105492000Y-84246743D01*
X105521029Y-84217714D01*
X105550057Y-84159657D01*
X105579086Y-84043543D01*
X105579086Y-83898400D01*
X105550057Y-83782286D01*
X105521029Y-83724229D01*
X105492000Y-83695200D01*
X105433943Y-83666171D01*
X100101599Y-84275771D02*
X100304799Y-83985486D01*
X100449942Y-84275771D02*
X100449942Y-83666171D01*
X100217714Y-83666171D01*
X100159656Y-83695200D01*
X100130628Y-83724229D01*
X100101599Y-83782286D01*
X100101599Y-83869371D01*
X100130628Y-83927429D01*
X100159656Y-83956457D01*
X100217714Y-83985486D01*
X100449942Y-83985486D01*
X99579085Y-83666171D02*
X99695199Y-83666171D01*
X99753256Y-83695200D01*
X99782285Y-83724229D01*
X99840342Y-83811314D01*
X99869371Y-83927429D01*
X99869371Y-84159657D01*
X99840342Y-84217714D01*
X99811314Y-84246743D01*
X99753256Y-84275771D01*
X99637142Y-84275771D01*
X99579085Y-84246743D01*
X99550056Y-84217714D01*
X99521028Y-84159657D01*
X99521028Y-84014514D01*
X99550056Y-83956457D01*
X99579085Y-83927429D01*
X99637142Y-83898400D01*
X99753256Y-83898400D01*
X99811314Y-83927429D01*
X99840342Y-83956457D01*
X99869371Y-84014514D01*
X128101599Y-86775771D02*
X128304799Y-86485486D01*
X128449942Y-86775771D02*
X128449942Y-86166171D01*
X128217714Y-86166171D01*
X128159656Y-86195200D01*
X128130628Y-86224229D01*
X128101599Y-86282286D01*
X128101599Y-86369371D01*
X128130628Y-86427429D01*
X128159656Y-86456457D01*
X128217714Y-86485486D01*
X128449942Y-86485486D01*
X127869371Y-86224229D02*
X127840342Y-86195200D01*
X127782285Y-86166171D01*
X127637142Y-86166171D01*
X127579085Y-86195200D01*
X127550056Y-86224229D01*
X127521028Y-86282286D01*
X127521028Y-86340343D01*
X127550056Y-86427429D01*
X127898399Y-86775771D01*
X127521028Y-86775771D01*
X130351599Y-93275771D02*
X130554799Y-92985486D01*
X130699942Y-93275771D02*
X130699942Y-92666171D01*
X130467714Y-92666171D01*
X130409656Y-92695200D01*
X130380628Y-92724229D01*
X130351599Y-92782286D01*
X130351599Y-92869371D01*
X130380628Y-92927429D01*
X130409656Y-92956457D01*
X130467714Y-92985486D01*
X130699942Y-92985486D01*
X129771028Y-93275771D02*
X130119371Y-93275771D01*
X129945199Y-93275771D02*
X129945199Y-92666171D01*
X130003256Y-92753257D01*
X130061314Y-92811314D01*
X130119371Y-92840343D01*
%LPC*%
D18*
X106570000Y-99000000D03*
X109110000Y-99000000D03*
X111650000Y-99000000D03*
X114190000Y-99000000D03*
X116730000Y-99000000D03*
X119270000Y-99000000D03*
X121810000Y-99000000D03*
X124350000Y-99000000D03*
X126890000Y-99000000D03*
X129430000Y-99000000D03*
D19*
X132202440Y-88147700D03*
X132202440Y-87500000D03*
X132202440Y-86852300D03*
X133797560Y-86852300D03*
X133797560Y-87500000D03*
X133797560Y-88147700D03*
D20*
X134079500Y-85500000D03*
X131920500Y-85500000D03*
D21*
X99806000Y-93955400D03*
X99806000Y-93320400D03*
X99806000Y-92660000D03*
X99806000Y-92025000D03*
X105394000Y-92025000D03*
X105394000Y-92672700D03*
X105394000Y-93320400D03*
X105394000Y-93968100D03*
X115306000Y-93955400D03*
X115306000Y-93320400D03*
X115306000Y-92660000D03*
X115306000Y-92025000D03*
X120894000Y-92025000D03*
X120894000Y-92672700D03*
X120894000Y-93320400D03*
X120894000Y-93968100D03*
X130806000Y-91955400D03*
X130806000Y-91320400D03*
X130806000Y-90660000D03*
X130806000Y-90025000D03*
X136394000Y-90025000D03*
X136394000Y-90672700D03*
X136394000Y-91320400D03*
X136394000Y-91968100D03*
D22*
X127149100Y-90000000D03*
X128850900Y-90000000D03*
X120149100Y-85500000D03*
X121850900Y-85500000D03*
X115850900Y-85500000D03*
X114149100Y-85500000D03*
X105149100Y-85500000D03*
X106850900Y-85500000D03*
X100850900Y-85500000D03*
X99149100Y-85500000D03*
X128850900Y-88000000D03*
X127149100Y-88000000D03*
X128850900Y-93000000D03*
X127149100Y-93000000D03*
M02*
