G04 #@! TF.FileFunction,Copper,L1,Top,Signal*
%FSLAX46Y46*%
G04 Gerber Fmt 4.6, Leading zero omitted, Abs format (unit mm)*
G04 Created by KiCad (PCBNEW (2015-11-11 BZR 6310, Git 8f79b4f)-product) date 2015-11-18 1:22:02 PM*
%MOMM*%
G01*
G04 APERTURE LIST*
%ADD10C,0.150000*%
%ADD11R,1.350000X3.500000*%
%ADD12R,2.199640X0.599440*%
%ADD13R,0.812800X1.143000*%
%ADD14C,0.889000*%
%ADD15C,0.304800*%
%ADD16C,0.254000*%
G04 APERTURE END LIST*
D10*
D11*
X106570000Y-99000000D03*
X109110000Y-99000000D03*
X111650000Y-99000000D03*
X114190000Y-99000000D03*
X116730000Y-99000000D03*
X119270000Y-99000000D03*
X121810000Y-99000000D03*
X124350000Y-99000000D03*
X126890000Y-99000000D03*
X129430000Y-99000000D03*
D12*
X130401580Y-85555000D03*
X130401580Y-86825000D03*
X130401580Y-88095000D03*
X130401580Y-89365000D03*
X130401580Y-90635000D03*
X130401580Y-91905000D03*
X135598420Y-91905000D03*
X135598420Y-90635000D03*
X135598420Y-89365000D03*
X135598420Y-88095000D03*
X135598420Y-86825000D03*
X135598420Y-85555000D03*
X115401580Y-85555000D03*
X115401580Y-86825000D03*
X115401580Y-88095000D03*
X115401580Y-89365000D03*
X115401580Y-90635000D03*
X115401580Y-91905000D03*
X120598420Y-91905000D03*
X120598420Y-90635000D03*
X120598420Y-89365000D03*
X120598420Y-88095000D03*
X120598420Y-86825000D03*
X120598420Y-85555000D03*
X100401580Y-85555000D03*
X100401580Y-86825000D03*
X100401580Y-88095000D03*
X100401580Y-89365000D03*
X100401580Y-90635000D03*
X100401580Y-91905000D03*
X105598420Y-91905000D03*
X105598420Y-90635000D03*
X105598420Y-89365000D03*
X105598420Y-88095000D03*
X105598420Y-86825000D03*
X105598420Y-85555000D03*
D13*
X122649100Y-94250000D03*
X124350900Y-94250000D03*
X137649100Y-93500000D03*
X139350900Y-93500000D03*
X122649100Y-91500000D03*
X124350900Y-91500000D03*
X113350900Y-91500000D03*
X111649100Y-91500000D03*
X107649100Y-91500000D03*
X109350900Y-91500000D03*
X97850900Y-91500000D03*
X96149100Y-91500000D03*
X128350900Y-94250000D03*
X126649100Y-94250000D03*
X96149100Y-95500000D03*
X97850900Y-95500000D03*
X126649100Y-85500000D03*
X128350900Y-85500000D03*
X137649100Y-91500000D03*
X139350900Y-91500000D03*
X137649100Y-85500000D03*
X139350900Y-85500000D03*
X137649100Y-87500000D03*
X139350900Y-87500000D03*
X137649100Y-89500000D03*
X139350900Y-89500000D03*
X126649100Y-91500000D03*
X128350900Y-91500000D03*
X128350900Y-87500000D03*
X126649100Y-87500000D03*
X128350900Y-89500000D03*
X126649100Y-89500000D03*
X96149100Y-93500000D03*
X97850900Y-93500000D03*
X124350900Y-87500000D03*
X122649100Y-87500000D03*
X124350900Y-85500000D03*
X122649100Y-85500000D03*
X122649100Y-89500000D03*
X124350900Y-89500000D03*
X111649100Y-89500000D03*
X113350900Y-89500000D03*
X111649100Y-85500000D03*
X113350900Y-85500000D03*
X113350900Y-87500000D03*
X111649100Y-87500000D03*
X109350900Y-89500000D03*
X107649100Y-89500000D03*
X109350900Y-85500000D03*
X107649100Y-85500000D03*
X107649100Y-87500000D03*
X109350900Y-87500000D03*
X96149100Y-85500000D03*
X97850900Y-85500000D03*
X96149100Y-87500000D03*
X97850900Y-87500000D03*
X96149100Y-89500000D03*
X97850900Y-89500000D03*
D14*
X119500000Y-93900000D03*
X134858233Y-92443895D03*
X103900000Y-92000000D03*
X117000000Y-91900000D03*
X132781200Y-90359875D03*
X126300000Y-92979998D03*
X101999992Y-92000000D03*
X103250000Y-95250000D03*
X110500000Y-85500000D03*
X135250000Y-95500000D03*
X132782024Y-91525280D03*
X125500000Y-91500000D03*
X102200000Y-88100000D03*
X104250920Y-88100000D03*
X118100000Y-96600000D03*
X107200000Y-95200000D03*
X115400000Y-96600000D03*
X125500000Y-85500000D03*
X118000000Y-87900000D03*
X131900000Y-84200000D03*
X109400000Y-92800000D03*
X133600000Y-94900000D03*
X134900000Y-93800002D03*
X138600000Y-95500000D03*
X122600000Y-92900000D03*
X98900000Y-90700000D03*
X104250920Y-90600000D03*
X113400000Y-92500000D03*
X119000000Y-90750000D03*
X137800000Y-90719202D03*
X132200000Y-88994802D03*
X97800000Y-84500000D03*
X110300000Y-87400000D03*
X96199996Y-84500000D03*
X101900000Y-85600000D03*
X110633723Y-90707870D03*
X104250920Y-85600000D03*
X110750000Y-92750000D03*
X123703212Y-89671179D03*
X117000008Y-85500000D03*
X119000000Y-85500000D03*
D15*
X119944499Y-93455501D02*
X119500000Y-93900000D01*
X120598420Y-92801580D02*
X119944499Y-93455501D01*
X120598420Y-91905000D02*
X120598420Y-92801580D01*
X105598420Y-91905000D02*
X105598420Y-92509520D01*
X105598420Y-92509520D02*
X105800000Y-92711100D01*
X105800000Y-92711100D02*
X105800000Y-95400000D01*
X114190000Y-99000000D02*
X114190000Y-96945200D01*
X114190000Y-96945200D02*
X113544800Y-96300000D01*
X113544800Y-96300000D02*
X106700000Y-96300000D01*
X106700000Y-96300000D02*
X105800000Y-95400000D01*
X135302732Y-91999396D02*
X134858233Y-92443895D01*
X135598420Y-91905000D02*
X135397128Y-91905000D01*
X135397128Y-91905000D02*
X135302732Y-91999396D01*
X106344678Y-91905000D02*
X105598420Y-91905000D01*
X103995000Y-91905000D02*
X103900000Y-92000000D01*
X105598420Y-91905000D02*
X103995000Y-91905000D01*
X117000000Y-92528617D02*
X117000000Y-91900000D01*
X117000000Y-96000000D02*
X117000000Y-92528617D01*
X117000000Y-97655000D02*
X117000000Y-96000000D01*
X116995000Y-91905000D02*
X117000000Y-91900000D01*
X116730000Y-97925000D02*
X117000000Y-97655000D01*
X116730000Y-99000000D02*
X116730000Y-97925000D01*
X115401580Y-91905000D02*
X116995000Y-91905000D01*
X130401580Y-91905000D02*
X131695000Y-91905000D01*
X131695000Y-91905000D02*
X131907801Y-91692199D01*
X131907801Y-91692199D02*
X131907801Y-90832865D01*
X131907801Y-90832865D02*
X132380791Y-90359875D01*
X132380791Y-90359875D02*
X132781200Y-90359875D01*
X126300000Y-92979998D02*
X130020002Y-92979998D01*
X130020002Y-92979998D02*
X130401580Y-92598420D01*
X130401580Y-92598420D02*
X130401580Y-91905000D01*
X101904992Y-91905000D02*
X101999992Y-92000000D01*
X100401580Y-91905000D02*
X101904992Y-91905000D01*
D16*
X109350900Y-85500000D02*
X110500000Y-85500000D01*
X134805501Y-95944499D02*
X135250000Y-95500000D01*
X132844499Y-95944499D02*
X134805501Y-95944499D01*
X132782024Y-95882024D02*
X132844499Y-95944499D01*
X132782024Y-91525280D02*
X132782024Y-95882024D01*
X111649100Y-91500000D02*
X109350900Y-91500000D01*
X115400000Y-96600000D02*
X112324702Y-93524702D01*
X112324702Y-93524702D02*
X110124702Y-93524702D01*
X110124702Y-93524702D02*
X109844499Y-93244499D01*
X109844499Y-93244499D02*
X109400000Y-92800000D01*
X125500000Y-91500000D02*
X126649100Y-91500000D01*
X124350900Y-91500000D02*
X125500000Y-91500000D01*
X102195000Y-88095000D02*
X102200000Y-88100000D01*
X100401580Y-88095000D02*
X102195000Y-88095000D01*
X105593420Y-88100000D02*
X104879537Y-88100000D01*
X104879537Y-88100000D02*
X104250920Y-88100000D01*
X105598420Y-88095000D02*
X105593420Y-88100000D01*
X109400000Y-92800000D02*
X107200000Y-95000000D01*
X107200000Y-95000000D02*
X107200000Y-95200000D01*
X124350900Y-85500000D02*
X125500000Y-85500000D01*
X120598420Y-88095000D02*
X118195000Y-88095000D01*
X118195000Y-88095000D02*
X118000000Y-87900000D01*
X109350900Y-91500000D02*
X109350900Y-92750900D01*
X109350900Y-92750900D02*
X109400000Y-92800000D01*
X138574701Y-90441299D02*
X139350900Y-89665100D01*
X138574701Y-94325299D02*
X138574701Y-90441299D01*
X128300000Y-95800000D02*
X131553440Y-95800000D01*
X139350900Y-89665100D02*
X139350900Y-89500000D01*
X131553440Y-95800000D02*
X132528142Y-96774702D01*
X136125298Y-96774702D02*
X138574701Y-94325299D01*
X132528142Y-96774702D02*
X136125298Y-96774702D01*
X128350900Y-94000000D02*
X128350900Y-95749100D01*
X128350900Y-95749100D02*
X128300000Y-95800000D01*
X120466000Y-95800000D02*
X128300000Y-95800000D01*
X119270000Y-96996000D02*
X120466000Y-95800000D01*
X119270000Y-99000000D02*
X119270000Y-96996000D01*
X130401580Y-85555000D02*
X131955000Y-85555000D01*
X132985578Y-86585578D02*
X132985578Y-87978764D01*
X131955000Y-85555000D02*
X132985578Y-86585578D01*
X132985578Y-87978764D02*
X133606701Y-88599887D01*
X133606701Y-88599887D02*
X133606701Y-90766739D01*
X133606701Y-90766739D02*
X133575506Y-90797934D01*
X133575506Y-90797934D02*
X133575506Y-94246889D01*
X133575506Y-94246889D02*
X133600000Y-94271383D01*
X133600000Y-94271383D02*
X133600000Y-94900000D01*
X134063912Y-88410505D02*
X134063912Y-90956121D01*
X133442789Y-86340136D02*
X133442789Y-87789382D01*
X134032717Y-92932719D02*
X134455501Y-93355503D01*
X134455501Y-93355503D02*
X134900000Y-93800002D01*
X135598420Y-85555000D02*
X134227925Y-85555000D01*
X134227925Y-85555000D02*
X133442789Y-86340136D01*
X134063912Y-90956121D02*
X134032717Y-90987316D01*
X134032717Y-90987316D02*
X134032717Y-92932719D01*
X133442789Y-87789382D02*
X134063912Y-88410505D01*
X121810000Y-99000000D02*
X121810000Y-96940000D01*
X121810000Y-96940000D02*
X122492789Y-96257211D01*
X122492789Y-96257211D02*
X130510619Y-96257211D01*
X130510619Y-96257211D02*
X131485321Y-97231913D01*
X131485321Y-97231913D02*
X136868087Y-97231913D01*
X136868087Y-97231913D02*
X138155501Y-95944499D01*
X138155501Y-95944499D02*
X138600000Y-95500000D01*
D15*
X97038099Y-89938099D02*
X97038099Y-93500000D01*
X97038099Y-93500000D02*
X97038099Y-96538099D01*
X96149100Y-93500000D02*
X97038099Y-93500000D01*
X96149100Y-89500000D02*
X96600000Y-89500000D01*
X96600000Y-89500000D02*
X97038099Y-89938099D01*
X97038099Y-96538099D02*
X98000000Y-97500000D01*
X98000000Y-97500000D02*
X106100000Y-97500000D01*
X106100000Y-97500000D02*
X106570000Y-97970000D01*
X106570000Y-97970000D02*
X106570000Y-99000000D01*
X123538099Y-90603379D02*
X123538099Y-92590518D01*
X123228617Y-92900000D02*
X122600000Y-92900000D01*
X123538099Y-92590518D02*
X123228617Y-92900000D01*
X125499998Y-89500000D02*
X125499998Y-90104522D01*
X125082421Y-90522099D02*
X123619379Y-90522099D01*
X123619379Y-90522099D02*
X123538099Y-90603379D01*
X125499998Y-90104522D02*
X125082421Y-90522099D01*
X122600000Y-93950900D02*
X122600000Y-93528617D01*
X122600000Y-93528617D02*
X122600000Y-92900000D01*
X122649100Y-94000000D02*
X122600000Y-93950900D01*
X124350900Y-87500000D02*
X125062100Y-87500000D01*
X125062100Y-87500000D02*
X125500000Y-87937900D01*
X125500000Y-87937900D02*
X125500000Y-89499998D01*
X125500000Y-89499998D02*
X125499998Y-89500000D01*
X126649100Y-89500000D02*
X125937900Y-89500000D01*
X125937900Y-89500000D02*
X125499998Y-89500000D01*
X126649100Y-89500000D02*
X126649100Y-89087000D01*
X126649100Y-89500000D02*
X126649100Y-89334900D01*
D16*
X97850900Y-91500000D02*
X98100000Y-91500000D01*
X98100000Y-91500000D02*
X98900000Y-90700000D01*
X100401580Y-90635000D02*
X98965000Y-90635000D01*
X98965000Y-90635000D02*
X98900000Y-90700000D01*
X100536580Y-90500000D02*
X100621383Y-90500000D01*
X100401580Y-90635000D02*
X100536580Y-90500000D01*
X105598420Y-90635000D02*
X105563420Y-90600000D01*
X105563420Y-90600000D02*
X104879537Y-90600000D01*
X104879537Y-90600000D02*
X104250920Y-90600000D01*
X105598420Y-90635000D02*
X106949200Y-90635000D01*
X106949200Y-90635000D02*
X107649100Y-91334900D01*
X107649100Y-91334900D02*
X107649100Y-91500000D01*
X113350900Y-91500000D02*
X113350900Y-92450900D01*
X113350900Y-92450900D02*
X113400000Y-92500000D01*
X115401580Y-90635000D02*
X114215900Y-90635000D01*
X114215900Y-90635000D02*
X113350900Y-91500000D01*
X119115000Y-90635000D02*
X119000000Y-90750000D01*
X120598420Y-90635000D02*
X119115000Y-90635000D01*
X122597370Y-91551730D02*
X122597370Y-91835619D01*
X122649100Y-91500000D02*
X122597370Y-91551730D01*
X122597370Y-91835619D02*
X122575743Y-91857246D01*
X120598420Y-90635000D02*
X121784100Y-90635000D01*
X121784100Y-90635000D02*
X122649100Y-91500000D01*
X137800000Y-90719202D02*
X137800000Y-91349100D01*
X137800000Y-91349100D02*
X137649100Y-91500000D01*
X135561130Y-90597710D02*
X135467249Y-90597710D01*
X135467249Y-90597710D02*
X134838632Y-90597710D01*
X135598420Y-90635000D02*
X135561130Y-90597710D01*
X137649100Y-91500000D02*
X136784100Y-90635000D01*
X136784100Y-90635000D02*
X135598420Y-90635000D01*
X137649100Y-91500000D02*
X137649100Y-93500000D01*
X132250000Y-89044802D02*
X132200000Y-88994802D01*
X132250000Y-89250000D02*
X132250000Y-89044802D01*
X132250000Y-89586680D02*
X132250000Y-89250000D01*
X97850900Y-85500000D02*
X97850900Y-84550900D01*
X97850900Y-84550900D02*
X97800000Y-84500000D01*
X130401580Y-90635000D02*
X131201680Y-90635000D01*
X131201680Y-90635000D02*
X132250000Y-89586680D01*
X132250000Y-89586680D02*
X132250000Y-89500000D01*
X97850900Y-87500000D02*
X97850900Y-89500000D01*
X100401580Y-89365000D02*
X97985900Y-89365000D01*
X97985900Y-89365000D02*
X97850900Y-89500000D01*
X97850900Y-85500000D02*
X97850900Y-87500000D01*
X110194988Y-87400000D02*
X110300000Y-87400000D01*
X110150489Y-87444499D02*
X110194988Y-87400000D01*
X96149100Y-85500000D02*
X96149100Y-84550896D01*
X96149100Y-84550896D02*
X96199996Y-84500000D01*
X109350900Y-87500000D02*
X110094988Y-87500000D01*
X101855000Y-85555000D02*
X101900000Y-85600000D01*
X100401580Y-85555000D02*
X101855000Y-85555000D01*
X105598420Y-89365000D02*
X107514100Y-89365000D01*
X107514100Y-89365000D02*
X107649100Y-89500000D01*
X107649100Y-87500000D02*
X107649100Y-89500000D01*
X107649100Y-85500000D02*
X107649100Y-87500000D01*
X109350900Y-89500000D02*
X110250000Y-89500000D01*
X110250000Y-89500000D02*
X110633723Y-89883723D01*
X110633723Y-89883723D02*
X110633723Y-90707870D01*
X110633723Y-88680477D02*
X110633723Y-90707870D01*
X111649100Y-87665100D02*
X110633723Y-88680477D01*
X111649100Y-87500000D02*
X111649100Y-87665100D01*
X105598420Y-85555000D02*
X105553420Y-85600000D01*
X105553420Y-85600000D02*
X104879537Y-85600000D01*
X104879537Y-85600000D02*
X104250920Y-85600000D01*
X115401580Y-89365000D02*
X113485900Y-89365000D01*
X113485900Y-89365000D02*
X113350900Y-89500000D01*
X113350900Y-85500000D02*
X113350900Y-87500000D01*
X113350900Y-89500000D02*
X113350900Y-87500000D01*
X111649100Y-89500000D02*
X112250000Y-89500000D01*
X111971362Y-92750000D02*
X111378617Y-92750000D01*
X112250000Y-89500000D02*
X112385701Y-89635701D01*
X111378617Y-92750000D02*
X110750000Y-92750000D01*
X112385701Y-89635701D02*
X112385701Y-92335661D01*
X112385701Y-92335661D02*
X111971362Y-92750000D01*
X124350900Y-89652108D02*
X124331829Y-89671179D01*
X124350900Y-89500000D02*
X124350900Y-89652108D01*
X124331829Y-89671179D02*
X123703212Y-89671179D01*
X116945008Y-85555000D02*
X117000008Y-85500000D01*
X115401580Y-85555000D02*
X116945008Y-85555000D01*
X120598420Y-89365000D02*
X122514100Y-89365000D01*
X122514100Y-89365000D02*
X122649100Y-89500000D01*
X122649100Y-87500000D02*
X122649100Y-89500000D01*
X122649100Y-85500000D02*
X122649100Y-87500000D01*
X119055000Y-85555000D02*
X119000000Y-85500000D01*
X120598420Y-85555000D02*
X119055000Y-85555000D01*
D15*
X97850900Y-93500000D02*
X97850900Y-95500000D01*
X126649100Y-85500000D02*
X126649100Y-84649100D01*
X126649100Y-84649100D02*
X126000000Y-84000000D01*
X103400000Y-84500000D02*
X103400000Y-90659334D01*
X102949098Y-92750902D02*
X102200000Y-93500000D01*
X126000000Y-84000000D02*
X103900000Y-84000000D01*
X103900000Y-84000000D02*
X103400000Y-84500000D01*
X103400000Y-90659334D02*
X102949098Y-91110236D01*
X102949098Y-91110236D02*
X102949098Y-92750902D01*
X102200000Y-93500000D02*
X100250000Y-93500000D01*
X100250000Y-93500000D02*
X97850900Y-93500000D01*
D16*
X128350900Y-89500000D02*
X128350900Y-91500000D01*
X130401580Y-89365000D02*
X128485900Y-89365000D01*
X128485900Y-89365000D02*
X128350900Y-89500000D01*
X128945900Y-88095000D02*
X128350900Y-87500000D01*
X130401580Y-88095000D02*
X128945900Y-88095000D01*
X128350900Y-87500000D02*
X128350900Y-85500000D01*
X137649100Y-87500000D02*
X137649100Y-89500000D01*
X137649100Y-89500000D02*
X135733420Y-89500000D01*
X135733420Y-89500000D02*
X135598420Y-89365000D01*
X137649100Y-85500000D02*
X137649100Y-85650900D01*
X137649100Y-85650900D02*
X137115079Y-86184921D01*
X137115079Y-86184921D02*
X134244597Y-86184921D01*
X134395000Y-88095000D02*
X135598420Y-88095000D01*
X134244597Y-86184921D02*
X133900000Y-86529518D01*
X133900000Y-86529518D02*
X133900000Y-87600000D01*
X133900000Y-87600000D02*
X134395000Y-88095000D01*
X124350900Y-94250000D02*
X126649100Y-94250000D01*
G36*
X140319000Y-98069000D02*
X130500000Y-98069000D01*
X130493464Y-98070300D01*
X130493464Y-97250000D01*
X130466897Y-97108810D01*
X130383454Y-96979135D01*
X130256134Y-96892141D01*
X130105000Y-96861536D01*
X128755000Y-96861536D01*
X128613810Y-96888103D01*
X128484135Y-96971546D01*
X128397141Y-97098866D01*
X128366536Y-97250000D01*
X128366536Y-100569000D01*
X127946000Y-100569000D01*
X127946000Y-99222250D01*
X127850750Y-99127000D01*
X127017000Y-99127000D01*
X127017000Y-99147000D01*
X126763000Y-99147000D01*
X126763000Y-99127000D01*
X125929250Y-99127000D01*
X125834000Y-99222250D01*
X125834000Y-100569000D01*
X125406000Y-100569000D01*
X125406000Y-99222250D01*
X125310750Y-99127000D01*
X124477000Y-99127000D01*
X124477000Y-99147000D01*
X124223000Y-99147000D01*
X124223000Y-99127000D01*
X123389250Y-99127000D01*
X123294000Y-99222250D01*
X123294000Y-100569000D01*
X122873464Y-100569000D01*
X122873464Y-97250000D01*
X122859204Y-97174215D01*
X123294000Y-97174215D01*
X123294000Y-98777750D01*
X123389250Y-98873000D01*
X124223000Y-98873000D01*
X124223000Y-96964250D01*
X124477000Y-96964250D01*
X124477000Y-98873000D01*
X125310750Y-98873000D01*
X125406000Y-98777750D01*
X125406000Y-97174215D01*
X125834000Y-97174215D01*
X125834000Y-98777750D01*
X125929250Y-98873000D01*
X126763000Y-98873000D01*
X126763000Y-96964250D01*
X127017000Y-96964250D01*
X127017000Y-98873000D01*
X127850750Y-98873000D01*
X127946000Y-98777750D01*
X127946000Y-97174215D01*
X127887996Y-97034181D01*
X127780820Y-96927004D01*
X127640786Y-96869000D01*
X127112250Y-96869000D01*
X127017000Y-96964250D01*
X126763000Y-96964250D01*
X126667750Y-96869000D01*
X126139214Y-96869000D01*
X125999180Y-96927004D01*
X125892004Y-97034181D01*
X125834000Y-97174215D01*
X125406000Y-97174215D01*
X125347996Y-97034181D01*
X125240820Y-96927004D01*
X125100786Y-96869000D01*
X124572250Y-96869000D01*
X124477000Y-96964250D01*
X124223000Y-96964250D01*
X124127750Y-96869000D01*
X123599214Y-96869000D01*
X123459180Y-96927004D01*
X123352004Y-97034181D01*
X123294000Y-97174215D01*
X122859204Y-97174215D01*
X122846897Y-97108810D01*
X122763454Y-96979135D01*
X122636134Y-96892141D01*
X122586359Y-96882061D01*
X122703210Y-96765211D01*
X130300199Y-96765211D01*
X131126111Y-97591123D01*
X131290918Y-97701244D01*
X131485321Y-97739913D01*
X136868087Y-97739913D01*
X137062490Y-97701244D01*
X137227297Y-97591123D01*
X138493013Y-96325407D01*
X138763482Y-96325643D01*
X139066998Y-96200233D01*
X139299417Y-95968219D01*
X139425357Y-95664923D01*
X139425643Y-95336518D01*
X139300233Y-95033002D01*
X139068219Y-94800583D01*
X138891300Y-94727120D01*
X138933911Y-94684509D01*
X139044032Y-94519702D01*
X139057399Y-94452500D01*
X139128650Y-94452500D01*
X139223900Y-94357250D01*
X139223900Y-93627000D01*
X139477900Y-93627000D01*
X139477900Y-94357250D01*
X139573150Y-94452500D01*
X139833086Y-94452500D01*
X139973120Y-94394496D01*
X140080296Y-94287319D01*
X140138300Y-94147285D01*
X140138300Y-93722250D01*
X140043050Y-93627000D01*
X139477900Y-93627000D01*
X139223900Y-93627000D01*
X139203900Y-93627000D01*
X139203900Y-93373000D01*
X139223900Y-93373000D01*
X139223900Y-92642750D01*
X139477900Y-92642750D01*
X139477900Y-93373000D01*
X140043050Y-93373000D01*
X140138300Y-93277750D01*
X140138300Y-92852715D01*
X140080296Y-92712681D01*
X139973120Y-92605504D01*
X139833086Y-92547500D01*
X139573150Y-92547500D01*
X139477900Y-92642750D01*
X139223900Y-92642750D01*
X139128650Y-92547500D01*
X139082701Y-92547500D01*
X139082701Y-92452500D01*
X139128650Y-92452500D01*
X139223900Y-92357250D01*
X139223900Y-91627000D01*
X139477900Y-91627000D01*
X139477900Y-92357250D01*
X139573150Y-92452500D01*
X139833086Y-92452500D01*
X139973120Y-92394496D01*
X140080296Y-92287319D01*
X140138300Y-92147285D01*
X140138300Y-91722250D01*
X140043050Y-91627000D01*
X139477900Y-91627000D01*
X139223900Y-91627000D01*
X139203900Y-91627000D01*
X139203900Y-91373000D01*
X139223900Y-91373000D01*
X139223900Y-90642750D01*
X139477900Y-90642750D01*
X139477900Y-91373000D01*
X140043050Y-91373000D01*
X140138300Y-91277750D01*
X140138300Y-90852715D01*
X140080296Y-90712681D01*
X139973120Y-90605504D01*
X139833086Y-90547500D01*
X139573150Y-90547500D01*
X139477900Y-90642750D01*
X139223900Y-90642750D01*
X139157785Y-90576635D01*
X139274456Y-90459964D01*
X139757300Y-90459964D01*
X139898490Y-90433397D01*
X140028165Y-90349954D01*
X140115159Y-90222634D01*
X140145764Y-90071500D01*
X140145764Y-88928500D01*
X140119197Y-88787310D01*
X140035754Y-88657635D01*
X139908434Y-88570641D01*
X139757300Y-88540036D01*
X138944500Y-88540036D01*
X138803310Y-88566603D01*
X138673635Y-88650046D01*
X138586641Y-88777366D01*
X138556036Y-88928500D01*
X138556036Y-89741544D01*
X138443964Y-89853616D01*
X138443964Y-88928500D01*
X138417397Y-88787310D01*
X138333954Y-88657635D01*
X138206634Y-88570641D01*
X138157100Y-88560610D01*
X138157100Y-88440846D01*
X138196690Y-88433397D01*
X138326365Y-88349954D01*
X138413359Y-88222634D01*
X138443964Y-88071500D01*
X138443964Y-87722250D01*
X138563500Y-87722250D01*
X138563500Y-88147285D01*
X138621504Y-88287319D01*
X138728680Y-88394496D01*
X138868714Y-88452500D01*
X139128650Y-88452500D01*
X139223900Y-88357250D01*
X139223900Y-87627000D01*
X139477900Y-87627000D01*
X139477900Y-88357250D01*
X139573150Y-88452500D01*
X139833086Y-88452500D01*
X139973120Y-88394496D01*
X140080296Y-88287319D01*
X140138300Y-88147285D01*
X140138300Y-87722250D01*
X140043050Y-87627000D01*
X139477900Y-87627000D01*
X139223900Y-87627000D01*
X138658750Y-87627000D01*
X138563500Y-87722250D01*
X138443964Y-87722250D01*
X138443964Y-86928500D01*
X138429704Y-86852715D01*
X138563500Y-86852715D01*
X138563500Y-87277750D01*
X138658750Y-87373000D01*
X139223900Y-87373000D01*
X139223900Y-86642750D01*
X139477900Y-86642750D01*
X139477900Y-87373000D01*
X140043050Y-87373000D01*
X140138300Y-87277750D01*
X140138300Y-86852715D01*
X140080296Y-86712681D01*
X139973120Y-86605504D01*
X139833086Y-86547500D01*
X139573150Y-86547500D01*
X139477900Y-86642750D01*
X139223900Y-86642750D01*
X139128650Y-86547500D01*
X138868714Y-86547500D01*
X138728680Y-86605504D01*
X138621504Y-86712681D01*
X138563500Y-86852715D01*
X138429704Y-86852715D01*
X138417397Y-86787310D01*
X138333954Y-86657635D01*
X138206634Y-86570641D01*
X138055500Y-86540036D01*
X137478384Y-86540036D01*
X137558456Y-86459964D01*
X138055500Y-86459964D01*
X138196690Y-86433397D01*
X138326365Y-86349954D01*
X138413359Y-86222634D01*
X138443964Y-86071500D01*
X138443964Y-85722250D01*
X138563500Y-85722250D01*
X138563500Y-86147285D01*
X138621504Y-86287319D01*
X138728680Y-86394496D01*
X138868714Y-86452500D01*
X139128650Y-86452500D01*
X139223900Y-86357250D01*
X139223900Y-85627000D01*
X139477900Y-85627000D01*
X139477900Y-86357250D01*
X139573150Y-86452500D01*
X139833086Y-86452500D01*
X139973120Y-86394496D01*
X140080296Y-86287319D01*
X140138300Y-86147285D01*
X140138300Y-85722250D01*
X140043050Y-85627000D01*
X139477900Y-85627000D01*
X139223900Y-85627000D01*
X138658750Y-85627000D01*
X138563500Y-85722250D01*
X138443964Y-85722250D01*
X138443964Y-84928500D01*
X138429704Y-84852715D01*
X138563500Y-84852715D01*
X138563500Y-85277750D01*
X138658750Y-85373000D01*
X139223900Y-85373000D01*
X139223900Y-84642750D01*
X139477900Y-84642750D01*
X139477900Y-85373000D01*
X140043050Y-85373000D01*
X140138300Y-85277750D01*
X140138300Y-84852715D01*
X140080296Y-84712681D01*
X139973120Y-84605504D01*
X139833086Y-84547500D01*
X139573150Y-84547500D01*
X139477900Y-84642750D01*
X139223900Y-84642750D01*
X139128650Y-84547500D01*
X138868714Y-84547500D01*
X138728680Y-84605504D01*
X138621504Y-84712681D01*
X138563500Y-84852715D01*
X138429704Y-84852715D01*
X138417397Y-84787310D01*
X138333954Y-84657635D01*
X138206634Y-84570641D01*
X138055500Y-84540036D01*
X137242700Y-84540036D01*
X137101510Y-84566603D01*
X136971835Y-84650046D01*
X136884841Y-84777366D01*
X136859174Y-84904117D01*
X136849374Y-84897421D01*
X136698240Y-84866816D01*
X134498600Y-84866816D01*
X134357410Y-84893383D01*
X134227735Y-84976826D01*
X134172216Y-85058081D01*
X134033522Y-85085669D01*
X133868715Y-85195790D01*
X133091463Y-85973042D01*
X132314210Y-85195790D01*
X132149403Y-85085669D01*
X131955000Y-85047000D01*
X131820126Y-85047000D01*
X131779854Y-84984415D01*
X131652534Y-84897421D01*
X131501400Y-84866816D01*
X129301760Y-84866816D01*
X129160570Y-84893383D01*
X129141469Y-84905674D01*
X129119197Y-84787310D01*
X129035754Y-84657635D01*
X128908434Y-84570641D01*
X128757300Y-84540036D01*
X127944500Y-84540036D01*
X127803310Y-84566603D01*
X127673635Y-84650046D01*
X127586641Y-84777366D01*
X127556036Y-84928500D01*
X127556036Y-86071500D01*
X127582603Y-86212690D01*
X127666046Y-86342365D01*
X127793366Y-86429359D01*
X127842900Y-86439390D01*
X127842900Y-86559154D01*
X127803310Y-86566603D01*
X127673635Y-86650046D01*
X127586641Y-86777366D01*
X127556036Y-86928500D01*
X127556036Y-88071500D01*
X127582603Y-88212690D01*
X127666046Y-88342365D01*
X127793366Y-88429359D01*
X127944500Y-88459964D01*
X128595301Y-88459964D01*
X128715136Y-88540036D01*
X127944500Y-88540036D01*
X127803310Y-88566603D01*
X127673635Y-88650046D01*
X127586641Y-88777366D01*
X127556036Y-88928500D01*
X127556036Y-90071500D01*
X127582603Y-90212690D01*
X127666046Y-90342365D01*
X127793366Y-90429359D01*
X127842900Y-90439390D01*
X127842900Y-90559154D01*
X127803310Y-90566603D01*
X127673635Y-90650046D01*
X127586641Y-90777366D01*
X127556036Y-90928500D01*
X127556036Y-92071500D01*
X127582603Y-92212690D01*
X127666046Y-92342365D01*
X127793366Y-92429359D01*
X127878496Y-92446598D01*
X127145535Y-92446598D01*
X127271320Y-92394496D01*
X127378496Y-92287319D01*
X127436500Y-92147285D01*
X127436500Y-91722250D01*
X127341250Y-91627000D01*
X126776100Y-91627000D01*
X126776100Y-91647000D01*
X126522100Y-91647000D01*
X126522100Y-91627000D01*
X125956950Y-91627000D01*
X125861700Y-91722250D01*
X125861700Y-92147285D01*
X125904362Y-92250280D01*
X125833002Y-92279765D01*
X125600583Y-92511779D01*
X125474643Y-92815075D01*
X125474357Y-93143480D01*
X125599767Y-93446996D01*
X125831781Y-93679415D01*
X125854236Y-93688739D01*
X125854236Y-93742000D01*
X125145764Y-93742000D01*
X125145764Y-93678500D01*
X125119197Y-93537310D01*
X125035754Y-93407635D01*
X124908434Y-93320641D01*
X124757300Y-93290036D01*
X123944500Y-93290036D01*
X123803310Y-93316603D01*
X123673635Y-93400046D01*
X123586641Y-93527366D01*
X123556036Y-93678500D01*
X123556036Y-94821500D01*
X123582603Y-94962690D01*
X123666046Y-95092365D01*
X123793366Y-95179359D01*
X123944500Y-95209964D01*
X124757300Y-95209964D01*
X124898490Y-95183397D01*
X125028165Y-95099954D01*
X125115159Y-94972634D01*
X125145764Y-94821500D01*
X125145764Y-94758000D01*
X125854236Y-94758000D01*
X125854236Y-94821500D01*
X125880803Y-94962690D01*
X125964246Y-95092365D01*
X126091566Y-95179359D01*
X126242700Y-95209964D01*
X127055500Y-95209964D01*
X127196690Y-95183397D01*
X127326365Y-95099954D01*
X127413359Y-94972634D01*
X127443964Y-94821500D01*
X127443964Y-93678500D01*
X127417397Y-93537310D01*
X127402010Y-93513398D01*
X127596185Y-93513398D01*
X127586641Y-93527366D01*
X127556036Y-93678500D01*
X127556036Y-94821500D01*
X127582603Y-94962690D01*
X127666046Y-95092365D01*
X127793366Y-95179359D01*
X127842900Y-95189390D01*
X127842900Y-95292000D01*
X120466000Y-95292000D01*
X120303850Y-95324254D01*
X120271596Y-95330669D01*
X120106789Y-95440790D01*
X118910790Y-96636790D01*
X118800669Y-96801597D01*
X118788746Y-96861536D01*
X118595000Y-96861536D01*
X118453810Y-96888103D01*
X118324135Y-96971546D01*
X118237141Y-97098866D01*
X118206536Y-97250000D01*
X118206536Y-100569000D01*
X117793464Y-100569000D01*
X117793464Y-97250000D01*
X117766897Y-97108810D01*
X117683454Y-96979135D01*
X117556134Y-96892141D01*
X117533400Y-96887537D01*
X117533400Y-92533947D01*
X117699417Y-92368219D01*
X117825357Y-92064923D01*
X117825643Y-91736518D01*
X117700233Y-91433002D01*
X117468219Y-91200583D01*
X117164923Y-91074643D01*
X116861583Y-91074379D01*
X116889864Y-90934720D01*
X116889864Y-90335280D01*
X116863297Y-90194090D01*
X116779854Y-90064415D01*
X116684791Y-89999461D01*
X116772265Y-89943174D01*
X116859259Y-89815854D01*
X116889864Y-89664720D01*
X116889864Y-89065280D01*
X116863297Y-88924090D01*
X116779854Y-88794415D01*
X116686328Y-88730511D01*
X116717219Y-88717716D01*
X116824396Y-88610540D01*
X116882400Y-88470506D01*
X116882400Y-88317250D01*
X116787150Y-88222000D01*
X115528580Y-88222000D01*
X115528580Y-88242000D01*
X115274580Y-88242000D01*
X115274580Y-88222000D01*
X115254580Y-88222000D01*
X115254580Y-87968000D01*
X115274580Y-87968000D01*
X115274580Y-87948000D01*
X115528580Y-87948000D01*
X115528580Y-87968000D01*
X116787150Y-87968000D01*
X116882400Y-87872750D01*
X116882400Y-87719494D01*
X116824396Y-87579460D01*
X116717219Y-87472284D01*
X116685367Y-87459091D01*
X116772265Y-87403174D01*
X116859259Y-87275854D01*
X116889864Y-87124720D01*
X116889864Y-86525280D01*
X116863297Y-86384090D01*
X116822010Y-86319928D01*
X116835085Y-86325357D01*
X117163490Y-86325643D01*
X117467006Y-86200233D01*
X117699425Y-85968219D01*
X117825365Y-85664923D01*
X117825366Y-85663482D01*
X118174357Y-85663482D01*
X118299767Y-85966998D01*
X118531781Y-86199417D01*
X118835077Y-86325357D01*
X119163482Y-86325643D01*
X119177973Y-86319656D01*
X119140741Y-86374146D01*
X119110136Y-86525280D01*
X119110136Y-87124720D01*
X119136703Y-87265910D01*
X119220146Y-87395585D01*
X119313672Y-87459489D01*
X119282781Y-87472284D01*
X119175604Y-87579460D01*
X119117600Y-87719494D01*
X119117600Y-87872750D01*
X119212850Y-87968000D01*
X120471420Y-87968000D01*
X120471420Y-87948000D01*
X120725420Y-87948000D01*
X120725420Y-87968000D01*
X120745420Y-87968000D01*
X120745420Y-88222000D01*
X120725420Y-88222000D01*
X120725420Y-88242000D01*
X120471420Y-88242000D01*
X120471420Y-88222000D01*
X119212850Y-88222000D01*
X119117600Y-88317250D01*
X119117600Y-88470506D01*
X119175604Y-88610540D01*
X119282781Y-88717716D01*
X119314633Y-88730909D01*
X119227735Y-88786826D01*
X119140741Y-88914146D01*
X119110136Y-89065280D01*
X119110136Y-89664720D01*
X119136703Y-89805910D01*
X119220146Y-89935585D01*
X119264874Y-89966147D01*
X119164923Y-89924643D01*
X118836518Y-89924357D01*
X118533002Y-90049767D01*
X118300583Y-90281781D01*
X118174643Y-90585077D01*
X118174357Y-90913482D01*
X118299767Y-91216998D01*
X118531781Y-91449417D01*
X118835077Y-91575357D01*
X119116146Y-91575602D01*
X119110136Y-91605280D01*
X119110136Y-92204720D01*
X119136703Y-92345910D01*
X119220146Y-92475585D01*
X119347466Y-92562579D01*
X119498600Y-92593184D01*
X120052474Y-92593184D01*
X119571097Y-93074561D01*
X119336518Y-93074357D01*
X119033002Y-93199767D01*
X118800583Y-93431781D01*
X118674643Y-93735077D01*
X118674357Y-94063482D01*
X118799767Y-94366998D01*
X119031781Y-94599417D01*
X119335077Y-94725357D01*
X119663482Y-94725643D01*
X119966998Y-94600233D01*
X120199417Y-94368219D01*
X120325357Y-94064923D01*
X120325563Y-93828779D01*
X120975591Y-93178751D01*
X121091217Y-93005703D01*
X121131820Y-92801580D01*
X121131820Y-92593184D01*
X121698240Y-92593184D01*
X121839430Y-92566617D01*
X121846477Y-92562082D01*
X121774643Y-92735077D01*
X121774357Y-93063482D01*
X121899767Y-93366998D01*
X121955956Y-93423285D01*
X121884841Y-93527366D01*
X121854236Y-93678500D01*
X121854236Y-94821500D01*
X121880803Y-94962690D01*
X121964246Y-95092365D01*
X122091566Y-95179359D01*
X122242700Y-95209964D01*
X123055500Y-95209964D01*
X123196690Y-95183397D01*
X123326365Y-95099954D01*
X123413359Y-94972634D01*
X123443964Y-94821500D01*
X123443964Y-93678500D01*
X123417397Y-93537310D01*
X123336699Y-93411901D01*
X123432740Y-93392797D01*
X123605788Y-93277171D01*
X123915270Y-92967689D01*
X124030896Y-92794641D01*
X124071500Y-92590518D01*
X124071499Y-92590513D01*
X124071499Y-92452500D01*
X124128650Y-92452500D01*
X124223900Y-92357250D01*
X124223900Y-91627000D01*
X124477900Y-91627000D01*
X124477900Y-92357250D01*
X124573150Y-92452500D01*
X124833086Y-92452500D01*
X124973120Y-92394496D01*
X125080296Y-92287319D01*
X125138300Y-92147285D01*
X125138300Y-91722250D01*
X125043050Y-91627000D01*
X124477900Y-91627000D01*
X124223900Y-91627000D01*
X124203900Y-91627000D01*
X124203900Y-91373000D01*
X124223900Y-91373000D01*
X124223900Y-91353000D01*
X124477900Y-91353000D01*
X124477900Y-91373000D01*
X125043050Y-91373000D01*
X125138300Y-91277750D01*
X125138300Y-91044384D01*
X125286544Y-91014896D01*
X125459592Y-90899270D01*
X125506147Y-90852715D01*
X125861700Y-90852715D01*
X125861700Y-91277750D01*
X125956950Y-91373000D01*
X126522100Y-91373000D01*
X126522100Y-90642750D01*
X126776100Y-90642750D01*
X126776100Y-91373000D01*
X127341250Y-91373000D01*
X127436500Y-91277750D01*
X127436500Y-90852715D01*
X127378496Y-90712681D01*
X127271320Y-90605504D01*
X127131286Y-90547500D01*
X126871350Y-90547500D01*
X126776100Y-90642750D01*
X126522100Y-90642750D01*
X126426850Y-90547500D01*
X126166914Y-90547500D01*
X126026880Y-90605504D01*
X125919704Y-90712681D01*
X125861700Y-90852715D01*
X125506147Y-90852715D01*
X125877169Y-90481693D01*
X125968378Y-90345188D01*
X126091566Y-90429359D01*
X126242700Y-90459964D01*
X127055500Y-90459964D01*
X127196690Y-90433397D01*
X127326365Y-90349954D01*
X127413359Y-90222634D01*
X127443964Y-90071500D01*
X127443964Y-88928500D01*
X127417397Y-88787310D01*
X127333954Y-88657635D01*
X127206634Y-88570641D01*
X127055500Y-88540036D01*
X126242700Y-88540036D01*
X126101510Y-88566603D01*
X126033400Y-88610430D01*
X126033400Y-88397197D01*
X126166914Y-88452500D01*
X126426850Y-88452500D01*
X126522100Y-88357250D01*
X126522100Y-87627000D01*
X126776100Y-87627000D01*
X126776100Y-88357250D01*
X126871350Y-88452500D01*
X127131286Y-88452500D01*
X127271320Y-88394496D01*
X127378496Y-88287319D01*
X127436500Y-88147285D01*
X127436500Y-87722250D01*
X127341250Y-87627000D01*
X126776100Y-87627000D01*
X126522100Y-87627000D01*
X125956950Y-87627000D01*
X125935670Y-87648280D01*
X125877171Y-87560729D01*
X125439271Y-87122829D01*
X125266223Y-87007203D01*
X125145764Y-86983242D01*
X125145764Y-86928500D01*
X125131504Y-86852715D01*
X125861700Y-86852715D01*
X125861700Y-87277750D01*
X125956950Y-87373000D01*
X126522100Y-87373000D01*
X126522100Y-86642750D01*
X126776100Y-86642750D01*
X126776100Y-87373000D01*
X127341250Y-87373000D01*
X127436500Y-87277750D01*
X127436500Y-86852715D01*
X127378496Y-86712681D01*
X127271320Y-86605504D01*
X127131286Y-86547500D01*
X126871350Y-86547500D01*
X126776100Y-86642750D01*
X126522100Y-86642750D01*
X126426850Y-86547500D01*
X126166914Y-86547500D01*
X126026880Y-86605504D01*
X125919704Y-86712681D01*
X125861700Y-86852715D01*
X125131504Y-86852715D01*
X125119197Y-86787310D01*
X125035754Y-86657635D01*
X124908434Y-86570641D01*
X124757300Y-86540036D01*
X123944500Y-86540036D01*
X123803310Y-86566603D01*
X123673635Y-86650046D01*
X123586641Y-86777366D01*
X123556036Y-86928500D01*
X123556036Y-88071500D01*
X123582603Y-88212690D01*
X123666046Y-88342365D01*
X123793366Y-88429359D01*
X123944500Y-88459964D01*
X124757300Y-88459964D01*
X124898490Y-88433397D01*
X124966600Y-88389570D01*
X124966600Y-88610384D01*
X124908434Y-88570641D01*
X124757300Y-88540036D01*
X123944500Y-88540036D01*
X123803310Y-88566603D01*
X123673635Y-88650046D01*
X123586641Y-88777366D01*
X123572831Y-88845565D01*
X123539730Y-88845536D01*
X123436388Y-88888236D01*
X123417397Y-88787310D01*
X123333954Y-88657635D01*
X123206634Y-88570641D01*
X123157100Y-88560610D01*
X123157100Y-88440846D01*
X123196690Y-88433397D01*
X123326365Y-88349954D01*
X123413359Y-88222634D01*
X123443964Y-88071500D01*
X123443964Y-86928500D01*
X123417397Y-86787310D01*
X123333954Y-86657635D01*
X123206634Y-86570641D01*
X123157100Y-86560610D01*
X123157100Y-86440846D01*
X123196690Y-86433397D01*
X123326365Y-86349954D01*
X123413359Y-86222634D01*
X123443964Y-86071500D01*
X123443964Y-85722250D01*
X123563500Y-85722250D01*
X123563500Y-86147285D01*
X123621504Y-86287319D01*
X123728680Y-86394496D01*
X123868714Y-86452500D01*
X124128650Y-86452500D01*
X124223900Y-86357250D01*
X124223900Y-85627000D01*
X124477900Y-85627000D01*
X124477900Y-86357250D01*
X124573150Y-86452500D01*
X124833086Y-86452500D01*
X124973120Y-86394496D01*
X125080296Y-86287319D01*
X125138300Y-86147285D01*
X125138300Y-85722250D01*
X125043050Y-85627000D01*
X124477900Y-85627000D01*
X124223900Y-85627000D01*
X123658750Y-85627000D01*
X123563500Y-85722250D01*
X123443964Y-85722250D01*
X123443964Y-84928500D01*
X123429704Y-84852715D01*
X123563500Y-84852715D01*
X123563500Y-85277750D01*
X123658750Y-85373000D01*
X124223900Y-85373000D01*
X124223900Y-84642750D01*
X124477900Y-84642750D01*
X124477900Y-85373000D01*
X125043050Y-85373000D01*
X125138300Y-85277750D01*
X125138300Y-84852715D01*
X125080296Y-84712681D01*
X124973120Y-84605504D01*
X124833086Y-84547500D01*
X124573150Y-84547500D01*
X124477900Y-84642750D01*
X124223900Y-84642750D01*
X124128650Y-84547500D01*
X123868714Y-84547500D01*
X123728680Y-84605504D01*
X123621504Y-84712681D01*
X123563500Y-84852715D01*
X123429704Y-84852715D01*
X123417397Y-84787310D01*
X123333954Y-84657635D01*
X123206634Y-84570641D01*
X123055500Y-84540036D01*
X122242700Y-84540036D01*
X122101510Y-84566603D01*
X121971835Y-84650046D01*
X121884841Y-84777366D01*
X121859174Y-84904117D01*
X121849374Y-84897421D01*
X121698240Y-84866816D01*
X119534337Y-84866816D01*
X119468219Y-84800583D01*
X119164923Y-84674643D01*
X118836518Y-84674357D01*
X118533002Y-84799767D01*
X118300583Y-85031781D01*
X118174643Y-85335077D01*
X118174357Y-85663482D01*
X117825366Y-85663482D01*
X117825651Y-85336518D01*
X117700241Y-85033002D01*
X117468227Y-84800583D01*
X117164931Y-84674643D01*
X116836526Y-84674357D01*
X116533010Y-84799767D01*
X116465844Y-84866816D01*
X114301760Y-84866816D01*
X114160570Y-84893383D01*
X114141469Y-84905674D01*
X114119197Y-84787310D01*
X114035754Y-84657635D01*
X113908434Y-84570641D01*
X113757300Y-84540036D01*
X112944500Y-84540036D01*
X112803310Y-84566603D01*
X112673635Y-84650046D01*
X112586641Y-84777366D01*
X112556036Y-84928500D01*
X112556036Y-86071500D01*
X112582603Y-86212690D01*
X112666046Y-86342365D01*
X112793366Y-86429359D01*
X112842900Y-86439390D01*
X112842900Y-86559154D01*
X112803310Y-86566603D01*
X112673635Y-86650046D01*
X112586641Y-86777366D01*
X112556036Y-86928500D01*
X112556036Y-88071500D01*
X112582603Y-88212690D01*
X112666046Y-88342365D01*
X112793366Y-88429359D01*
X112842900Y-88439390D01*
X112842900Y-88559154D01*
X112803310Y-88566603D01*
X112673635Y-88650046D01*
X112586641Y-88777366D01*
X112556036Y-88928500D01*
X112556036Y-89105260D01*
X112444403Y-89030669D01*
X112443964Y-89030582D01*
X112443964Y-88928500D01*
X112417397Y-88787310D01*
X112333954Y-88657635D01*
X112206634Y-88570641D01*
X112055500Y-88540036D01*
X111492584Y-88540036D01*
X111572656Y-88459964D01*
X112055500Y-88459964D01*
X112196690Y-88433397D01*
X112326365Y-88349954D01*
X112413359Y-88222634D01*
X112443964Y-88071500D01*
X112443964Y-86928500D01*
X112417397Y-86787310D01*
X112333954Y-86657635D01*
X112206634Y-86570641D01*
X112055500Y-86540036D01*
X111242700Y-86540036D01*
X111101510Y-86566603D01*
X110971835Y-86650046D01*
X110884841Y-86777366D01*
X110878100Y-86810656D01*
X110768219Y-86700583D01*
X110464923Y-86574643D01*
X110136518Y-86574357D01*
X109997774Y-86631685D01*
X109908434Y-86570641D01*
X109757300Y-86540036D01*
X108944500Y-86540036D01*
X108803310Y-86566603D01*
X108673635Y-86650046D01*
X108586641Y-86777366D01*
X108556036Y-86928500D01*
X108556036Y-88071500D01*
X108582603Y-88212690D01*
X108666046Y-88342365D01*
X108793366Y-88429359D01*
X108944500Y-88459964D01*
X109757300Y-88459964D01*
X109898490Y-88433397D01*
X110028165Y-88349954D01*
X110115159Y-88222634D01*
X110116195Y-88217517D01*
X110135077Y-88225357D01*
X110370218Y-88225562D01*
X110274513Y-88321267D01*
X110164392Y-88486074D01*
X110125723Y-88680477D01*
X110125723Y-88821992D01*
X110119197Y-88787310D01*
X110035754Y-88657635D01*
X109908434Y-88570641D01*
X109757300Y-88540036D01*
X108944500Y-88540036D01*
X108803310Y-88566603D01*
X108673635Y-88650046D01*
X108586641Y-88777366D01*
X108556036Y-88928500D01*
X108556036Y-90071500D01*
X108582603Y-90212690D01*
X108666046Y-90342365D01*
X108793366Y-90429359D01*
X108944500Y-90459964D01*
X109757300Y-90459964D01*
X109850072Y-90442508D01*
X109808366Y-90542947D01*
X109808362Y-90547500D01*
X109573150Y-90547500D01*
X109477900Y-90642750D01*
X109477900Y-91373000D01*
X110043050Y-91373000D01*
X110087202Y-91328848D01*
X110165504Y-91407287D01*
X110468800Y-91533227D01*
X110797205Y-91533513D01*
X110861700Y-91506864D01*
X110861700Y-91627002D01*
X110956948Y-91627002D01*
X110861700Y-91722250D01*
X110861700Y-91924597D01*
X110586518Y-91924357D01*
X110283002Y-92049767D01*
X110105155Y-92227304D01*
X110138300Y-92147285D01*
X110138300Y-91722250D01*
X110043050Y-91627000D01*
X109477900Y-91627000D01*
X109477900Y-92357250D01*
X109573150Y-92452500D01*
X109833086Y-92452500D01*
X109973120Y-92394496D01*
X110025551Y-92342065D01*
X109924643Y-92585077D01*
X109924357Y-92913482D01*
X110049767Y-93216998D01*
X110281781Y-93449417D01*
X110585077Y-93575357D01*
X110913482Y-93575643D01*
X111216998Y-93450233D01*
X111409567Y-93258000D01*
X111971362Y-93258000D01*
X112165765Y-93219331D01*
X112330572Y-93109210D01*
X112633401Y-92806381D01*
X112699767Y-92966998D01*
X112931781Y-93199417D01*
X113235077Y-93325357D01*
X113563482Y-93325643D01*
X113866998Y-93200233D01*
X114099417Y-92968219D01*
X114225357Y-92664923D01*
X114225433Y-92577728D01*
X114301760Y-92593184D01*
X116466600Y-92593184D01*
X116466600Y-96861536D01*
X116055000Y-96861536D01*
X115913810Y-96888103D01*
X115784135Y-96971546D01*
X115697141Y-97098866D01*
X115666536Y-97250000D01*
X115666536Y-100569000D01*
X115253464Y-100569000D01*
X115253464Y-97250000D01*
X115226897Y-97108810D01*
X115143454Y-96979135D01*
X115016134Y-96892141D01*
X114865000Y-96861536D01*
X114706759Y-96861536D01*
X114682797Y-96741077D01*
X114671328Y-96723913D01*
X114567171Y-96568029D01*
X114567168Y-96568027D01*
X113921971Y-95922829D01*
X113748923Y-95807203D01*
X113544800Y-95766600D01*
X106920942Y-95766600D01*
X106333400Y-95179058D01*
X106333400Y-92711100D01*
X106309945Y-92593184D01*
X106698240Y-92593184D01*
X106839430Y-92566617D01*
X106969105Y-92483174D01*
X107033148Y-92389444D01*
X107091566Y-92429359D01*
X107242700Y-92459964D01*
X108055500Y-92459964D01*
X108196690Y-92433397D01*
X108326365Y-92349954D01*
X108413359Y-92222634D01*
X108443964Y-92071500D01*
X108443964Y-91722250D01*
X108563500Y-91722250D01*
X108563500Y-92147285D01*
X108621504Y-92287319D01*
X108728680Y-92394496D01*
X108868714Y-92452500D01*
X109128650Y-92452500D01*
X109223900Y-92357250D01*
X109223900Y-91627000D01*
X108658750Y-91627000D01*
X108563500Y-91722250D01*
X108443964Y-91722250D01*
X108443964Y-90928500D01*
X108429704Y-90852715D01*
X108563500Y-90852715D01*
X108563500Y-91277750D01*
X108658750Y-91373000D01*
X109223900Y-91373000D01*
X109223900Y-90642750D01*
X109128650Y-90547500D01*
X108868714Y-90547500D01*
X108728680Y-90605504D01*
X108621504Y-90712681D01*
X108563500Y-90852715D01*
X108429704Y-90852715D01*
X108417397Y-90787310D01*
X108333954Y-90657635D01*
X108206634Y-90570641D01*
X108055500Y-90540036D01*
X107572656Y-90540036D01*
X107492584Y-90459964D01*
X108055500Y-90459964D01*
X108196690Y-90433397D01*
X108326365Y-90349954D01*
X108413359Y-90222634D01*
X108443964Y-90071500D01*
X108443964Y-88928500D01*
X108417397Y-88787310D01*
X108333954Y-88657635D01*
X108206634Y-88570641D01*
X108157100Y-88560610D01*
X108157100Y-88440846D01*
X108196690Y-88433397D01*
X108326365Y-88349954D01*
X108413359Y-88222634D01*
X108443964Y-88071500D01*
X108443964Y-86928500D01*
X108417397Y-86787310D01*
X108333954Y-86657635D01*
X108206634Y-86570641D01*
X108157100Y-86560610D01*
X108157100Y-86440846D01*
X108196690Y-86433397D01*
X108326365Y-86349954D01*
X108413359Y-86222634D01*
X108443964Y-86071500D01*
X108443964Y-85722250D01*
X108563500Y-85722250D01*
X108563500Y-86147285D01*
X108621504Y-86287319D01*
X108728680Y-86394496D01*
X108868714Y-86452500D01*
X109128650Y-86452500D01*
X109223900Y-86357250D01*
X109223900Y-85627000D01*
X109477900Y-85627000D01*
X109477900Y-86357250D01*
X109573150Y-86452500D01*
X109833086Y-86452500D01*
X109973120Y-86394496D01*
X110080296Y-86287319D01*
X110138300Y-86147285D01*
X110138300Y-85722250D01*
X110861700Y-85722250D01*
X110861700Y-86147285D01*
X110919704Y-86287319D01*
X111026880Y-86394496D01*
X111166914Y-86452500D01*
X111426850Y-86452500D01*
X111522100Y-86357250D01*
X111522100Y-85627000D01*
X111776100Y-85627000D01*
X111776100Y-86357250D01*
X111871350Y-86452500D01*
X112131286Y-86452500D01*
X112271320Y-86394496D01*
X112378496Y-86287319D01*
X112436500Y-86147285D01*
X112436500Y-85722250D01*
X112341250Y-85627000D01*
X111776100Y-85627000D01*
X111522100Y-85627000D01*
X110956950Y-85627000D01*
X110861700Y-85722250D01*
X110138300Y-85722250D01*
X110043050Y-85627000D01*
X109477900Y-85627000D01*
X109223900Y-85627000D01*
X108658750Y-85627000D01*
X108563500Y-85722250D01*
X108443964Y-85722250D01*
X108443964Y-84928500D01*
X108429704Y-84852715D01*
X108563500Y-84852715D01*
X108563500Y-85277750D01*
X108658750Y-85373000D01*
X109223900Y-85373000D01*
X109223900Y-84642750D01*
X109477900Y-84642750D01*
X109477900Y-85373000D01*
X110043050Y-85373000D01*
X110138300Y-85277750D01*
X110138300Y-84852715D01*
X110861700Y-84852715D01*
X110861700Y-85277750D01*
X110956950Y-85373000D01*
X111522100Y-85373000D01*
X111522100Y-84642750D01*
X111776100Y-84642750D01*
X111776100Y-85373000D01*
X112341250Y-85373000D01*
X112436500Y-85277750D01*
X112436500Y-84852715D01*
X112378496Y-84712681D01*
X112271320Y-84605504D01*
X112131286Y-84547500D01*
X111871350Y-84547500D01*
X111776100Y-84642750D01*
X111522100Y-84642750D01*
X111426850Y-84547500D01*
X111166914Y-84547500D01*
X111026880Y-84605504D01*
X110919704Y-84712681D01*
X110861700Y-84852715D01*
X110138300Y-84852715D01*
X110080296Y-84712681D01*
X109973120Y-84605504D01*
X109833086Y-84547500D01*
X109573150Y-84547500D01*
X109477900Y-84642750D01*
X109223900Y-84642750D01*
X109128650Y-84547500D01*
X108868714Y-84547500D01*
X108728680Y-84605504D01*
X108621504Y-84712681D01*
X108563500Y-84852715D01*
X108429704Y-84852715D01*
X108417397Y-84787310D01*
X108333954Y-84657635D01*
X108206634Y-84570641D01*
X108055500Y-84540036D01*
X107242700Y-84540036D01*
X107101510Y-84566603D01*
X106971835Y-84650046D01*
X106884841Y-84777366D01*
X106859174Y-84904117D01*
X106849374Y-84897421D01*
X106698240Y-84866816D01*
X104637819Y-84866816D01*
X104415843Y-84774643D01*
X104087438Y-84774357D01*
X103933400Y-84838004D01*
X103933400Y-84720942D01*
X104120942Y-84533400D01*
X125779058Y-84533400D01*
X125940932Y-84695274D01*
X125884841Y-84777366D01*
X125854236Y-84928500D01*
X125854236Y-86071500D01*
X125880803Y-86212690D01*
X125964246Y-86342365D01*
X126091566Y-86429359D01*
X126242700Y-86459964D01*
X127055500Y-86459964D01*
X127196690Y-86433397D01*
X127326365Y-86349954D01*
X127413359Y-86222634D01*
X127443964Y-86071500D01*
X127443964Y-84928500D01*
X127417397Y-84787310D01*
X127333954Y-84657635D01*
X127206634Y-84570641D01*
X127165225Y-84562256D01*
X127141897Y-84444977D01*
X127026271Y-84271929D01*
X126377171Y-83622829D01*
X126204123Y-83507203D01*
X126000000Y-83466600D01*
X103900000Y-83466600D01*
X103695877Y-83507203D01*
X103522829Y-83622829D01*
X103022829Y-84122829D01*
X102907203Y-84295877D01*
X102866600Y-84500000D01*
X102866600Y-90438392D01*
X102571927Y-90733065D01*
X102456301Y-90906113D01*
X102415698Y-91110236D01*
X102415698Y-91278778D01*
X102164915Y-91174643D01*
X101836510Y-91174357D01*
X101783948Y-91196075D01*
X101859259Y-91085854D01*
X101889864Y-90934720D01*
X101889864Y-90335280D01*
X101863297Y-90194090D01*
X101779854Y-90064415D01*
X101684791Y-89999461D01*
X101772265Y-89943174D01*
X101859259Y-89815854D01*
X101889864Y-89664720D01*
X101889864Y-89065280D01*
X101863297Y-88924090D01*
X101779854Y-88794415D01*
X101686328Y-88730511D01*
X101717219Y-88717716D01*
X101824396Y-88610540D01*
X101882400Y-88470506D01*
X101882400Y-88317250D01*
X101787150Y-88222000D01*
X100528580Y-88222000D01*
X100528580Y-88242000D01*
X100274580Y-88242000D01*
X100274580Y-88222000D01*
X99016010Y-88222000D01*
X98920760Y-88317250D01*
X98920760Y-88470506D01*
X98978764Y-88610540D01*
X99085941Y-88717716D01*
X99117793Y-88730909D01*
X99030895Y-88786826D01*
X98982947Y-88857000D01*
X98632310Y-88857000D01*
X98619197Y-88787310D01*
X98535754Y-88657635D01*
X98408434Y-88570641D01*
X98358900Y-88560610D01*
X98358900Y-88440846D01*
X98398490Y-88433397D01*
X98528165Y-88349954D01*
X98615159Y-88222634D01*
X98645764Y-88071500D01*
X98645764Y-86928500D01*
X98619197Y-86787310D01*
X98535754Y-86657635D01*
X98408434Y-86570641D01*
X98358900Y-86560610D01*
X98358900Y-86440846D01*
X98398490Y-86433397D01*
X98528165Y-86349954D01*
X98615159Y-86222634D01*
X98645764Y-86071500D01*
X98645764Y-85255280D01*
X98913296Y-85255280D01*
X98913296Y-85854720D01*
X98939863Y-85995910D01*
X99023306Y-86125585D01*
X99118369Y-86190539D01*
X99030895Y-86246826D01*
X98943901Y-86374146D01*
X98913296Y-86525280D01*
X98913296Y-87124720D01*
X98939863Y-87265910D01*
X99023306Y-87395585D01*
X99116832Y-87459489D01*
X99085941Y-87472284D01*
X98978764Y-87579460D01*
X98920760Y-87719494D01*
X98920760Y-87872750D01*
X99016010Y-87968000D01*
X100274580Y-87968000D01*
X100274580Y-87948000D01*
X100528580Y-87948000D01*
X100528580Y-87968000D01*
X101787150Y-87968000D01*
X101882400Y-87872750D01*
X101882400Y-87719494D01*
X101824396Y-87579460D01*
X101717219Y-87472284D01*
X101685367Y-87459091D01*
X101772265Y-87403174D01*
X101859259Y-87275854D01*
X101889864Y-87124720D01*
X101889864Y-86525280D01*
X101871084Y-86425475D01*
X102063482Y-86425643D01*
X102366998Y-86300233D01*
X102599417Y-86068219D01*
X102725357Y-85764923D01*
X102725643Y-85436518D01*
X102600233Y-85133002D01*
X102368219Y-84900583D01*
X102064923Y-84774643D01*
X101736518Y-84774357D01*
X101509017Y-84868358D01*
X101501400Y-84866816D01*
X99301760Y-84866816D01*
X99160570Y-84893383D01*
X99030895Y-84976826D01*
X98943901Y-85104146D01*
X98913296Y-85255280D01*
X98645764Y-85255280D01*
X98645764Y-84928500D01*
X98619197Y-84787310D01*
X98592053Y-84745127D01*
X98625357Y-84664923D01*
X98625643Y-84336518D01*
X98500233Y-84033002D01*
X98268219Y-83800583D01*
X97964923Y-83674643D01*
X97636518Y-83674357D01*
X97333002Y-83799767D01*
X97100583Y-84031781D01*
X96999906Y-84274238D01*
X96900229Y-84033002D01*
X96668215Y-83800583D01*
X96364919Y-83674643D01*
X96036514Y-83674357D01*
X95732998Y-83799767D01*
X95500579Y-84031781D01*
X95374639Y-84335077D01*
X95374353Y-84663482D01*
X95407629Y-84744015D01*
X95384841Y-84777366D01*
X95354236Y-84928500D01*
X95354236Y-86071500D01*
X95380803Y-86212690D01*
X95464246Y-86342365D01*
X95591566Y-86429359D01*
X95742700Y-86459964D01*
X96555500Y-86459964D01*
X96696690Y-86433397D01*
X96826365Y-86349954D01*
X96913359Y-86222634D01*
X96943964Y-86071500D01*
X96943964Y-84928500D01*
X96935214Y-84882000D01*
X97000090Y-84725762D01*
X97065187Y-84883309D01*
X97056036Y-84928500D01*
X97056036Y-86071500D01*
X97082603Y-86212690D01*
X97166046Y-86342365D01*
X97293366Y-86429359D01*
X97342900Y-86439390D01*
X97342900Y-86559154D01*
X97303310Y-86566603D01*
X97173635Y-86650046D01*
X97086641Y-86777366D01*
X97056036Y-86928500D01*
X97056036Y-88071500D01*
X97082603Y-88212690D01*
X97166046Y-88342365D01*
X97293366Y-88429359D01*
X97342900Y-88439390D01*
X97342900Y-88559154D01*
X97303310Y-88566603D01*
X97173635Y-88650046D01*
X97086641Y-88777366D01*
X97056036Y-88928500D01*
X97056036Y-89201694D01*
X96977171Y-89122829D01*
X96943964Y-89100641D01*
X96943964Y-88928500D01*
X96917397Y-88787310D01*
X96833954Y-88657635D01*
X96706634Y-88570641D01*
X96555500Y-88540036D01*
X95742700Y-88540036D01*
X95601510Y-88566603D01*
X95471835Y-88650046D01*
X95384841Y-88777366D01*
X95354236Y-88928500D01*
X95354236Y-90071500D01*
X95380803Y-90212690D01*
X95464246Y-90342365D01*
X95591566Y-90429359D01*
X95742700Y-90459964D01*
X96504699Y-90459964D01*
X96504699Y-90547500D01*
X96371350Y-90547500D01*
X96276100Y-90642750D01*
X96276100Y-91373000D01*
X96296100Y-91373000D01*
X96296100Y-91627000D01*
X96276100Y-91627000D01*
X96276100Y-92357250D01*
X96371350Y-92452500D01*
X96504699Y-92452500D01*
X96504699Y-92540036D01*
X95742700Y-92540036D01*
X95601510Y-92566603D01*
X95471835Y-92650046D01*
X95384841Y-92777366D01*
X95354236Y-92928500D01*
X95354236Y-94071500D01*
X95380803Y-94212690D01*
X95464246Y-94342365D01*
X95591566Y-94429359D01*
X95742700Y-94459964D01*
X96504699Y-94459964D01*
X96504699Y-94547500D01*
X96371350Y-94547500D01*
X96276100Y-94642750D01*
X96276100Y-95373000D01*
X96296100Y-95373000D01*
X96296100Y-95627000D01*
X96276100Y-95627000D01*
X96276100Y-96357250D01*
X96371350Y-96452500D01*
X96504699Y-96452500D01*
X96504699Y-96538099D01*
X96545302Y-96742222D01*
X96660928Y-96915270D01*
X97622827Y-97877168D01*
X97622829Y-97877171D01*
X97694411Y-97925000D01*
X97795876Y-97992797D01*
X98000000Y-98033400D01*
X105506536Y-98033400D01*
X105506536Y-98070300D01*
X105500000Y-98069000D01*
X95181000Y-98069000D01*
X95181000Y-95722250D01*
X95361700Y-95722250D01*
X95361700Y-96147285D01*
X95419704Y-96287319D01*
X95526880Y-96394496D01*
X95666914Y-96452500D01*
X95926850Y-96452500D01*
X96022100Y-96357250D01*
X96022100Y-95627000D01*
X95456950Y-95627000D01*
X95361700Y-95722250D01*
X95181000Y-95722250D01*
X95181000Y-94852715D01*
X95361700Y-94852715D01*
X95361700Y-95277750D01*
X95456950Y-95373000D01*
X96022100Y-95373000D01*
X96022100Y-94642750D01*
X95926850Y-94547500D01*
X95666914Y-94547500D01*
X95526880Y-94605504D01*
X95419704Y-94712681D01*
X95361700Y-94852715D01*
X95181000Y-94852715D01*
X95181000Y-91722250D01*
X95361700Y-91722250D01*
X95361700Y-92147285D01*
X95419704Y-92287319D01*
X95526880Y-92394496D01*
X95666914Y-92452500D01*
X95926850Y-92452500D01*
X96022100Y-92357250D01*
X96022100Y-91627000D01*
X95456950Y-91627000D01*
X95361700Y-91722250D01*
X95181000Y-91722250D01*
X95181000Y-90852715D01*
X95361700Y-90852715D01*
X95361700Y-91277750D01*
X95456950Y-91373000D01*
X96022100Y-91373000D01*
X96022100Y-90642750D01*
X95926850Y-90547500D01*
X95666914Y-90547500D01*
X95526880Y-90605504D01*
X95419704Y-90712681D01*
X95361700Y-90852715D01*
X95181000Y-90852715D01*
X95181000Y-87722250D01*
X95361700Y-87722250D01*
X95361700Y-88147285D01*
X95419704Y-88287319D01*
X95526880Y-88394496D01*
X95666914Y-88452500D01*
X95926850Y-88452500D01*
X96022100Y-88357250D01*
X96022100Y-87627000D01*
X96276100Y-87627000D01*
X96276100Y-88357250D01*
X96371350Y-88452500D01*
X96631286Y-88452500D01*
X96771320Y-88394496D01*
X96878496Y-88287319D01*
X96936500Y-88147285D01*
X96936500Y-87722250D01*
X96841250Y-87627000D01*
X96276100Y-87627000D01*
X96022100Y-87627000D01*
X95456950Y-87627000D01*
X95361700Y-87722250D01*
X95181000Y-87722250D01*
X95181000Y-86852715D01*
X95361700Y-86852715D01*
X95361700Y-87277750D01*
X95456950Y-87373000D01*
X96022100Y-87373000D01*
X96022100Y-86642750D01*
X96276100Y-86642750D01*
X96276100Y-87373000D01*
X96841250Y-87373000D01*
X96936500Y-87277750D01*
X96936500Y-86852715D01*
X96878496Y-86712681D01*
X96771320Y-86605504D01*
X96631286Y-86547500D01*
X96371350Y-86547500D01*
X96276100Y-86642750D01*
X96022100Y-86642750D01*
X95926850Y-86547500D01*
X95666914Y-86547500D01*
X95526880Y-86605504D01*
X95419704Y-86712681D01*
X95361700Y-86852715D01*
X95181000Y-86852715D01*
X95181000Y-83431000D01*
X140319000Y-83431000D01*
X140319000Y-98069000D01*
X140319000Y-98069000D01*
G37*
X140319000Y-98069000D02*
X130500000Y-98069000D01*
X130493464Y-98070300D01*
X130493464Y-97250000D01*
X130466897Y-97108810D01*
X130383454Y-96979135D01*
X130256134Y-96892141D01*
X130105000Y-96861536D01*
X128755000Y-96861536D01*
X128613810Y-96888103D01*
X128484135Y-96971546D01*
X128397141Y-97098866D01*
X128366536Y-97250000D01*
X128366536Y-100569000D01*
X127946000Y-100569000D01*
X127946000Y-99222250D01*
X127850750Y-99127000D01*
X127017000Y-99127000D01*
X127017000Y-99147000D01*
X126763000Y-99147000D01*
X126763000Y-99127000D01*
X125929250Y-99127000D01*
X125834000Y-99222250D01*
X125834000Y-100569000D01*
X125406000Y-100569000D01*
X125406000Y-99222250D01*
X125310750Y-99127000D01*
X124477000Y-99127000D01*
X124477000Y-99147000D01*
X124223000Y-99147000D01*
X124223000Y-99127000D01*
X123389250Y-99127000D01*
X123294000Y-99222250D01*
X123294000Y-100569000D01*
X122873464Y-100569000D01*
X122873464Y-97250000D01*
X122859204Y-97174215D01*
X123294000Y-97174215D01*
X123294000Y-98777750D01*
X123389250Y-98873000D01*
X124223000Y-98873000D01*
X124223000Y-96964250D01*
X124477000Y-96964250D01*
X124477000Y-98873000D01*
X125310750Y-98873000D01*
X125406000Y-98777750D01*
X125406000Y-97174215D01*
X125834000Y-97174215D01*
X125834000Y-98777750D01*
X125929250Y-98873000D01*
X126763000Y-98873000D01*
X126763000Y-96964250D01*
X127017000Y-96964250D01*
X127017000Y-98873000D01*
X127850750Y-98873000D01*
X127946000Y-98777750D01*
X127946000Y-97174215D01*
X127887996Y-97034181D01*
X127780820Y-96927004D01*
X127640786Y-96869000D01*
X127112250Y-96869000D01*
X127017000Y-96964250D01*
X126763000Y-96964250D01*
X126667750Y-96869000D01*
X126139214Y-96869000D01*
X125999180Y-96927004D01*
X125892004Y-97034181D01*
X125834000Y-97174215D01*
X125406000Y-97174215D01*
X125347996Y-97034181D01*
X125240820Y-96927004D01*
X125100786Y-96869000D01*
X124572250Y-96869000D01*
X124477000Y-96964250D01*
X124223000Y-96964250D01*
X124127750Y-96869000D01*
X123599214Y-96869000D01*
X123459180Y-96927004D01*
X123352004Y-97034181D01*
X123294000Y-97174215D01*
X122859204Y-97174215D01*
X122846897Y-97108810D01*
X122763454Y-96979135D01*
X122636134Y-96892141D01*
X122586359Y-96882061D01*
X122703210Y-96765211D01*
X130300199Y-96765211D01*
X131126111Y-97591123D01*
X131290918Y-97701244D01*
X131485321Y-97739913D01*
X136868087Y-97739913D01*
X137062490Y-97701244D01*
X137227297Y-97591123D01*
X138493013Y-96325407D01*
X138763482Y-96325643D01*
X139066998Y-96200233D01*
X139299417Y-95968219D01*
X139425357Y-95664923D01*
X139425643Y-95336518D01*
X139300233Y-95033002D01*
X139068219Y-94800583D01*
X138891300Y-94727120D01*
X138933911Y-94684509D01*
X139044032Y-94519702D01*
X139057399Y-94452500D01*
X139128650Y-94452500D01*
X139223900Y-94357250D01*
X139223900Y-93627000D01*
X139477900Y-93627000D01*
X139477900Y-94357250D01*
X139573150Y-94452500D01*
X139833086Y-94452500D01*
X139973120Y-94394496D01*
X140080296Y-94287319D01*
X140138300Y-94147285D01*
X140138300Y-93722250D01*
X140043050Y-93627000D01*
X139477900Y-93627000D01*
X139223900Y-93627000D01*
X139203900Y-93627000D01*
X139203900Y-93373000D01*
X139223900Y-93373000D01*
X139223900Y-92642750D01*
X139477900Y-92642750D01*
X139477900Y-93373000D01*
X140043050Y-93373000D01*
X140138300Y-93277750D01*
X140138300Y-92852715D01*
X140080296Y-92712681D01*
X139973120Y-92605504D01*
X139833086Y-92547500D01*
X139573150Y-92547500D01*
X139477900Y-92642750D01*
X139223900Y-92642750D01*
X139128650Y-92547500D01*
X139082701Y-92547500D01*
X139082701Y-92452500D01*
X139128650Y-92452500D01*
X139223900Y-92357250D01*
X139223900Y-91627000D01*
X139477900Y-91627000D01*
X139477900Y-92357250D01*
X139573150Y-92452500D01*
X139833086Y-92452500D01*
X139973120Y-92394496D01*
X140080296Y-92287319D01*
X140138300Y-92147285D01*
X140138300Y-91722250D01*
X140043050Y-91627000D01*
X139477900Y-91627000D01*
X139223900Y-91627000D01*
X139203900Y-91627000D01*
X139203900Y-91373000D01*
X139223900Y-91373000D01*
X139223900Y-90642750D01*
X139477900Y-90642750D01*
X139477900Y-91373000D01*
X140043050Y-91373000D01*
X140138300Y-91277750D01*
X140138300Y-90852715D01*
X140080296Y-90712681D01*
X139973120Y-90605504D01*
X139833086Y-90547500D01*
X139573150Y-90547500D01*
X139477900Y-90642750D01*
X139223900Y-90642750D01*
X139157785Y-90576635D01*
X139274456Y-90459964D01*
X139757300Y-90459964D01*
X139898490Y-90433397D01*
X140028165Y-90349954D01*
X140115159Y-90222634D01*
X140145764Y-90071500D01*
X140145764Y-88928500D01*
X140119197Y-88787310D01*
X140035754Y-88657635D01*
X139908434Y-88570641D01*
X139757300Y-88540036D01*
X138944500Y-88540036D01*
X138803310Y-88566603D01*
X138673635Y-88650046D01*
X138586641Y-88777366D01*
X138556036Y-88928500D01*
X138556036Y-89741544D01*
X138443964Y-89853616D01*
X138443964Y-88928500D01*
X138417397Y-88787310D01*
X138333954Y-88657635D01*
X138206634Y-88570641D01*
X138157100Y-88560610D01*
X138157100Y-88440846D01*
X138196690Y-88433397D01*
X138326365Y-88349954D01*
X138413359Y-88222634D01*
X138443964Y-88071500D01*
X138443964Y-87722250D01*
X138563500Y-87722250D01*
X138563500Y-88147285D01*
X138621504Y-88287319D01*
X138728680Y-88394496D01*
X138868714Y-88452500D01*
X139128650Y-88452500D01*
X139223900Y-88357250D01*
X139223900Y-87627000D01*
X139477900Y-87627000D01*
X139477900Y-88357250D01*
X139573150Y-88452500D01*
X139833086Y-88452500D01*
X139973120Y-88394496D01*
X140080296Y-88287319D01*
X140138300Y-88147285D01*
X140138300Y-87722250D01*
X140043050Y-87627000D01*
X139477900Y-87627000D01*
X139223900Y-87627000D01*
X138658750Y-87627000D01*
X138563500Y-87722250D01*
X138443964Y-87722250D01*
X138443964Y-86928500D01*
X138429704Y-86852715D01*
X138563500Y-86852715D01*
X138563500Y-87277750D01*
X138658750Y-87373000D01*
X139223900Y-87373000D01*
X139223900Y-86642750D01*
X139477900Y-86642750D01*
X139477900Y-87373000D01*
X140043050Y-87373000D01*
X140138300Y-87277750D01*
X140138300Y-86852715D01*
X140080296Y-86712681D01*
X139973120Y-86605504D01*
X139833086Y-86547500D01*
X139573150Y-86547500D01*
X139477900Y-86642750D01*
X139223900Y-86642750D01*
X139128650Y-86547500D01*
X138868714Y-86547500D01*
X138728680Y-86605504D01*
X138621504Y-86712681D01*
X138563500Y-86852715D01*
X138429704Y-86852715D01*
X138417397Y-86787310D01*
X138333954Y-86657635D01*
X138206634Y-86570641D01*
X138055500Y-86540036D01*
X137478384Y-86540036D01*
X137558456Y-86459964D01*
X138055500Y-86459964D01*
X138196690Y-86433397D01*
X138326365Y-86349954D01*
X138413359Y-86222634D01*
X138443964Y-86071500D01*
X138443964Y-85722250D01*
X138563500Y-85722250D01*
X138563500Y-86147285D01*
X138621504Y-86287319D01*
X138728680Y-86394496D01*
X138868714Y-86452500D01*
X139128650Y-86452500D01*
X139223900Y-86357250D01*
X139223900Y-85627000D01*
X139477900Y-85627000D01*
X139477900Y-86357250D01*
X139573150Y-86452500D01*
X139833086Y-86452500D01*
X139973120Y-86394496D01*
X140080296Y-86287319D01*
X140138300Y-86147285D01*
X140138300Y-85722250D01*
X140043050Y-85627000D01*
X139477900Y-85627000D01*
X139223900Y-85627000D01*
X138658750Y-85627000D01*
X138563500Y-85722250D01*
X138443964Y-85722250D01*
X138443964Y-84928500D01*
X138429704Y-84852715D01*
X138563500Y-84852715D01*
X138563500Y-85277750D01*
X138658750Y-85373000D01*
X139223900Y-85373000D01*
X139223900Y-84642750D01*
X139477900Y-84642750D01*
X139477900Y-85373000D01*
X140043050Y-85373000D01*
X140138300Y-85277750D01*
X140138300Y-84852715D01*
X140080296Y-84712681D01*
X139973120Y-84605504D01*
X139833086Y-84547500D01*
X139573150Y-84547500D01*
X139477900Y-84642750D01*
X139223900Y-84642750D01*
X139128650Y-84547500D01*
X138868714Y-84547500D01*
X138728680Y-84605504D01*
X138621504Y-84712681D01*
X138563500Y-84852715D01*
X138429704Y-84852715D01*
X138417397Y-84787310D01*
X138333954Y-84657635D01*
X138206634Y-84570641D01*
X138055500Y-84540036D01*
X137242700Y-84540036D01*
X137101510Y-84566603D01*
X136971835Y-84650046D01*
X136884841Y-84777366D01*
X136859174Y-84904117D01*
X136849374Y-84897421D01*
X136698240Y-84866816D01*
X134498600Y-84866816D01*
X134357410Y-84893383D01*
X134227735Y-84976826D01*
X134172216Y-85058081D01*
X134033522Y-85085669D01*
X133868715Y-85195790D01*
X133091463Y-85973042D01*
X132314210Y-85195790D01*
X132149403Y-85085669D01*
X131955000Y-85047000D01*
X131820126Y-85047000D01*
X131779854Y-84984415D01*
X131652534Y-84897421D01*
X131501400Y-84866816D01*
X129301760Y-84866816D01*
X129160570Y-84893383D01*
X129141469Y-84905674D01*
X129119197Y-84787310D01*
X129035754Y-84657635D01*
X128908434Y-84570641D01*
X128757300Y-84540036D01*
X127944500Y-84540036D01*
X127803310Y-84566603D01*
X127673635Y-84650046D01*
X127586641Y-84777366D01*
X127556036Y-84928500D01*
X127556036Y-86071500D01*
X127582603Y-86212690D01*
X127666046Y-86342365D01*
X127793366Y-86429359D01*
X127842900Y-86439390D01*
X127842900Y-86559154D01*
X127803310Y-86566603D01*
X127673635Y-86650046D01*
X127586641Y-86777366D01*
X127556036Y-86928500D01*
X127556036Y-88071500D01*
X127582603Y-88212690D01*
X127666046Y-88342365D01*
X127793366Y-88429359D01*
X127944500Y-88459964D01*
X128595301Y-88459964D01*
X128715136Y-88540036D01*
X127944500Y-88540036D01*
X127803310Y-88566603D01*
X127673635Y-88650046D01*
X127586641Y-88777366D01*
X127556036Y-88928500D01*
X127556036Y-90071500D01*
X127582603Y-90212690D01*
X127666046Y-90342365D01*
X127793366Y-90429359D01*
X127842900Y-90439390D01*
X127842900Y-90559154D01*
X127803310Y-90566603D01*
X127673635Y-90650046D01*
X127586641Y-90777366D01*
X127556036Y-90928500D01*
X127556036Y-92071500D01*
X127582603Y-92212690D01*
X127666046Y-92342365D01*
X127793366Y-92429359D01*
X127878496Y-92446598D01*
X127145535Y-92446598D01*
X127271320Y-92394496D01*
X127378496Y-92287319D01*
X127436500Y-92147285D01*
X127436500Y-91722250D01*
X127341250Y-91627000D01*
X126776100Y-91627000D01*
X126776100Y-91647000D01*
X126522100Y-91647000D01*
X126522100Y-91627000D01*
X125956950Y-91627000D01*
X125861700Y-91722250D01*
X125861700Y-92147285D01*
X125904362Y-92250280D01*
X125833002Y-92279765D01*
X125600583Y-92511779D01*
X125474643Y-92815075D01*
X125474357Y-93143480D01*
X125599767Y-93446996D01*
X125831781Y-93679415D01*
X125854236Y-93688739D01*
X125854236Y-93742000D01*
X125145764Y-93742000D01*
X125145764Y-93678500D01*
X125119197Y-93537310D01*
X125035754Y-93407635D01*
X124908434Y-93320641D01*
X124757300Y-93290036D01*
X123944500Y-93290036D01*
X123803310Y-93316603D01*
X123673635Y-93400046D01*
X123586641Y-93527366D01*
X123556036Y-93678500D01*
X123556036Y-94821500D01*
X123582603Y-94962690D01*
X123666046Y-95092365D01*
X123793366Y-95179359D01*
X123944500Y-95209964D01*
X124757300Y-95209964D01*
X124898490Y-95183397D01*
X125028165Y-95099954D01*
X125115159Y-94972634D01*
X125145764Y-94821500D01*
X125145764Y-94758000D01*
X125854236Y-94758000D01*
X125854236Y-94821500D01*
X125880803Y-94962690D01*
X125964246Y-95092365D01*
X126091566Y-95179359D01*
X126242700Y-95209964D01*
X127055500Y-95209964D01*
X127196690Y-95183397D01*
X127326365Y-95099954D01*
X127413359Y-94972634D01*
X127443964Y-94821500D01*
X127443964Y-93678500D01*
X127417397Y-93537310D01*
X127402010Y-93513398D01*
X127596185Y-93513398D01*
X127586641Y-93527366D01*
X127556036Y-93678500D01*
X127556036Y-94821500D01*
X127582603Y-94962690D01*
X127666046Y-95092365D01*
X127793366Y-95179359D01*
X127842900Y-95189390D01*
X127842900Y-95292000D01*
X120466000Y-95292000D01*
X120303850Y-95324254D01*
X120271596Y-95330669D01*
X120106789Y-95440790D01*
X118910790Y-96636790D01*
X118800669Y-96801597D01*
X118788746Y-96861536D01*
X118595000Y-96861536D01*
X118453810Y-96888103D01*
X118324135Y-96971546D01*
X118237141Y-97098866D01*
X118206536Y-97250000D01*
X118206536Y-100569000D01*
X117793464Y-100569000D01*
X117793464Y-97250000D01*
X117766897Y-97108810D01*
X117683454Y-96979135D01*
X117556134Y-96892141D01*
X117533400Y-96887537D01*
X117533400Y-92533947D01*
X117699417Y-92368219D01*
X117825357Y-92064923D01*
X117825643Y-91736518D01*
X117700233Y-91433002D01*
X117468219Y-91200583D01*
X117164923Y-91074643D01*
X116861583Y-91074379D01*
X116889864Y-90934720D01*
X116889864Y-90335280D01*
X116863297Y-90194090D01*
X116779854Y-90064415D01*
X116684791Y-89999461D01*
X116772265Y-89943174D01*
X116859259Y-89815854D01*
X116889864Y-89664720D01*
X116889864Y-89065280D01*
X116863297Y-88924090D01*
X116779854Y-88794415D01*
X116686328Y-88730511D01*
X116717219Y-88717716D01*
X116824396Y-88610540D01*
X116882400Y-88470506D01*
X116882400Y-88317250D01*
X116787150Y-88222000D01*
X115528580Y-88222000D01*
X115528580Y-88242000D01*
X115274580Y-88242000D01*
X115274580Y-88222000D01*
X115254580Y-88222000D01*
X115254580Y-87968000D01*
X115274580Y-87968000D01*
X115274580Y-87948000D01*
X115528580Y-87948000D01*
X115528580Y-87968000D01*
X116787150Y-87968000D01*
X116882400Y-87872750D01*
X116882400Y-87719494D01*
X116824396Y-87579460D01*
X116717219Y-87472284D01*
X116685367Y-87459091D01*
X116772265Y-87403174D01*
X116859259Y-87275854D01*
X116889864Y-87124720D01*
X116889864Y-86525280D01*
X116863297Y-86384090D01*
X116822010Y-86319928D01*
X116835085Y-86325357D01*
X117163490Y-86325643D01*
X117467006Y-86200233D01*
X117699425Y-85968219D01*
X117825365Y-85664923D01*
X117825366Y-85663482D01*
X118174357Y-85663482D01*
X118299767Y-85966998D01*
X118531781Y-86199417D01*
X118835077Y-86325357D01*
X119163482Y-86325643D01*
X119177973Y-86319656D01*
X119140741Y-86374146D01*
X119110136Y-86525280D01*
X119110136Y-87124720D01*
X119136703Y-87265910D01*
X119220146Y-87395585D01*
X119313672Y-87459489D01*
X119282781Y-87472284D01*
X119175604Y-87579460D01*
X119117600Y-87719494D01*
X119117600Y-87872750D01*
X119212850Y-87968000D01*
X120471420Y-87968000D01*
X120471420Y-87948000D01*
X120725420Y-87948000D01*
X120725420Y-87968000D01*
X120745420Y-87968000D01*
X120745420Y-88222000D01*
X120725420Y-88222000D01*
X120725420Y-88242000D01*
X120471420Y-88242000D01*
X120471420Y-88222000D01*
X119212850Y-88222000D01*
X119117600Y-88317250D01*
X119117600Y-88470506D01*
X119175604Y-88610540D01*
X119282781Y-88717716D01*
X119314633Y-88730909D01*
X119227735Y-88786826D01*
X119140741Y-88914146D01*
X119110136Y-89065280D01*
X119110136Y-89664720D01*
X119136703Y-89805910D01*
X119220146Y-89935585D01*
X119264874Y-89966147D01*
X119164923Y-89924643D01*
X118836518Y-89924357D01*
X118533002Y-90049767D01*
X118300583Y-90281781D01*
X118174643Y-90585077D01*
X118174357Y-90913482D01*
X118299767Y-91216998D01*
X118531781Y-91449417D01*
X118835077Y-91575357D01*
X119116146Y-91575602D01*
X119110136Y-91605280D01*
X119110136Y-92204720D01*
X119136703Y-92345910D01*
X119220146Y-92475585D01*
X119347466Y-92562579D01*
X119498600Y-92593184D01*
X120052474Y-92593184D01*
X119571097Y-93074561D01*
X119336518Y-93074357D01*
X119033002Y-93199767D01*
X118800583Y-93431781D01*
X118674643Y-93735077D01*
X118674357Y-94063482D01*
X118799767Y-94366998D01*
X119031781Y-94599417D01*
X119335077Y-94725357D01*
X119663482Y-94725643D01*
X119966998Y-94600233D01*
X120199417Y-94368219D01*
X120325357Y-94064923D01*
X120325563Y-93828779D01*
X120975591Y-93178751D01*
X121091217Y-93005703D01*
X121131820Y-92801580D01*
X121131820Y-92593184D01*
X121698240Y-92593184D01*
X121839430Y-92566617D01*
X121846477Y-92562082D01*
X121774643Y-92735077D01*
X121774357Y-93063482D01*
X121899767Y-93366998D01*
X121955956Y-93423285D01*
X121884841Y-93527366D01*
X121854236Y-93678500D01*
X121854236Y-94821500D01*
X121880803Y-94962690D01*
X121964246Y-95092365D01*
X122091566Y-95179359D01*
X122242700Y-95209964D01*
X123055500Y-95209964D01*
X123196690Y-95183397D01*
X123326365Y-95099954D01*
X123413359Y-94972634D01*
X123443964Y-94821500D01*
X123443964Y-93678500D01*
X123417397Y-93537310D01*
X123336699Y-93411901D01*
X123432740Y-93392797D01*
X123605788Y-93277171D01*
X123915270Y-92967689D01*
X124030896Y-92794641D01*
X124071500Y-92590518D01*
X124071499Y-92590513D01*
X124071499Y-92452500D01*
X124128650Y-92452500D01*
X124223900Y-92357250D01*
X124223900Y-91627000D01*
X124477900Y-91627000D01*
X124477900Y-92357250D01*
X124573150Y-92452500D01*
X124833086Y-92452500D01*
X124973120Y-92394496D01*
X125080296Y-92287319D01*
X125138300Y-92147285D01*
X125138300Y-91722250D01*
X125043050Y-91627000D01*
X124477900Y-91627000D01*
X124223900Y-91627000D01*
X124203900Y-91627000D01*
X124203900Y-91373000D01*
X124223900Y-91373000D01*
X124223900Y-91353000D01*
X124477900Y-91353000D01*
X124477900Y-91373000D01*
X125043050Y-91373000D01*
X125138300Y-91277750D01*
X125138300Y-91044384D01*
X125286544Y-91014896D01*
X125459592Y-90899270D01*
X125506147Y-90852715D01*
X125861700Y-90852715D01*
X125861700Y-91277750D01*
X125956950Y-91373000D01*
X126522100Y-91373000D01*
X126522100Y-90642750D01*
X126776100Y-90642750D01*
X126776100Y-91373000D01*
X127341250Y-91373000D01*
X127436500Y-91277750D01*
X127436500Y-90852715D01*
X127378496Y-90712681D01*
X127271320Y-90605504D01*
X127131286Y-90547500D01*
X126871350Y-90547500D01*
X126776100Y-90642750D01*
X126522100Y-90642750D01*
X126426850Y-90547500D01*
X126166914Y-90547500D01*
X126026880Y-90605504D01*
X125919704Y-90712681D01*
X125861700Y-90852715D01*
X125506147Y-90852715D01*
X125877169Y-90481693D01*
X125968378Y-90345188D01*
X126091566Y-90429359D01*
X126242700Y-90459964D01*
X127055500Y-90459964D01*
X127196690Y-90433397D01*
X127326365Y-90349954D01*
X127413359Y-90222634D01*
X127443964Y-90071500D01*
X127443964Y-88928500D01*
X127417397Y-88787310D01*
X127333954Y-88657635D01*
X127206634Y-88570641D01*
X127055500Y-88540036D01*
X126242700Y-88540036D01*
X126101510Y-88566603D01*
X126033400Y-88610430D01*
X126033400Y-88397197D01*
X126166914Y-88452500D01*
X126426850Y-88452500D01*
X126522100Y-88357250D01*
X126522100Y-87627000D01*
X126776100Y-87627000D01*
X126776100Y-88357250D01*
X126871350Y-88452500D01*
X127131286Y-88452500D01*
X127271320Y-88394496D01*
X127378496Y-88287319D01*
X127436500Y-88147285D01*
X127436500Y-87722250D01*
X127341250Y-87627000D01*
X126776100Y-87627000D01*
X126522100Y-87627000D01*
X125956950Y-87627000D01*
X125935670Y-87648280D01*
X125877171Y-87560729D01*
X125439271Y-87122829D01*
X125266223Y-87007203D01*
X125145764Y-86983242D01*
X125145764Y-86928500D01*
X125131504Y-86852715D01*
X125861700Y-86852715D01*
X125861700Y-87277750D01*
X125956950Y-87373000D01*
X126522100Y-87373000D01*
X126522100Y-86642750D01*
X126776100Y-86642750D01*
X126776100Y-87373000D01*
X127341250Y-87373000D01*
X127436500Y-87277750D01*
X127436500Y-86852715D01*
X127378496Y-86712681D01*
X127271320Y-86605504D01*
X127131286Y-86547500D01*
X126871350Y-86547500D01*
X126776100Y-86642750D01*
X126522100Y-86642750D01*
X126426850Y-86547500D01*
X126166914Y-86547500D01*
X126026880Y-86605504D01*
X125919704Y-86712681D01*
X125861700Y-86852715D01*
X125131504Y-86852715D01*
X125119197Y-86787310D01*
X125035754Y-86657635D01*
X124908434Y-86570641D01*
X124757300Y-86540036D01*
X123944500Y-86540036D01*
X123803310Y-86566603D01*
X123673635Y-86650046D01*
X123586641Y-86777366D01*
X123556036Y-86928500D01*
X123556036Y-88071500D01*
X123582603Y-88212690D01*
X123666046Y-88342365D01*
X123793366Y-88429359D01*
X123944500Y-88459964D01*
X124757300Y-88459964D01*
X124898490Y-88433397D01*
X124966600Y-88389570D01*
X124966600Y-88610384D01*
X124908434Y-88570641D01*
X124757300Y-88540036D01*
X123944500Y-88540036D01*
X123803310Y-88566603D01*
X123673635Y-88650046D01*
X123586641Y-88777366D01*
X123572831Y-88845565D01*
X123539730Y-88845536D01*
X123436388Y-88888236D01*
X123417397Y-88787310D01*
X123333954Y-88657635D01*
X123206634Y-88570641D01*
X123157100Y-88560610D01*
X123157100Y-88440846D01*
X123196690Y-88433397D01*
X123326365Y-88349954D01*
X123413359Y-88222634D01*
X123443964Y-88071500D01*
X123443964Y-86928500D01*
X123417397Y-86787310D01*
X123333954Y-86657635D01*
X123206634Y-86570641D01*
X123157100Y-86560610D01*
X123157100Y-86440846D01*
X123196690Y-86433397D01*
X123326365Y-86349954D01*
X123413359Y-86222634D01*
X123443964Y-86071500D01*
X123443964Y-85722250D01*
X123563500Y-85722250D01*
X123563500Y-86147285D01*
X123621504Y-86287319D01*
X123728680Y-86394496D01*
X123868714Y-86452500D01*
X124128650Y-86452500D01*
X124223900Y-86357250D01*
X124223900Y-85627000D01*
X124477900Y-85627000D01*
X124477900Y-86357250D01*
X124573150Y-86452500D01*
X124833086Y-86452500D01*
X124973120Y-86394496D01*
X125080296Y-86287319D01*
X125138300Y-86147285D01*
X125138300Y-85722250D01*
X125043050Y-85627000D01*
X124477900Y-85627000D01*
X124223900Y-85627000D01*
X123658750Y-85627000D01*
X123563500Y-85722250D01*
X123443964Y-85722250D01*
X123443964Y-84928500D01*
X123429704Y-84852715D01*
X123563500Y-84852715D01*
X123563500Y-85277750D01*
X123658750Y-85373000D01*
X124223900Y-85373000D01*
X124223900Y-84642750D01*
X124477900Y-84642750D01*
X124477900Y-85373000D01*
X125043050Y-85373000D01*
X125138300Y-85277750D01*
X125138300Y-84852715D01*
X125080296Y-84712681D01*
X124973120Y-84605504D01*
X124833086Y-84547500D01*
X124573150Y-84547500D01*
X124477900Y-84642750D01*
X124223900Y-84642750D01*
X124128650Y-84547500D01*
X123868714Y-84547500D01*
X123728680Y-84605504D01*
X123621504Y-84712681D01*
X123563500Y-84852715D01*
X123429704Y-84852715D01*
X123417397Y-84787310D01*
X123333954Y-84657635D01*
X123206634Y-84570641D01*
X123055500Y-84540036D01*
X122242700Y-84540036D01*
X122101510Y-84566603D01*
X121971835Y-84650046D01*
X121884841Y-84777366D01*
X121859174Y-84904117D01*
X121849374Y-84897421D01*
X121698240Y-84866816D01*
X119534337Y-84866816D01*
X119468219Y-84800583D01*
X119164923Y-84674643D01*
X118836518Y-84674357D01*
X118533002Y-84799767D01*
X118300583Y-85031781D01*
X118174643Y-85335077D01*
X118174357Y-85663482D01*
X117825366Y-85663482D01*
X117825651Y-85336518D01*
X117700241Y-85033002D01*
X117468227Y-84800583D01*
X117164931Y-84674643D01*
X116836526Y-84674357D01*
X116533010Y-84799767D01*
X116465844Y-84866816D01*
X114301760Y-84866816D01*
X114160570Y-84893383D01*
X114141469Y-84905674D01*
X114119197Y-84787310D01*
X114035754Y-84657635D01*
X113908434Y-84570641D01*
X113757300Y-84540036D01*
X112944500Y-84540036D01*
X112803310Y-84566603D01*
X112673635Y-84650046D01*
X112586641Y-84777366D01*
X112556036Y-84928500D01*
X112556036Y-86071500D01*
X112582603Y-86212690D01*
X112666046Y-86342365D01*
X112793366Y-86429359D01*
X112842900Y-86439390D01*
X112842900Y-86559154D01*
X112803310Y-86566603D01*
X112673635Y-86650046D01*
X112586641Y-86777366D01*
X112556036Y-86928500D01*
X112556036Y-88071500D01*
X112582603Y-88212690D01*
X112666046Y-88342365D01*
X112793366Y-88429359D01*
X112842900Y-88439390D01*
X112842900Y-88559154D01*
X112803310Y-88566603D01*
X112673635Y-88650046D01*
X112586641Y-88777366D01*
X112556036Y-88928500D01*
X112556036Y-89105260D01*
X112444403Y-89030669D01*
X112443964Y-89030582D01*
X112443964Y-88928500D01*
X112417397Y-88787310D01*
X112333954Y-88657635D01*
X112206634Y-88570641D01*
X112055500Y-88540036D01*
X111492584Y-88540036D01*
X111572656Y-88459964D01*
X112055500Y-88459964D01*
X112196690Y-88433397D01*
X112326365Y-88349954D01*
X112413359Y-88222634D01*
X112443964Y-88071500D01*
X112443964Y-86928500D01*
X112417397Y-86787310D01*
X112333954Y-86657635D01*
X112206634Y-86570641D01*
X112055500Y-86540036D01*
X111242700Y-86540036D01*
X111101510Y-86566603D01*
X110971835Y-86650046D01*
X110884841Y-86777366D01*
X110878100Y-86810656D01*
X110768219Y-86700583D01*
X110464923Y-86574643D01*
X110136518Y-86574357D01*
X109997774Y-86631685D01*
X109908434Y-86570641D01*
X109757300Y-86540036D01*
X108944500Y-86540036D01*
X108803310Y-86566603D01*
X108673635Y-86650046D01*
X108586641Y-86777366D01*
X108556036Y-86928500D01*
X108556036Y-88071500D01*
X108582603Y-88212690D01*
X108666046Y-88342365D01*
X108793366Y-88429359D01*
X108944500Y-88459964D01*
X109757300Y-88459964D01*
X109898490Y-88433397D01*
X110028165Y-88349954D01*
X110115159Y-88222634D01*
X110116195Y-88217517D01*
X110135077Y-88225357D01*
X110370218Y-88225562D01*
X110274513Y-88321267D01*
X110164392Y-88486074D01*
X110125723Y-88680477D01*
X110125723Y-88821992D01*
X110119197Y-88787310D01*
X110035754Y-88657635D01*
X109908434Y-88570641D01*
X109757300Y-88540036D01*
X108944500Y-88540036D01*
X108803310Y-88566603D01*
X108673635Y-88650046D01*
X108586641Y-88777366D01*
X108556036Y-88928500D01*
X108556036Y-90071500D01*
X108582603Y-90212690D01*
X108666046Y-90342365D01*
X108793366Y-90429359D01*
X108944500Y-90459964D01*
X109757300Y-90459964D01*
X109850072Y-90442508D01*
X109808366Y-90542947D01*
X109808362Y-90547500D01*
X109573150Y-90547500D01*
X109477900Y-90642750D01*
X109477900Y-91373000D01*
X110043050Y-91373000D01*
X110087202Y-91328848D01*
X110165504Y-91407287D01*
X110468800Y-91533227D01*
X110797205Y-91533513D01*
X110861700Y-91506864D01*
X110861700Y-91627002D01*
X110956948Y-91627002D01*
X110861700Y-91722250D01*
X110861700Y-91924597D01*
X110586518Y-91924357D01*
X110283002Y-92049767D01*
X110105155Y-92227304D01*
X110138300Y-92147285D01*
X110138300Y-91722250D01*
X110043050Y-91627000D01*
X109477900Y-91627000D01*
X109477900Y-92357250D01*
X109573150Y-92452500D01*
X109833086Y-92452500D01*
X109973120Y-92394496D01*
X110025551Y-92342065D01*
X109924643Y-92585077D01*
X109924357Y-92913482D01*
X110049767Y-93216998D01*
X110281781Y-93449417D01*
X110585077Y-93575357D01*
X110913482Y-93575643D01*
X111216998Y-93450233D01*
X111409567Y-93258000D01*
X111971362Y-93258000D01*
X112165765Y-93219331D01*
X112330572Y-93109210D01*
X112633401Y-92806381D01*
X112699767Y-92966998D01*
X112931781Y-93199417D01*
X113235077Y-93325357D01*
X113563482Y-93325643D01*
X113866998Y-93200233D01*
X114099417Y-92968219D01*
X114225357Y-92664923D01*
X114225433Y-92577728D01*
X114301760Y-92593184D01*
X116466600Y-92593184D01*
X116466600Y-96861536D01*
X116055000Y-96861536D01*
X115913810Y-96888103D01*
X115784135Y-96971546D01*
X115697141Y-97098866D01*
X115666536Y-97250000D01*
X115666536Y-100569000D01*
X115253464Y-100569000D01*
X115253464Y-97250000D01*
X115226897Y-97108810D01*
X115143454Y-96979135D01*
X115016134Y-96892141D01*
X114865000Y-96861536D01*
X114706759Y-96861536D01*
X114682797Y-96741077D01*
X114671328Y-96723913D01*
X114567171Y-96568029D01*
X114567168Y-96568027D01*
X113921971Y-95922829D01*
X113748923Y-95807203D01*
X113544800Y-95766600D01*
X106920942Y-95766600D01*
X106333400Y-95179058D01*
X106333400Y-92711100D01*
X106309945Y-92593184D01*
X106698240Y-92593184D01*
X106839430Y-92566617D01*
X106969105Y-92483174D01*
X107033148Y-92389444D01*
X107091566Y-92429359D01*
X107242700Y-92459964D01*
X108055500Y-92459964D01*
X108196690Y-92433397D01*
X108326365Y-92349954D01*
X108413359Y-92222634D01*
X108443964Y-92071500D01*
X108443964Y-91722250D01*
X108563500Y-91722250D01*
X108563500Y-92147285D01*
X108621504Y-92287319D01*
X108728680Y-92394496D01*
X108868714Y-92452500D01*
X109128650Y-92452500D01*
X109223900Y-92357250D01*
X109223900Y-91627000D01*
X108658750Y-91627000D01*
X108563500Y-91722250D01*
X108443964Y-91722250D01*
X108443964Y-90928500D01*
X108429704Y-90852715D01*
X108563500Y-90852715D01*
X108563500Y-91277750D01*
X108658750Y-91373000D01*
X109223900Y-91373000D01*
X109223900Y-90642750D01*
X109128650Y-90547500D01*
X108868714Y-90547500D01*
X108728680Y-90605504D01*
X108621504Y-90712681D01*
X108563500Y-90852715D01*
X108429704Y-90852715D01*
X108417397Y-90787310D01*
X108333954Y-90657635D01*
X108206634Y-90570641D01*
X108055500Y-90540036D01*
X107572656Y-90540036D01*
X107492584Y-90459964D01*
X108055500Y-90459964D01*
X108196690Y-90433397D01*
X108326365Y-90349954D01*
X108413359Y-90222634D01*
X108443964Y-90071500D01*
X108443964Y-88928500D01*
X108417397Y-88787310D01*
X108333954Y-88657635D01*
X108206634Y-88570641D01*
X108157100Y-88560610D01*
X108157100Y-88440846D01*
X108196690Y-88433397D01*
X108326365Y-88349954D01*
X108413359Y-88222634D01*
X108443964Y-88071500D01*
X108443964Y-86928500D01*
X108417397Y-86787310D01*
X108333954Y-86657635D01*
X108206634Y-86570641D01*
X108157100Y-86560610D01*
X108157100Y-86440846D01*
X108196690Y-86433397D01*
X108326365Y-86349954D01*
X108413359Y-86222634D01*
X108443964Y-86071500D01*
X108443964Y-85722250D01*
X108563500Y-85722250D01*
X108563500Y-86147285D01*
X108621504Y-86287319D01*
X108728680Y-86394496D01*
X108868714Y-86452500D01*
X109128650Y-86452500D01*
X109223900Y-86357250D01*
X109223900Y-85627000D01*
X109477900Y-85627000D01*
X109477900Y-86357250D01*
X109573150Y-86452500D01*
X109833086Y-86452500D01*
X109973120Y-86394496D01*
X110080296Y-86287319D01*
X110138300Y-86147285D01*
X110138300Y-85722250D01*
X110861700Y-85722250D01*
X110861700Y-86147285D01*
X110919704Y-86287319D01*
X111026880Y-86394496D01*
X111166914Y-86452500D01*
X111426850Y-86452500D01*
X111522100Y-86357250D01*
X111522100Y-85627000D01*
X111776100Y-85627000D01*
X111776100Y-86357250D01*
X111871350Y-86452500D01*
X112131286Y-86452500D01*
X112271320Y-86394496D01*
X112378496Y-86287319D01*
X112436500Y-86147285D01*
X112436500Y-85722250D01*
X112341250Y-85627000D01*
X111776100Y-85627000D01*
X111522100Y-85627000D01*
X110956950Y-85627000D01*
X110861700Y-85722250D01*
X110138300Y-85722250D01*
X110043050Y-85627000D01*
X109477900Y-85627000D01*
X109223900Y-85627000D01*
X108658750Y-85627000D01*
X108563500Y-85722250D01*
X108443964Y-85722250D01*
X108443964Y-84928500D01*
X108429704Y-84852715D01*
X108563500Y-84852715D01*
X108563500Y-85277750D01*
X108658750Y-85373000D01*
X109223900Y-85373000D01*
X109223900Y-84642750D01*
X109477900Y-84642750D01*
X109477900Y-85373000D01*
X110043050Y-85373000D01*
X110138300Y-85277750D01*
X110138300Y-84852715D01*
X110861700Y-84852715D01*
X110861700Y-85277750D01*
X110956950Y-85373000D01*
X111522100Y-85373000D01*
X111522100Y-84642750D01*
X111776100Y-84642750D01*
X111776100Y-85373000D01*
X112341250Y-85373000D01*
X112436500Y-85277750D01*
X112436500Y-84852715D01*
X112378496Y-84712681D01*
X112271320Y-84605504D01*
X112131286Y-84547500D01*
X111871350Y-84547500D01*
X111776100Y-84642750D01*
X111522100Y-84642750D01*
X111426850Y-84547500D01*
X111166914Y-84547500D01*
X111026880Y-84605504D01*
X110919704Y-84712681D01*
X110861700Y-84852715D01*
X110138300Y-84852715D01*
X110080296Y-84712681D01*
X109973120Y-84605504D01*
X109833086Y-84547500D01*
X109573150Y-84547500D01*
X109477900Y-84642750D01*
X109223900Y-84642750D01*
X109128650Y-84547500D01*
X108868714Y-84547500D01*
X108728680Y-84605504D01*
X108621504Y-84712681D01*
X108563500Y-84852715D01*
X108429704Y-84852715D01*
X108417397Y-84787310D01*
X108333954Y-84657635D01*
X108206634Y-84570641D01*
X108055500Y-84540036D01*
X107242700Y-84540036D01*
X107101510Y-84566603D01*
X106971835Y-84650046D01*
X106884841Y-84777366D01*
X106859174Y-84904117D01*
X106849374Y-84897421D01*
X106698240Y-84866816D01*
X104637819Y-84866816D01*
X104415843Y-84774643D01*
X104087438Y-84774357D01*
X103933400Y-84838004D01*
X103933400Y-84720942D01*
X104120942Y-84533400D01*
X125779058Y-84533400D01*
X125940932Y-84695274D01*
X125884841Y-84777366D01*
X125854236Y-84928500D01*
X125854236Y-86071500D01*
X125880803Y-86212690D01*
X125964246Y-86342365D01*
X126091566Y-86429359D01*
X126242700Y-86459964D01*
X127055500Y-86459964D01*
X127196690Y-86433397D01*
X127326365Y-86349954D01*
X127413359Y-86222634D01*
X127443964Y-86071500D01*
X127443964Y-84928500D01*
X127417397Y-84787310D01*
X127333954Y-84657635D01*
X127206634Y-84570641D01*
X127165225Y-84562256D01*
X127141897Y-84444977D01*
X127026271Y-84271929D01*
X126377171Y-83622829D01*
X126204123Y-83507203D01*
X126000000Y-83466600D01*
X103900000Y-83466600D01*
X103695877Y-83507203D01*
X103522829Y-83622829D01*
X103022829Y-84122829D01*
X102907203Y-84295877D01*
X102866600Y-84500000D01*
X102866600Y-90438392D01*
X102571927Y-90733065D01*
X102456301Y-90906113D01*
X102415698Y-91110236D01*
X102415698Y-91278778D01*
X102164915Y-91174643D01*
X101836510Y-91174357D01*
X101783948Y-91196075D01*
X101859259Y-91085854D01*
X101889864Y-90934720D01*
X101889864Y-90335280D01*
X101863297Y-90194090D01*
X101779854Y-90064415D01*
X101684791Y-89999461D01*
X101772265Y-89943174D01*
X101859259Y-89815854D01*
X101889864Y-89664720D01*
X101889864Y-89065280D01*
X101863297Y-88924090D01*
X101779854Y-88794415D01*
X101686328Y-88730511D01*
X101717219Y-88717716D01*
X101824396Y-88610540D01*
X101882400Y-88470506D01*
X101882400Y-88317250D01*
X101787150Y-88222000D01*
X100528580Y-88222000D01*
X100528580Y-88242000D01*
X100274580Y-88242000D01*
X100274580Y-88222000D01*
X99016010Y-88222000D01*
X98920760Y-88317250D01*
X98920760Y-88470506D01*
X98978764Y-88610540D01*
X99085941Y-88717716D01*
X99117793Y-88730909D01*
X99030895Y-88786826D01*
X98982947Y-88857000D01*
X98632310Y-88857000D01*
X98619197Y-88787310D01*
X98535754Y-88657635D01*
X98408434Y-88570641D01*
X98358900Y-88560610D01*
X98358900Y-88440846D01*
X98398490Y-88433397D01*
X98528165Y-88349954D01*
X98615159Y-88222634D01*
X98645764Y-88071500D01*
X98645764Y-86928500D01*
X98619197Y-86787310D01*
X98535754Y-86657635D01*
X98408434Y-86570641D01*
X98358900Y-86560610D01*
X98358900Y-86440846D01*
X98398490Y-86433397D01*
X98528165Y-86349954D01*
X98615159Y-86222634D01*
X98645764Y-86071500D01*
X98645764Y-85255280D01*
X98913296Y-85255280D01*
X98913296Y-85854720D01*
X98939863Y-85995910D01*
X99023306Y-86125585D01*
X99118369Y-86190539D01*
X99030895Y-86246826D01*
X98943901Y-86374146D01*
X98913296Y-86525280D01*
X98913296Y-87124720D01*
X98939863Y-87265910D01*
X99023306Y-87395585D01*
X99116832Y-87459489D01*
X99085941Y-87472284D01*
X98978764Y-87579460D01*
X98920760Y-87719494D01*
X98920760Y-87872750D01*
X99016010Y-87968000D01*
X100274580Y-87968000D01*
X100274580Y-87948000D01*
X100528580Y-87948000D01*
X100528580Y-87968000D01*
X101787150Y-87968000D01*
X101882400Y-87872750D01*
X101882400Y-87719494D01*
X101824396Y-87579460D01*
X101717219Y-87472284D01*
X101685367Y-87459091D01*
X101772265Y-87403174D01*
X101859259Y-87275854D01*
X101889864Y-87124720D01*
X101889864Y-86525280D01*
X101871084Y-86425475D01*
X102063482Y-86425643D01*
X102366998Y-86300233D01*
X102599417Y-86068219D01*
X102725357Y-85764923D01*
X102725643Y-85436518D01*
X102600233Y-85133002D01*
X102368219Y-84900583D01*
X102064923Y-84774643D01*
X101736518Y-84774357D01*
X101509017Y-84868358D01*
X101501400Y-84866816D01*
X99301760Y-84866816D01*
X99160570Y-84893383D01*
X99030895Y-84976826D01*
X98943901Y-85104146D01*
X98913296Y-85255280D01*
X98645764Y-85255280D01*
X98645764Y-84928500D01*
X98619197Y-84787310D01*
X98592053Y-84745127D01*
X98625357Y-84664923D01*
X98625643Y-84336518D01*
X98500233Y-84033002D01*
X98268219Y-83800583D01*
X97964923Y-83674643D01*
X97636518Y-83674357D01*
X97333002Y-83799767D01*
X97100583Y-84031781D01*
X96999906Y-84274238D01*
X96900229Y-84033002D01*
X96668215Y-83800583D01*
X96364919Y-83674643D01*
X96036514Y-83674357D01*
X95732998Y-83799767D01*
X95500579Y-84031781D01*
X95374639Y-84335077D01*
X95374353Y-84663482D01*
X95407629Y-84744015D01*
X95384841Y-84777366D01*
X95354236Y-84928500D01*
X95354236Y-86071500D01*
X95380803Y-86212690D01*
X95464246Y-86342365D01*
X95591566Y-86429359D01*
X95742700Y-86459964D01*
X96555500Y-86459964D01*
X96696690Y-86433397D01*
X96826365Y-86349954D01*
X96913359Y-86222634D01*
X96943964Y-86071500D01*
X96943964Y-84928500D01*
X96935214Y-84882000D01*
X97000090Y-84725762D01*
X97065187Y-84883309D01*
X97056036Y-84928500D01*
X97056036Y-86071500D01*
X97082603Y-86212690D01*
X97166046Y-86342365D01*
X97293366Y-86429359D01*
X97342900Y-86439390D01*
X97342900Y-86559154D01*
X97303310Y-86566603D01*
X97173635Y-86650046D01*
X97086641Y-86777366D01*
X97056036Y-86928500D01*
X97056036Y-88071500D01*
X97082603Y-88212690D01*
X97166046Y-88342365D01*
X97293366Y-88429359D01*
X97342900Y-88439390D01*
X97342900Y-88559154D01*
X97303310Y-88566603D01*
X97173635Y-88650046D01*
X97086641Y-88777366D01*
X97056036Y-88928500D01*
X97056036Y-89201694D01*
X96977171Y-89122829D01*
X96943964Y-89100641D01*
X96943964Y-88928500D01*
X96917397Y-88787310D01*
X96833954Y-88657635D01*
X96706634Y-88570641D01*
X96555500Y-88540036D01*
X95742700Y-88540036D01*
X95601510Y-88566603D01*
X95471835Y-88650046D01*
X95384841Y-88777366D01*
X95354236Y-88928500D01*
X95354236Y-90071500D01*
X95380803Y-90212690D01*
X95464246Y-90342365D01*
X95591566Y-90429359D01*
X95742700Y-90459964D01*
X96504699Y-90459964D01*
X96504699Y-90547500D01*
X96371350Y-90547500D01*
X96276100Y-90642750D01*
X96276100Y-91373000D01*
X96296100Y-91373000D01*
X96296100Y-91627000D01*
X96276100Y-91627000D01*
X96276100Y-92357250D01*
X96371350Y-92452500D01*
X96504699Y-92452500D01*
X96504699Y-92540036D01*
X95742700Y-92540036D01*
X95601510Y-92566603D01*
X95471835Y-92650046D01*
X95384841Y-92777366D01*
X95354236Y-92928500D01*
X95354236Y-94071500D01*
X95380803Y-94212690D01*
X95464246Y-94342365D01*
X95591566Y-94429359D01*
X95742700Y-94459964D01*
X96504699Y-94459964D01*
X96504699Y-94547500D01*
X96371350Y-94547500D01*
X96276100Y-94642750D01*
X96276100Y-95373000D01*
X96296100Y-95373000D01*
X96296100Y-95627000D01*
X96276100Y-95627000D01*
X96276100Y-96357250D01*
X96371350Y-96452500D01*
X96504699Y-96452500D01*
X96504699Y-96538099D01*
X96545302Y-96742222D01*
X96660928Y-96915270D01*
X97622827Y-97877168D01*
X97622829Y-97877171D01*
X97694411Y-97925000D01*
X97795876Y-97992797D01*
X98000000Y-98033400D01*
X105506536Y-98033400D01*
X105506536Y-98070300D01*
X105500000Y-98069000D01*
X95181000Y-98069000D01*
X95181000Y-95722250D01*
X95361700Y-95722250D01*
X95361700Y-96147285D01*
X95419704Y-96287319D01*
X95526880Y-96394496D01*
X95666914Y-96452500D01*
X95926850Y-96452500D01*
X96022100Y-96357250D01*
X96022100Y-95627000D01*
X95456950Y-95627000D01*
X95361700Y-95722250D01*
X95181000Y-95722250D01*
X95181000Y-94852715D01*
X95361700Y-94852715D01*
X95361700Y-95277750D01*
X95456950Y-95373000D01*
X96022100Y-95373000D01*
X96022100Y-94642750D01*
X95926850Y-94547500D01*
X95666914Y-94547500D01*
X95526880Y-94605504D01*
X95419704Y-94712681D01*
X95361700Y-94852715D01*
X95181000Y-94852715D01*
X95181000Y-91722250D01*
X95361700Y-91722250D01*
X95361700Y-92147285D01*
X95419704Y-92287319D01*
X95526880Y-92394496D01*
X95666914Y-92452500D01*
X95926850Y-92452500D01*
X96022100Y-92357250D01*
X96022100Y-91627000D01*
X95456950Y-91627000D01*
X95361700Y-91722250D01*
X95181000Y-91722250D01*
X95181000Y-90852715D01*
X95361700Y-90852715D01*
X95361700Y-91277750D01*
X95456950Y-91373000D01*
X96022100Y-91373000D01*
X96022100Y-90642750D01*
X95926850Y-90547500D01*
X95666914Y-90547500D01*
X95526880Y-90605504D01*
X95419704Y-90712681D01*
X95361700Y-90852715D01*
X95181000Y-90852715D01*
X95181000Y-87722250D01*
X95361700Y-87722250D01*
X95361700Y-88147285D01*
X95419704Y-88287319D01*
X95526880Y-88394496D01*
X95666914Y-88452500D01*
X95926850Y-88452500D01*
X96022100Y-88357250D01*
X96022100Y-87627000D01*
X96276100Y-87627000D01*
X96276100Y-88357250D01*
X96371350Y-88452500D01*
X96631286Y-88452500D01*
X96771320Y-88394496D01*
X96878496Y-88287319D01*
X96936500Y-88147285D01*
X96936500Y-87722250D01*
X96841250Y-87627000D01*
X96276100Y-87627000D01*
X96022100Y-87627000D01*
X95456950Y-87627000D01*
X95361700Y-87722250D01*
X95181000Y-87722250D01*
X95181000Y-86852715D01*
X95361700Y-86852715D01*
X95361700Y-87277750D01*
X95456950Y-87373000D01*
X96022100Y-87373000D01*
X96022100Y-86642750D01*
X96276100Y-86642750D01*
X96276100Y-87373000D01*
X96841250Y-87373000D01*
X96936500Y-87277750D01*
X96936500Y-86852715D01*
X96878496Y-86712681D01*
X96771320Y-86605504D01*
X96631286Y-86547500D01*
X96371350Y-86547500D01*
X96276100Y-86642750D01*
X96022100Y-86642750D01*
X95926850Y-86547500D01*
X95666914Y-86547500D01*
X95526880Y-86605504D01*
X95419704Y-86712681D01*
X95361700Y-86852715D01*
X95181000Y-86852715D01*
X95181000Y-83431000D01*
X140319000Y-83431000D01*
X140319000Y-98069000D01*
G36*
X104498600Y-92593184D02*
X105081662Y-92593184D01*
X105105623Y-92713643D01*
X105221249Y-92886691D01*
X105266600Y-92932042D01*
X105266600Y-95400000D01*
X105307203Y-95604123D01*
X105422829Y-95777171D01*
X106322829Y-96677171D01*
X106495877Y-96792797D01*
X106700000Y-96833400D01*
X113323858Y-96833400D01*
X113377809Y-96887351D01*
X113373810Y-96888103D01*
X113244135Y-96971546D01*
X113157141Y-97098866D01*
X113126536Y-97250000D01*
X113126536Y-100569000D01*
X112713464Y-100569000D01*
X112713464Y-97250000D01*
X112686897Y-97108810D01*
X112603454Y-96979135D01*
X112476134Y-96892141D01*
X112325000Y-96861536D01*
X110975000Y-96861536D01*
X110833810Y-96888103D01*
X110704135Y-96971546D01*
X110617141Y-97098866D01*
X110586536Y-97250000D01*
X110586536Y-100569000D01*
X110173464Y-100569000D01*
X110173464Y-97250000D01*
X110146897Y-97108810D01*
X110063454Y-96979135D01*
X109936134Y-96892141D01*
X109785000Y-96861536D01*
X108435000Y-96861536D01*
X108293810Y-96888103D01*
X108164135Y-96971546D01*
X108077141Y-97098866D01*
X108046536Y-97250000D01*
X108046536Y-100569000D01*
X107633464Y-100569000D01*
X107633464Y-97250000D01*
X107606897Y-97108810D01*
X107523454Y-96979135D01*
X107396134Y-96892141D01*
X107245000Y-96861536D01*
X105895000Y-96861536D01*
X105753810Y-96888103D01*
X105631821Y-96966600D01*
X98220941Y-96966600D01*
X97714306Y-96459964D01*
X98257300Y-96459964D01*
X98398490Y-96433397D01*
X98528165Y-96349954D01*
X98615159Y-96222634D01*
X98645764Y-96071500D01*
X98645764Y-94928500D01*
X98619197Y-94787310D01*
X98535754Y-94657635D01*
X98408434Y-94570641D01*
X98384300Y-94565754D01*
X98384300Y-94436067D01*
X98398490Y-94433397D01*
X98528165Y-94349954D01*
X98615159Y-94222634D01*
X98645764Y-94071500D01*
X98645764Y-94033400D01*
X102200000Y-94033400D01*
X102404123Y-93992797D01*
X102577171Y-93877171D01*
X103326266Y-93128075D01*
X103326269Y-93128073D01*
X103441895Y-92955025D01*
X103450431Y-92912114D01*
X103482499Y-92750902D01*
X103482498Y-92750897D01*
X103482498Y-92720477D01*
X103735077Y-92825357D01*
X104063482Y-92825643D01*
X104366998Y-92700233D01*
X104478343Y-92589082D01*
X104498600Y-92593184D01*
X104498600Y-92593184D01*
G37*
X104498600Y-92593184D02*
X105081662Y-92593184D01*
X105105623Y-92713643D01*
X105221249Y-92886691D01*
X105266600Y-92932042D01*
X105266600Y-95400000D01*
X105307203Y-95604123D01*
X105422829Y-95777171D01*
X106322829Y-96677171D01*
X106495877Y-96792797D01*
X106700000Y-96833400D01*
X113323858Y-96833400D01*
X113377809Y-96887351D01*
X113373810Y-96888103D01*
X113244135Y-96971546D01*
X113157141Y-97098866D01*
X113126536Y-97250000D01*
X113126536Y-100569000D01*
X112713464Y-100569000D01*
X112713464Y-97250000D01*
X112686897Y-97108810D01*
X112603454Y-96979135D01*
X112476134Y-96892141D01*
X112325000Y-96861536D01*
X110975000Y-96861536D01*
X110833810Y-96888103D01*
X110704135Y-96971546D01*
X110617141Y-97098866D01*
X110586536Y-97250000D01*
X110586536Y-100569000D01*
X110173464Y-100569000D01*
X110173464Y-97250000D01*
X110146897Y-97108810D01*
X110063454Y-96979135D01*
X109936134Y-96892141D01*
X109785000Y-96861536D01*
X108435000Y-96861536D01*
X108293810Y-96888103D01*
X108164135Y-96971546D01*
X108077141Y-97098866D01*
X108046536Y-97250000D01*
X108046536Y-100569000D01*
X107633464Y-100569000D01*
X107633464Y-97250000D01*
X107606897Y-97108810D01*
X107523454Y-96979135D01*
X107396134Y-96892141D01*
X107245000Y-96861536D01*
X105895000Y-96861536D01*
X105753810Y-96888103D01*
X105631821Y-96966600D01*
X98220941Y-96966600D01*
X97714306Y-96459964D01*
X98257300Y-96459964D01*
X98398490Y-96433397D01*
X98528165Y-96349954D01*
X98615159Y-96222634D01*
X98645764Y-96071500D01*
X98645764Y-94928500D01*
X98619197Y-94787310D01*
X98535754Y-94657635D01*
X98408434Y-94570641D01*
X98384300Y-94565754D01*
X98384300Y-94436067D01*
X98398490Y-94433397D01*
X98528165Y-94349954D01*
X98615159Y-94222634D01*
X98645764Y-94071500D01*
X98645764Y-94033400D01*
X102200000Y-94033400D01*
X102404123Y-93992797D01*
X102577171Y-93877171D01*
X103326266Y-93128075D01*
X103326269Y-93128073D01*
X103441895Y-92955025D01*
X103450431Y-92912114D01*
X103482499Y-92750902D01*
X103482498Y-92750897D01*
X103482498Y-92720477D01*
X103735077Y-92825357D01*
X104063482Y-92825643D01*
X104366998Y-92700233D01*
X104478343Y-92589082D01*
X104498600Y-92593184D01*
G36*
X132616277Y-91185232D02*
X132944682Y-91185518D01*
X133067506Y-91134768D01*
X133067506Y-94246889D01*
X133070536Y-94262124D01*
X132900583Y-94431781D01*
X132774643Y-94735077D01*
X132774357Y-95063482D01*
X132899767Y-95366998D01*
X133131781Y-95599417D01*
X133435077Y-95725357D01*
X133763482Y-95725643D01*
X134066998Y-95600233D01*
X134299417Y-95368219D01*
X134425357Y-95064923D01*
X134425643Y-94736518D01*
X134300233Y-94433002D01*
X134100312Y-94232732D01*
X134083506Y-94148243D01*
X134083506Y-93985626D01*
X134199767Y-94267000D01*
X134431781Y-94499419D01*
X134735077Y-94625359D01*
X135063482Y-94625645D01*
X135366998Y-94500235D01*
X135599417Y-94268221D01*
X135725357Y-93964925D01*
X135725643Y-93636520D01*
X135600233Y-93333004D01*
X135368534Y-93100901D01*
X135557650Y-92912114D01*
X135683590Y-92608818D01*
X135683604Y-92593184D01*
X136698240Y-92593184D01*
X136839430Y-92566617D01*
X136969105Y-92483174D01*
X137033148Y-92389444D01*
X137091566Y-92429359D01*
X137141100Y-92439390D01*
X137141100Y-92559154D01*
X137101510Y-92566603D01*
X136971835Y-92650046D01*
X136884841Y-92777366D01*
X136854236Y-92928500D01*
X136854236Y-94071500D01*
X136880803Y-94212690D01*
X136964246Y-94342365D01*
X137091566Y-94429359D01*
X137242700Y-94459964D01*
X137721616Y-94459964D01*
X135914878Y-96266702D01*
X132738562Y-96266702D01*
X131912650Y-95440790D01*
X131747843Y-95330669D01*
X131553440Y-95292000D01*
X128858900Y-95292000D01*
X128858900Y-95190846D01*
X128898490Y-95183397D01*
X129028165Y-95099954D01*
X129115159Y-94972634D01*
X129145764Y-94821500D01*
X129145764Y-93678500D01*
X129119197Y-93537310D01*
X129103810Y-93513398D01*
X130020002Y-93513398D01*
X130224125Y-93472795D01*
X130397173Y-93357169D01*
X130778751Y-92975591D01*
X130894377Y-92802543D01*
X130934980Y-92598420D01*
X130934980Y-92593184D01*
X131501400Y-92593184D01*
X131642590Y-92566617D01*
X131772265Y-92483174D01*
X131819823Y-92413571D01*
X131899123Y-92397797D01*
X132072171Y-92282171D01*
X132284972Y-92069370D01*
X132400598Y-91896322D01*
X132441201Y-91692199D01*
X132441201Y-91112534D01*
X132616277Y-91185232D01*
X132616277Y-91185232D01*
G37*
X132616277Y-91185232D02*
X132944682Y-91185518D01*
X133067506Y-91134768D01*
X133067506Y-94246889D01*
X133070536Y-94262124D01*
X132900583Y-94431781D01*
X132774643Y-94735077D01*
X132774357Y-95063482D01*
X132899767Y-95366998D01*
X133131781Y-95599417D01*
X133435077Y-95725357D01*
X133763482Y-95725643D01*
X134066998Y-95600233D01*
X134299417Y-95368219D01*
X134425357Y-95064923D01*
X134425643Y-94736518D01*
X134300233Y-94433002D01*
X134100312Y-94232732D01*
X134083506Y-94148243D01*
X134083506Y-93985626D01*
X134199767Y-94267000D01*
X134431781Y-94499419D01*
X134735077Y-94625359D01*
X135063482Y-94625645D01*
X135366998Y-94500235D01*
X135599417Y-94268221D01*
X135725357Y-93964925D01*
X135725643Y-93636520D01*
X135600233Y-93333004D01*
X135368534Y-93100901D01*
X135557650Y-92912114D01*
X135683590Y-92608818D01*
X135683604Y-92593184D01*
X136698240Y-92593184D01*
X136839430Y-92566617D01*
X136969105Y-92483174D01*
X137033148Y-92389444D01*
X137091566Y-92429359D01*
X137141100Y-92439390D01*
X137141100Y-92559154D01*
X137101510Y-92566603D01*
X136971835Y-92650046D01*
X136884841Y-92777366D01*
X136854236Y-92928500D01*
X136854236Y-94071500D01*
X136880803Y-94212690D01*
X136964246Y-94342365D01*
X137091566Y-94429359D01*
X137242700Y-94459964D01*
X137721616Y-94459964D01*
X135914878Y-96266702D01*
X132738562Y-96266702D01*
X131912650Y-95440790D01*
X131747843Y-95330669D01*
X131553440Y-95292000D01*
X128858900Y-95292000D01*
X128858900Y-95190846D01*
X128898490Y-95183397D01*
X129028165Y-95099954D01*
X129115159Y-94972634D01*
X129145764Y-94821500D01*
X129145764Y-93678500D01*
X129119197Y-93537310D01*
X129103810Y-93513398D01*
X130020002Y-93513398D01*
X130224125Y-93472795D01*
X130397173Y-93357169D01*
X130778751Y-92975591D01*
X130894377Y-92802543D01*
X130934980Y-92598420D01*
X130934980Y-92593184D01*
X131501400Y-92593184D01*
X131642590Y-92566617D01*
X131772265Y-92483174D01*
X131819823Y-92413571D01*
X131899123Y-92397797D01*
X132072171Y-92282171D01*
X132284972Y-92069370D01*
X132400598Y-91896322D01*
X132441201Y-91692199D01*
X132441201Y-91112534D01*
X132616277Y-91185232D01*
G36*
X111877701Y-90547500D02*
X111871350Y-90547500D01*
X111776100Y-90642750D01*
X111776100Y-91373000D01*
X111796100Y-91373000D01*
X111796100Y-91627000D01*
X111776100Y-91627000D01*
X111776100Y-91647000D01*
X111522100Y-91647000D01*
X111522100Y-91627000D01*
X111502100Y-91627000D01*
X111502100Y-91373000D01*
X111522100Y-91373000D01*
X111522100Y-90642750D01*
X111459335Y-90579985D01*
X111459366Y-90544388D01*
X111424483Y-90459964D01*
X111877701Y-90459964D01*
X111877701Y-90547500D01*
X111877701Y-90547500D01*
G37*
X111877701Y-90547500D02*
X111871350Y-90547500D01*
X111776100Y-90642750D01*
X111776100Y-91373000D01*
X111796100Y-91373000D01*
X111796100Y-91627000D01*
X111776100Y-91627000D01*
X111776100Y-91647000D01*
X111522100Y-91647000D01*
X111522100Y-91627000D01*
X111502100Y-91627000D01*
X111502100Y-91373000D01*
X111522100Y-91373000D01*
X111522100Y-90642750D01*
X111459335Y-90579985D01*
X111459366Y-90544388D01*
X111424483Y-90459964D01*
X111877701Y-90459964D01*
X111877701Y-90547500D01*
G36*
X104085997Y-86425357D02*
X104130363Y-86425396D01*
X104110136Y-86525280D01*
X104110136Y-87124720D01*
X104136703Y-87265910D01*
X104220146Y-87395585D01*
X104313672Y-87459489D01*
X104282781Y-87472284D01*
X104175604Y-87579460D01*
X104117600Y-87719494D01*
X104117600Y-87872750D01*
X104212850Y-87968000D01*
X105471420Y-87968000D01*
X105471420Y-87948000D01*
X105725420Y-87948000D01*
X105725420Y-87968000D01*
X105745420Y-87968000D01*
X105745420Y-88222000D01*
X105725420Y-88222000D01*
X105725420Y-88242000D01*
X105471420Y-88242000D01*
X105471420Y-88222000D01*
X104212850Y-88222000D01*
X104117600Y-88317250D01*
X104117600Y-88470506D01*
X104175604Y-88610540D01*
X104282781Y-88717716D01*
X104314633Y-88730909D01*
X104227735Y-88786826D01*
X104140741Y-88914146D01*
X104110136Y-89065280D01*
X104110136Y-89664720D01*
X104130773Y-89774395D01*
X104087438Y-89774357D01*
X103933400Y-89838004D01*
X103933400Y-86361993D01*
X104085997Y-86425357D01*
X104085997Y-86425357D01*
G37*
X104085997Y-86425357D02*
X104130363Y-86425396D01*
X104110136Y-86525280D01*
X104110136Y-87124720D01*
X104136703Y-87265910D01*
X104220146Y-87395585D01*
X104313672Y-87459489D01*
X104282781Y-87472284D01*
X104175604Y-87579460D01*
X104117600Y-87719494D01*
X104117600Y-87872750D01*
X104212850Y-87968000D01*
X105471420Y-87968000D01*
X105471420Y-87948000D01*
X105725420Y-87948000D01*
X105725420Y-87968000D01*
X105745420Y-87968000D01*
X105745420Y-88222000D01*
X105725420Y-88222000D01*
X105725420Y-88242000D01*
X105471420Y-88242000D01*
X105471420Y-88222000D01*
X104212850Y-88222000D01*
X104117600Y-88317250D01*
X104117600Y-88470506D01*
X104175604Y-88610540D01*
X104282781Y-88717716D01*
X104314633Y-88730909D01*
X104227735Y-88786826D01*
X104140741Y-88914146D01*
X104110136Y-89065280D01*
X104110136Y-89664720D01*
X104130773Y-89774395D01*
X104087438Y-89774357D01*
X103933400Y-89838004D01*
X103933400Y-86361993D01*
X104085997Y-86425357D01*
M02*
